<svg xmlns="http://www.w3.org/2000/svg" xmlns:xlink="http://www.w3.org/1999/xlink" width="271.105" height="677" viewBox="0 0 271.105 677">
  <defs>
    <clipPath id="clip-path">
      <rect id="Rect치ngulo_40317" data-name="Rect치ngulo 40317" width="247.927" height="677" fill="none"/>
    </clipPath>
  </defs>
  <g id="Grupo_564528" data-name="Grupo 564528" transform="translate(-252 -3044.527)">
    <ellipse id="Elipse_5212" data-name="Elipse 5212" cx="135.5" cy="23" rx="135.5" ry="23" transform="translate(252 3675.527)" fill="#afafaf" opacity="0.42"/>
    <g id="Grupo_110566" data-name="Grupo 110566" transform="translate(275.178 3044.527)">
      <g id="Grupo_110565" data-name="Grupo 110565" transform="translate(0)" clip-path="url(#clip-path)">
        <path id="Trazado_191718" data-name="Trazado 191718" d="M54.575,380.739c-.751,5.253-5.754,17.342-3.919,19.249,2.092,2.171,47.984,4.49,66.42,1.729,8.775-1.056,7.851-8.454-1.4-11.844-5.044-1.849-27.927-5.8-36.712-9.371q-3.117-9.508-6.23-19.017a4.631,4.631,0,0,0-1.244-2.247,4.654,4.654,0,0,0-3.122-.668,112.044,112.044,0,0,0-12.046.608c-2.1,11.164-.139,10.28-1.751,21.561" transform="translate(34.922 249.165)" fill="#090d46"/>
        <path id="Trazado_191719" data-name="Trazado 191719" d="M13.446,410.119c-.707,5.025-.347,11,3.776,13.957,2.727,1.956,26.163,3.234,30.227-2.395,4.007-5.547,2.592-11.608,2.09-15.093-2.415-16.73-2.142-28.279-4.556-45.011-5.922.191-11.373.663-17.261,0-.693,5.346-1.08,9.9-1.958,15.268-1,6.085-11.539,27.729-12.319,33.274" transform="translate(9.144 251.261)" fill="#090d46"/>
        <path id="Trazado_191720" data-name="Trazado 191720" d="M36.225,297.939c-5.805,2.231,55.947-2.456,70.354-6.693s-21.9-87.032-21.9-87.032Z" transform="translate(24.906 141.909)" fill="#d3d0c9"/>
        <path id="Trazado_191721" data-name="Trazado 191721" d="M22.177,367.466c-.242,26.115-5.032,101.755-1.541,132.54,10.976,6.42,25.313.768,25.313.768,9.493-47.672,10.286-80.087,19.778-127.76,5.222-26.217,14.542-117.136,19.329-140,2.312.559,4.017-.559,6.329,0,1.119,43.606-3.358,76.845-6.02,117.187-3.383,51.255-6.681,76.75-8.654,147.643,13.146,3.9,20.654,2.158,24.066-1.232,10.525-31.9,23.669-111.823,28.9-150.417,7.991-58.944,15.481-109.337,4.805-167.858-17.8,6.705-94.415.3-113.145.088-3.434,16.959-2.114,36.517-3.429,53.911-1.758,23.247,4.266,88.915,4.266,135.126" transform="translate(12.223 123.929)" fill="#4639b9"/>
        <path id="Trazado_191722" data-name="Trazado 191722" d="M105.558,83.832l32.969,80.991c2.376,5.837,4.754,11.68,6.729,17.666,2.2,6.669-18.791,18.722-26.432,12.349-15.683-13.081-24.039-35.473-35.9-52.1s-21.4-35.847-21.786-56.266c-.061-3.227.137-6.575,1.612-9.446,8.976-17.49,37.086-7.254,42.808,6.8" transform="translate(42.478 47.106)" fill="#d3d0c9"/>
        <path id="Trazado_191723" data-name="Trazado 191723" d="M127.829,115.949c-5.11,9.752,3.82,14.371,11.429,7.8,6.3-5.437,8.624-11.8,7.83-18.574a25.948,25.948,0,0,1-19.259,10.773" transform="translate(87.783 73.087)" fill="#e89e85"/>
        <path id="Trazado_191724" data-name="Trazado 191724" d="M157.414,142.958c2.673-3.624,9.58-16.1,9.478-20.6a35.807,35.807,0,0,1-9.795-4.9c-4.1-3.154-8.747-5.871-11.541-10.222-1.159,7.9-3.866,16.5-10.824,20.427-7.025,3.966-15.957,1.812-23.649,4.244-18.832,5.954-27.185,37.281-3.417,41.4,22.1,3.834,38.645-15.307,49.747-30.357" transform="translate(64.697 74.521)" fill="#d3d0c9"/>
        <path id="Trazado_191725" data-name="Trazado 191725" d="M95,142.041a41.225,41.225,0,0,1,.547-7.512c.525-2.415,1.924-4.373,3.236-6.417.358-.556-.385-1.375-.949-.949-4.766,3.593-4.788,9.444-4.264,14.878a.716.716,0,0,0,1.43,0" transform="translate(64.867 88.284)" fill="#e2dfd8"/>
        <path id="Trazado_191726" data-name="Trazado 191726" d="M99.238,140.827c-1.532-4.22-.053-7.505,1.561-11.381a.831.831,0,0,0-1.21-.93c-3.9,2.964-3.724,8.878-1.7,12.88.373.736,1.634.222,1.347-.568" transform="translate(67.044 89.218)" fill="#e2dfd8"/>
        <path id="Trazado_191727" data-name="Trazado 191727" d="M75.709,59.875,13.2,93.78S38.93,164.954,37.164,195.02s0,46.712,0,46.712l94.177-10.359s2.073-49.128,1.147-76.562-3.7-73.752-3.7-73.752Z" transform="translate(9.175 41.607)" fill="#6861e2"/>
        <path id="Trazado_191728" data-name="Trazado 191728" d="M37.129,68.712c.4,4.583-.186,7.513-1.259,9.786-3.761,7.959,30.471,25.11,38.925,22.656,4.112-1.193,10.125-11.7,9.961-15.981-6.93.764-7.22-3.664-10.7-9.708-2.01-3.495-2.79-7.541-3.541-11.5q-1.823-9.63-3.646-19.257a3.876,3.876,0,0,0-.986-2.286,3.856,3.856,0,0,0-2.251-.7c-5.39-.5-29.925-6.719-28.783-1.058,1.7,8.429,1.869,23.33,2.278,28.052" transform="translate(24.191 26.611)" fill="#d18774"/>
        <path id="Trazado_191729" data-name="Trazado 191729" d="M39.311,81.195s13.864,18.835,34.94,11.5,8.058-25.364,8.058-25.364l-9.764-7.654s6.244,9.747.837,26.617c0,0-28.524-20.03-34.071-15.451s0,10.351,0,10.351" transform="translate(25.604 41.47)" fill="#6861e2"/>
        <path id="Trazado_191730" data-name="Trazado 191730" d="M12.362,85.566c-2.734,2.5-5.412,5.21-6.883,8.608-1.6,3.7-1.625,7.883-1.375,11.91a98.094,98.094,0,0,0,7.19,31.168c3.727,9.044,8.805,17.522,11.944,26.786,4.208,12.425,4.764,25.769,4.729,38.89C27.862,241.734,13.64,361.861,3.987,399.447c23.9,7.929,61.333,7.042,86.206,3.081.461-21.844,5.641-32.142,9.115-53.715,2.186-13.583,13.28-162.972,3.61-208.385-.583-2.737-19.291-44.086-28.291-61.371C68.76,67.785,66.56,56.549,55.3,61.783,44.626,66.748,21.043,77.639,12.362,85.566" transform="translate(2.77 42.014)" fill="#e2dfd8"/>
        <path id="Trazado_191731" data-name="Trazado 191731" d="M63.767,62.723c10.319,1.469,30.264,9.195,35.02,17.3,3.03,5.168,3.863,11.29,4.636,17.23,4.869,37.445.249,75.074,2.959,112.742,2.524,35.1,18.322,146.348,15.329,181.405-19.874,3.954-34.118,3.136-53.995,7.09.215-11.83-5.307-19.061-6.605-51.25-1.268-31.447-.742-91.257-1.215-102.806-1.666-40.764-1.783-57.015,5.212-98.608,4.729-28.12-.995-56.939-1.341-83.1" transform="translate(40.966 43.586)" fill="#e2dfd8"/>
        <path id="Trazado_191732" data-name="Trazado 191732" d="M66.82,133.913c-.241,25.778-.558,51.571-1.4,77.337-.841,25.673-4,51.574-4.022,77.223,0,1.795,2.915,2.317,3.234.437,4.215-24.744,3.681-51.108,4.469-76.147.827-26.281,1.351-52.581-.024-78.85a1.128,1.128,0,0,0-2.254,0" transform="translate(42.664 92.3)" fill="#d3d0c9"/>
        <path id="Trazado_191733" data-name="Trazado 191733" d="M28.856,199.58c5.532.112,11.064.244,16.6.336,4.8.08,9.913.744,14.549-.575A1.224,1.224,0,0,0,60,197c-4.6-1.308-9.785-.654-14.549-.575-5.532.095-11.064.225-16.6.337a1.409,1.409,0,0,0,0,2.817" transform="translate(19.107 136.334)" fill="#d3d0c9"/>
        <path id="Trazado_191734" data-name="Trazado 191734" d="M77.24,197.479a64.659,64.659,0,0,0,16.874.188c1.615-.219,1.615-3.042,0-3.259a64.66,64.66,0,0,0-16.874.188c-1.427.192-1.429,2.69,0,2.883" transform="translate(52.93 134.769)" fill="#d3d0c9"/>
        <path id="Trazado_191735" data-name="Trazado 191735" d="M38,108.8a45.511,45.511,0,0,0,10.49-1.847c2.668-.834,6.275-1.673,7.788-4.164a1.249,1.249,0,0,0-1.066-1.859c-2.683-.173-5.161,1.737-7.669,2.586A48.013,48.013,0,0,1,38,105.724c-1.912.237-2.015,3.217,0,3.078" transform="translate(25.382 70.129)" fill="#d3d0c9"/>
        <path id="Trazado_191736" data-name="Trazado 191736" d="M59.8,103.6c3.376-8.061.234-11.422,5.576-18.341l12.137,11.11a86.932,86.932,0,0,1,3.3-11.883c4.493,4,6.181,8.115,10.093,12.685,2.112-7.442,3.176-13.658,0-22.169-3.275-8.771-8.505-11.319-15.1-11.652a52.372,52.372,0,0,1-2.62,23.6c-6.9-4.2-25.566-24.079-34.4-32.554,0,0-6.639,7.742-6.639,13.268,0,6.664,21.846,29.5,27.651,35.932" transform="translate(22.34 37.801)" fill="#4639b9"/>
        <path id="Trazado_191737" data-name="Trazado 191737" d="M129.67,65.812l-31.237,100.5,2.725,2.137,43-4.805,35.366-99.455Z" transform="translate(68.401 44.608)" fill="#ea9639"/>
        <path id="Trazado_191738" data-name="Trazado 191738" d="M131.942,65.812l-31.9,102.642,46.391-4.805,31.976-99.455Z" transform="translate(69.518 44.608)" fill="#febc53"/>
        <path id="Trazado_191739" data-name="Trazado 191739" d="M152.874,115.606a29.58,29.58,0,0,0-3.122-9.834c-2.195-4.351-4.529-6.534-7.185-10.619-1.315-2.02-4.091-6.256-5.856-4.615-.9,3.861,4.054,9.4,5.856,12.937-4.081-2.308-15.629-8.554-17.02-7.661-1.225,2.556,1.534,4.305,3.934,5.812s9.71,6.766,5.612,6.754c-5.7-1.415-17.227-7.447-17.095-4.247,2.107,3.71,6.336,5.037,9.864,7.434,2.692,1.825,7.508,4.039,7.613,5.839-2.954,1.058-3.08.473-6.19.049s-8.2-.791-6.347,1.647c.844,1.114,13.656,6.337,14.878,6.6,11.352,4.046,13.395-3.737,15.058-10.1" transform="translate(81.997 62.659)" fill="#e89e85"/>
        <path id="Trazado_191740" data-name="Trazado 191740" d="M127.16,64.888l-2.322,8.4,17.427-.949,2.49-8.008-5.115.186s.919-4.754-2.78-4.6-4.5,4.6-4.5,4.6Z" transform="translate(86.75 41.632)" fill="#d3d0c9"/>
        <path id="Trazado_191741" data-name="Trazado 191741" d="M42.058,69.8a41.164,41.164,0,0,0,17.8,28.073c7.714,4.939,18.352,6.395,25.891,1.192a23.82,23.82,0,0,0,7.241-8.581c3.549-6.678,4.873-14.285,5.937-21.771,1.312-9.21-1.771-14.161.386-25.591,1.727-9.142,4.1-17.88-2.459-24.474C92.313,14.076,78.562,8.2,72.627,5.7,66.349,3.045,59.356.989,52.785,2.791,47.181,4.33,42.7,8.454,38.625,12.6c-18.937,19.269-.031,33.6,3.432,57.2" transform="translate(21.072 1.467)" fill="#e89e85"/>
        <path id="Trazado_191742" data-name="Trazado 191742" d="M65.282,35.942c17.841,1.568,18.18-1.917,26.873-3.278,10.524-1.649,18.79,3.944,20.773-6.522-6.819-4.08-8.095-10.186-15.571-16.944C90.179,2.71,79.9-.983,59.677.229c-14.115.846-27.688,6.493-23.8,20.088-4.591-.281-9.52,5.253-9.575,10.888-.117,11.886,4.315,37.812,12.742,37.152,11.8-.925,8.612-26.807,7.229-35.693a123.228,123.228,0,0,0,19.013,3.278" transform="translate(18.273 0)" fill="#090d46"/>
        <path id="Trazado_191743" data-name="Trazado 191743" d="M33.72,30.845c-4.368,2.841-4.369,8.551-3.093,13.273s6.164,8.912,11.052,9.117c6.505.271,5.668-7.41,5.256-11.891-1.127-12.258-8.178-13.773-13.215-10.5" transform="translate(20.77 20.395)" fill="#e89e85"/>
        <path id="Trazado_191744" data-name="Trazado 191744" d="M55.632,36.751c0,2.534-1.2,4.588-2.681,4.588s-2.68-2.054-2.68-4.588,1.2-4.59,2.68-4.59,2.681,2.056,2.681,4.59" transform="translate(34.933 22.349)" fill="#090d46"/>
        <path id="Trazado_191745" data-name="Trazado 191745" d="M68.436,36.264c0,2.534-1.2,4.588-2.68,4.588s-2.681-2.054-2.681-4.588,1.2-4.588,2.681-4.588,2.68,2.054,2.68,4.588" transform="translate(43.831 22.012)" fill="#090d46"/>
        <path id="Trazado_191746" data-name="Trazado 191746" d="M59.495,32.316c-1.019,3.958-2.875,10.8.315,14.281,1.154,1.261,3.376,1.573,4.276,3.034,2.073,3.366-3.471,3.605-5.514,3.82a1.649,1.649,0,0,0,0,3.295c3.93.131,9.829-1.58,9.514-6.588a6.277,6.277,0,0,0-2.719-4.395c-1.947-1.488-2.981-1.427-3.444-4.366-.427-2.707.266-5.959.508-8.683.151-1.7-2.524-2.005-2.937-.4" transform="translate(39.599 21.724)" fill="#d18774"/>
        <path id="Trazado_191747" data-name="Trazado 191747" d="M51.844,50.922A13.654,13.654,0,0,0,61.957,55.25c3.678-.181,8.225-2.424,9.495-6.017a.932.932,0,0,0-1.139-1.141c-3.149,1.247-5.115,4.151-8.793,4.278-3.19.11-5.725-1.586-8.28-3.261-1.112-.73-2.3.893-1.4,1.812" transform="translate(35.805 33.385)" fill="#d18774"/>
        <path id="Trazado_191748" data-name="Trazado 191748" d="M56.21,55.477a22.929,22.929,0,0,0,5.039.308.719.719,0,0,0,.19-1.405,22.837,22.837,0,0,0-4.953-.947c-1.154-.122-1.437,1.876-.276,2.044" transform="translate(38.545 37.127)" fill="#d18774"/>
        <path id="Trazado_191749" data-name="Trazado 191749" d="M40.464,32.731a4.715,4.715,0,0,0-6.1-.514c-2.286,1.461-3.078,4.356-2.9,6.936.205,2.937,2.259,9.973,6.276,9a.8.8,0,0,0,.476-1.171c-.712-.936-1.744-1.441-2.447-2.4a10.434,10.434,0,0,1-1.483-3.444c-.839-3.122.276-10.008,5.053-6.952.9.578,1.842-.71,1.122-1.454" transform="translate(21.849 21.78)" fill="#d18774"/>
        <path id="Trazado_191750" data-name="Trazado 191750" d="M47.068,30.164a20.387,20.387,0,0,1,7.549-2.351c2.264-.212,4.478.322,6.729.205a1.355,1.355,0,0,0,.678-2.505c-4.939-2.558-11.863-.32-16.159,2.592a1.193,1.193,0,0,0,1.2,2.059" transform="translate(31.484 16.951)" fill="#090d46"/>
        <path id="Trazado_191751" data-name="Trazado 191751" d="M63.876,28.858c1.834-.868,3.856-1.937,5.944-1.869,1.893.063,3.142,1.451,5.061,1.09a1.317,1.317,0,0,0,.908-1.6c-.625-2.4-3.744-3.129-5.969-3.066-2.7.075-5.163,1.6-7.41,2.937a1.454,1.454,0,0,0,1.466,2.508" transform="translate(42.87 16.267)" fill="#090d46"/>
        <path id="Trazado_191752" data-name="Trazado 191752" d="M48.464,42.76c1.82.375,3.981.463,5.378-.981A1.053,1.053,0,0,0,53.106,40c-1.464-.034-2.853.5-4.327.427a1.192,1.192,0,0,0-.315,2.33" transform="translate(33.09 27.797)" fill="#d18774"/>
        <path id="Trazado_191753" data-name="Trazado 191753" d="M66.668,42.183a8.48,8.48,0,0,0,1.607,0,1.524,1.524,0,0,0,0-3.046,2.4,2.4,0,0,0-2.469,1.522,1.238,1.238,0,0,0,.863,1.52" transform="translate(45.689 27.193)" fill="#d18774"/>
        <path id="Trazado_191754" data-name="Trazado 191754" d="M39.42,35.367c-2.271-.808-4.483.207-4.488,2.807a5.449,5.449,0,0,0,4.014,5.376.768.768,0,0,0,.588-1.4A6.446,6.446,0,0,1,37.252,38.6c-.269-1.363.381-1.636,1.624-1.261,1.275.386,1.771-1.537.544-1.975" transform="translate(24.274 24.388)" fill="#d18774"/>
        <path id="Trazado_191755" data-name="Trazado 191755" d="M44.075,13.326c12.283,5.815,25.259.383,38.193-.229a.65.65,0,0,0,0-1.3c-12.836-.68-25.371,6-37.668.631-.6-.263-1.137.608-.525.9" transform="translate(30.44 8.164)" fill="#1c2872"/>
        <path id="Trazado_191756" data-name="Trazado 191756" d="M40.971,9.066c10.876,4.754,21.386,1.522,32.7.212a.89.89,0,0,0,0-1.778c-11.2-.9-20.857,4.363-32.147.259-.753-.275-1.295.981-.551,1.307" transform="translate(28.224 5.139)" fill="#1c2872"/>
        <path id="Trazado_191757" data-name="Trazado 191757" d="M42.979,4.982c6.285,2.749,14.551,3.436,20.632-.266a.719.719,0,0,0-.553-1.308c-6.886,1.815-12.664,2.8-19.646.544-.6-.192-1.025.771-.434,1.031" transform="translate(29.67 2.35)" fill="#1c2872"/>
        <path id="Trazado_191758" data-name="Trazado 191758" d="M31.938,16.529c-3.856,3.415-3.871,9.758-1.1,13.866a.7.7,0,0,0,1.292-.349c.071-4.244-2.273-8.607,1.1-12.229a.911.911,0,0,0-1.286-1.288" transform="translate(20.072 11.313)" fill="#1c2872"/>
        <path id="Trazado_191759" data-name="Trazado 191759" d="M33.7,18.139c-1.268,3.915-1.6,10.022,1.727,13.086a.874.874,0,0,0,1.449-.842c-.4-1.808-1.378-3.407-1.753-5.246a16.546,16.546,0,0,1-.044-6.619.716.716,0,0,0-1.38-.38" transform="translate(22.793 12.253)" fill="#1c2872"/>
        <path id="Trazado_191760" data-name="Trazado 191760" d="M35.533,15.385a15.586,15.586,0,0,1-.541-3.912,18.37,18.37,0,0,0,.083-3.2.475.475,0,0,0-.859-.112c-1.134,2.054-.334,5.369.327,7.493a.514.514,0,0,0,.99-.273" transform="translate(23.381 5.518)" fill="#1c2872"/>
        <path id="Trazado_191761" data-name="Trazado 191761" d="M36.561,15.664c.675-1.715,1.463-3.419,1.98-5.19a.35.35,0,0,0-.636-.268,16.282,16.282,0,0,0-2.029,5.269.355.355,0,0,0,.685.188" transform="translate(24.923 6.981)" fill="#1c2872"/>
        <path id="Trazado_191762" data-name="Trazado 191762" d="M38.457,17.71a12.254,12.254,0,0,1,1.805-1.861A23.948,23.948,0,0,0,42.211,14.4c.351-.337-.027-.792-.429-.736-1.734.237-3.295,1.995-4.108,3.439-.266.473.412,1.056.783.6" transform="translate(26.138 9.495)" fill="#1c2872"/>
        <rect id="Rect치ngulo_40316" data-name="Rect치ngulo 40316" width="38.529" height="6.242" transform="matrix(0.272, -0.962, 0.962, 0.272, 122.873, 165.606)" fill="#090d46"/>
        <path id="Trazado_191763" data-name="Trazado 191763" d="M84.689,80.594l-6.015-1.7,2.69-3.737,2.668-3.724L84.353,76Z" transform="translate(54.671 49.639)" fill="#febc53"/>
        <path id="Trazado_191764" data-name="Trazado 191764" d="M74.845,102.41l-.5-.142a2.86,2.86,0,0,1-1.975-3.53l.292-1.029,6.007,1.7-.292,1.029a2.86,2.86,0,0,1-3.53,1.975" transform="translate(50.214 67.898)" fill="#febc53"/>
        <path id="Trazado_191765" data-name="Trazado 191765" d="M83.251,76l-2.99-.846,2.668-3.724Z" transform="translate(55.773 49.639)" fill="#090d46"/>
        <path id="Trazado_191766" data-name="Trazado 191766" d="M93.388,106.488c1.059-1.978,14.342-3.33,11.588-6.3-.605-.654-11.915.292-11.054-.037,10.619-4.058,14.949-9.827,9.995-8.542-4.356,1.758-8.781,3.151-13.135,4.908,1.963-2.464,4.117-3.1,6.356-4.908s8.547-6.981,5.119-7.29c-4.178,1.859-10.781,5.5-14.112,8.63.451-3.871,12.273-11.925,6.768-11.925-4.08,2.893-8.176,5.759-12.237,8.678A12.72,12.72,0,0,0,78.33,96.52c-.759,4.71.581,18.464-1.649,22.786-2.263,4.385-9.278,11.339-13.927,12.825.681,14.72,4.846,16.99,16.808,11.468,7.525-3.473,14.808-12.246,15.854-20.585.3-2.4-2.358-15.915-2.029-16.527" transform="translate(43.608 56.306)" fill="#e89e85"/>
        <path id="Trazado_191767" data-name="Trazado 191767" d="M8.508,135.413c8.82,19.578,19,47.773,32.717,64.3,5.3,6.391,8.837,9.48,17.139,9.68,9.349.225,20.146-10.207,27.086-16.474,18.624-16.815,28.895-27.479,45.667-41.086A169.817,169.817,0,0,1,115.25,125.7a484.518,484.518,0,0,1-54.323,34.661c-2.939-18.073-30.444-91.132-41.037-87.047C9.895,77.171,3.4,82.808.649,93.338c-1.695,6.473-.4,23.747,7.859,42.074" transform="translate(0 50.833)" fill="#efebe4"/>
        <path id="Trazado_191768" data-name="Trazado 191768" d="M74.685,121.289a3.344,3.344,0,1,1-3.344-3.344,3.343,3.343,0,0,1,3.344,3.344" transform="translate(47.251 81.96)" fill="#d3d0c9"/>
        <path id="Trazado_191769" data-name="Trazado 191769" d="M67.47,126.291a3.344,3.344,0,1,1-3.344-3.344,3.343,3.343,0,0,1,3.344,3.344" transform="translate(42.238 85.436)" fill="#d3d0c9"/>
        <path id="Trazado_191770" data-name="Trazado 191770" d="M37.368,126.424c-4.681,6.432-9.563,16.3-7.769,24.473.375,1.705,2.612,1.373,3.134,0,1.359-3.563,1.612-7.51,2.708-11.178a54.057,54.057,0,0,1,5.108-11.435c1.208-2.1-1.814-3.739-3.181-1.859" transform="translate(20.304 87.279)" fill="#e2dfd8"/>
        <path id="Trazado_191771" data-name="Trazado 191771" d="M37.6,128.075c-2.8,8.729-3.451,19.569,1.676,27.564a1.329,1.329,0,0,0,2.417-1.019c-2.159-8.969-4.054-16.651-1.627-25.866a1.28,1.28,0,0,0-2.466-.68" transform="translate(24.634 88.376)" fill="#e2dfd8"/>
      </g>
    </g>
  </g>
</svg>
