<svg xmlns="http://www.w3.org/2000/svg" width="190" height="183.038" viewBox="0 0 190 183.038">
  <g id="Grupo_562015" data-name="Grupo 562015" transform="translate(-180 -1407.631)">
    <g id="Grupo_559651" data-name="Grupo 559651" transform="translate(256.878 1431.56)">
      <path id="Trazado_194034" data-name="Trazado 194034" d="M379.59,1481.106q-.288,1.069-.538,2.174c.715-.2,1.442-.372,2.177-.529q.288-1.066.623-2.085C381.094,1480.8,380.338,1480.946,379.59,1481.106Zm18.474-8.86-1.853-1.853c-.655.122-1.3.247-1.937.386l2.954,2.954a12.618,12.618,0,0,1-1.571,1.984l-4.188-4.188q-.868.281-1.692.632l4.647,4.647a9.729,9.729,0,0,1-1.072.705c-.386.214-.782.409-1.186.591l-4.691-4.691a9.409,9.409,0,0,0-1.135.964c-.037.037-.071.079-.108.117l4.262,4.262a28.536,28.536,0,0,1-2.767.788l-3.047-3.047a16.274,16.274,0,0,0-.825,1.5l1.955,1.955c-.984.191-1.981.363-2.976.538q-.348,1-.646,2.064c4.437-.87,9.07-1.324,12.8-3.4,3.338-1.862,5.184-5.493,6.429-9.718-.779.16-1.561.306-2.34.444A23,23,0,0,1,398.064,1472.247Zm-24.28,10.72,1.641,1.641c.241-.117.489-.219.736-.324l1.48,1.481c.128-.649.26-1.292.4-1.927l-.194-.194c.084-.028.17-.051.255-.078q.251-1.138.534-2.237A23.623,23.623,0,0,0,373.784,1482.967Zm25.625-14.03c.763-.138,1.524-.283,2.277-.445.191-.71.368-1.434.535-2.167-.715.2-1.444.37-2.18.527C399.848,1467.564,399.635,1468.257,399.409,1468.937Zm.875-3.03c.728-.163,1.447-.345,2.15-.552.013-.061.027-.121.04-.182l.13.129c.589-.178,1.169-.372,1.73-.594l-1.468-1.468q.1-.517.2-1.032l-1.641-1.641C401.082,1462.367,400.718,1464.168,400.283,1465.906Z" transform="translate(-373.784 -1460.567)" fill="#4c4bf0"/>
      <path id="Trazado_194035" data-name="Trazado 194035" d="M389.9,1477.942c-3.452,3.453-4.76,9.4-5.87,15.272l1.641,1.641c1.11-5.873,2.417-11.819,5.87-15.272a9.988,9.988,0,0,1,2.2-1.674c5.723-3.182,13.56-2.549,19.566-5.454l-1.641-1.641c-6.005,2.9-13.843,2.271-19.566,5.454A9.984,9.984,0,0,0,389.9,1477.942Z" transform="translate(-379.604 -1466.386)" fill="#4c4bf0"/>
    </g>
    <g id="Grupo_559652" data-name="Grupo 559652" transform="translate(292.666 1486.446)">
      <path id="Trazado_194036" data-name="Trazado 194036" d="M494.417,1601.929a8.514,8.514,0,0,0-8.494,8.006h16.988A8.513,8.513,0,0,0,494.417,1601.929Z" transform="translate(-473.259 -1595.737)" fill="#4c4bf0"/>
      <path id="Trazado_194037" data-name="Trazado 194037" d="M485.915,1622.668a8.509,8.509,0,0,0,17,0Z" transform="translate(-473.254 -1607.515)" fill="#4c4bf0"/>
      <path id="Trazado_194038" data-name="Trazado 194038" d="M462.082,1587.6a5.484,5.484,0,0,0-5.47,5.464l.007,16.526a5.464,5.464,0,1,0,10.927,0v-16.526A5.482,5.482,0,0,0,462.082,1587.6Zm4.291,14.025h-8.589v-8.379a4.294,4.294,0,0,1,8.589,0Z" transform="translate(-456.612 -1587.598)" fill="#4c4bf0"/>
    </g>
    <g id="Grupo_559653" data-name="Grupo 559653" transform="translate(202.538 1538.046)">
      <path id="Trazado_194039" data-name="Trazado 194039" d="M257.367,1707.023s-9.351,15.657-9.351,20.823a9.351,9.351,0,1,0,18.7,0C266.718,1722.68,257.367,1707.023,257.367,1707.023Zm0,28.21a7.4,7.4,0,0,1-7.388-7.387c0-2.864,4.026-10.941,7.388-16.906,3.361,5.965,7.387,14.043,7.387,16.906A7.4,7.4,0,0,1,257.367,1735.233Z" transform="translate(-248.016 -1707.023)" fill="#4c4bf0"/>
      <path id="Trazado_194040" data-name="Trazado 194040" d="M261.6,1757.99a5.716,5.716,0,0,1-2.989-5.022.714.714,0,0,0-1.428,0,7.145,7.145,0,0,0,3.737,6.278.735.735,0,0,0,.343.085.722.722,0,0,0,.628-.376A.714.714,0,0,0,261.6,1757.99Z" transform="translate(-253.22 -1732.711)" fill="#4c4bf0"/>
    </g>
    <g id="Grupo_559654" data-name="Grupo 559654" transform="translate(228.365 1486.272)">
      <path id="Trazado_194041" data-name="Trazado 194041" d="M337.085,1589.464s-1.053,1.013-4.288,1.013a19.531,19.531,0,0,1-2.491-.172c-5.439-.7-7.76-3.11-7.76-3.11s-2.321,2.409-7.761,3.11a19.464,19.464,0,0,1-2.491.172c-3.235,0-4.287-1.013-4.287-1.013s-3.144,18.659,14.539,28.914C340.228,1608.123,337.085,1589.464,337.085,1589.464ZM322.546,1616.4a26.372,26.372,0,0,1-12.219-16.589,29.616,29.616,0,0,1-.821-7.908,13.114,13.114,0,0,0,2.789.271,21.294,21.294,0,0,0,2.708-.186,17.414,17.414,0,0,0,7.544-2.642,17.4,17.4,0,0,0,7.542,2.642,21.312,21.312,0,0,0,2.708.186,13.126,13.126,0,0,0,2.788-.271A27.3,27.3,0,0,1,322.546,1616.4Z" transform="translate(-307.791 -1587.195)" fill="#4c4bf0"/>
      <path id="Trazado_194042" data-name="Trazado 194042" d="M336.048,1607.385h-4.033v4.054h-4.054v4.033h4.054v4.054h4.033v-4.054H340.1v-4.033h-4.054Z" transform="translate(-319.246 -1598.661)" fill="#4c4bf0"/>
    </g>
    <path id="Trazado_194043" data-name="Trazado 194043" d="M410.33,1728.038h0a9.014,9.014,0,0,0-9.264-8.467c-.149,0-.3,0-.451.01a10.052,10.052,0,0,0-6.685,3.45,10.052,10.052,0,0,0-6.634-3.547c-.206-.012-.409-.017-.61-.017a9.023,9.023,0,0,0-9.227,8.332c-.3,4.475,2.746,8.368,5.066,10.907a52.93,52.93,0,0,0,10.723,8.621l.5.3.507-.288a52.964,52.964,0,0,0,10.847-8.464C407.463,1736.366,410.569,1732.517,410.33,1728.038Zm-6.693,9.451a51.117,51.117,0,0,1-9.868,7.8,51.066,51.066,0,0,1-9.753-7.939c-.579-.634-1.207-1.361-1.809-2.158h6.351a.328.328,0,0,0,.263-.124l.35-.462.436,1.992a.327.327,0,0,0,.623,0l.414-1.841.51,2.719a.326.326,0,0,0,.626,0l1.572-7.615,1.3,11.272a.324.324,0,0,0,.63.013l1.121-6.714.457,2.869a.3.3,0,0,0,.3.243.317.317,0,0,0,.322-.205l.784-2.473.307,1.4a.308.308,0,0,0,.292.228.328.328,0,0,0,.318-.187l.409-1.03.361.505a.343.343,0,0,0,.517.023l.544-.615h4.6A29.472,29.472,0,0,1,403.637,1737.489Zm2.39-2.869h-5.168a.331.331,0,0,0-.249.107l-.362.409-.47-.658a.329.329,0,0,0-.3-.128.313.313,0,0,0-.271.186l-.238.6-.339-1.546a.309.309,0,0,0-.3-.228h-.01a.314.314,0,0,0-.305.205l-.737,2.325-.553-3.469a.325.325,0,0,0-.629,0l-1.071,6.414-1.269-11a.3.3,0,0,0-.308-.254.311.311,0,0,0-.32.231l-1.647,7.975-.5-2.648a.326.326,0,0,0-.624-.009l-.438,1.948-.276-1.257a.3.3,0,0,0-.261-.225.342.342,0,0,0-.314.12l-.683.9h-6.6a10.681,10.681,0,0,1-2.32-6.685,6.942,6.942,0,0,1,7.215-6.452c.163,0,.328,0,.5.014,3.479.193,5.876,3.659,5.9,3.692l.823,1.22.841-1.208c.024-.035,2.448-3.462,5.951-3.606a7.065,7.065,0,0,1,7.618,6.549h0A10.515,10.515,0,0,1,406.027,1734.62Z" transform="translate(-118.981 -176.044)" fill="#4c4bf0"/>
    <path id="Trazado_194044" data-name="Trazado 194044" d="M558.045,1729.122a3.61,3.61,0,1,0-4.406,3.519v6.07a7.966,7.966,0,1,1-15.932,0v-2.475h3.512a3.866,3.866,0,0,0,3.832-3.386l2.011-16.207a3.861,3.861,0,0,0-3.832-4.337h-1.455a.8.8,0,1,0,0,1.592h1.455a2.269,2.269,0,0,1,2.252,2.549l-2.011,16.207a2.272,2.272,0,0,1-2.251,1.99H532.6a2.272,2.272,0,0,1-2.252-1.99l-2.01-16.207a2.269,2.269,0,0,1,2.252-2.549h2.055a.8.8,0,1,0,0-1.592h-2.055a3.861,3.861,0,0,0-3.832,4.337l2.01,16.207a3.867,3.867,0,0,0,3.832,3.386h3.512v2.475a9.558,9.558,0,1,0,19.116,0v-6.07A3.609,3.609,0,0,0,558.045,1729.122Z" transform="translate(-203.769 -171.977)" fill="#4c4bf0"/>
    <path id="Trazado_194045" data-name="Trazado 194045" d="M230.217,1569.1l-30.937,17.862L168.342,1569.1v-35.724l13.4-7.739,17.535-10.123,30.937,17.862Zm1.094-.531v-35.825l-31.484-18.177v-36.355l-31.484-18.177v-36.355l-32.031-18.493-32.031,18.493v36.355L72.8,1478.212v36.355l-31.484,18.177v35.98l.094,1.06,31.937,18.439,31.484-18.177,31.484,18.177,31.484-18.177,31.484,18.177,32.031-18.493v-1.162ZM105.373,1424.31l30.937-17.862,30.937,17.862v35.724l-9.491,5.479L136.31,1477.9l-23.178-13.382-7.76-4.48ZM104.28,1569.1l-30.938,17.862L42.4,1569.1v-35.724l30.937-17.862,17.535,10.123,13.4,7.739Zm-14.922-45.6-15.469-8.931v-35.724l30.937-17.862,17.613,10.169,13.325,7.693v35.724l-13.325,7.693-17.613,10.168Zm77.89,45.6-30.937,17.862L105.373,1569.1v-35.724l7.76-4.48,23.178-13.381,21.447,12.382,9.491,5.479Zm-14.922-45.6-15.468-8.931v-35.724l15.468-8.931,15.469-8.931,30.937,17.862v35.724l-15.468,8.931-15.469,8.93Z" transform="translate(138.689 2.445)" fill="#4c4bf0"/>
  </g>
</svg>
