<svg xmlns="http://www.w3.org/2000/svg" xmlns:xlink="http://www.w3.org/1999/xlink" width="177.588" height="177.588" viewBox="0 0 177.588 177.588">
  <defs>
    <clipPath id="clip-path">
      <rect id="Rectángulo_5482" data-name="Rectángulo 5482" width="177.588" height="177.588" fill="none"/>
    </clipPath>
  </defs>
  <g id="Grupo_564521" data-name="Grupo 564521" transform="translate(-285 -2205)">
    <g id="Grupo_564377" data-name="Grupo 564377" transform="translate(285 2205)">
      <g id="Grupo_54439" data-name="Grupo 54439" clip-path="url(#clip-path)">
        <path id="Trazado_147158" data-name="Trazado 147158" d="M177.588,88.794A88.794,88.794,0,1,1,88.794,0a88.793,88.793,0,0,1,88.794,88.794" fill="#191973"/>
        <path id="Trazado_147159" data-name="Trazado 147159" d="M163.281,88.793A74.488,74.488,0,1,1,88.793,14.305a74.487,74.487,0,0,1,74.488,74.488Z" fill="#fff"/>
      </g>
    </g>
    <g id="Grupo_564402" data-name="Grupo 564402" transform="translate(0 30)">
      <g id="Grupo_564391" data-name="Grupo 564391" transform="translate(182.061 1946.754)">
        <g id="Grupo_564385" data-name="Grupo 564385" transform="translate(138.156 253.246)">
          <rect id="Rectángulo_41292" data-name="Rectángulo 41292" width="112.39" height="53.636" transform="translate(0 39.887)" fill="#b4c6ca"/>
          <rect id="Rectángulo_41293" data-name="Rectángulo 41293" width="55.866" height="93.523" transform="translate(28.262)" fill="#dfe8ea"/>
          <rect id="Rectángulo_41294" data-name="Rectángulo 41294" width="31.851" height="21.363" transform="translate(41.408 72.16)" fill="#b4c6ca"/>
        </g>
        <g id="Grupo_564386" data-name="Grupo 564386" transform="translate(171.812 257.706)">
          <rect id="Rectángulo_41295" data-name="Rectángulo 41295" width="15.159" height="15.159" fill="#82c5be"/>
          <rect id="Rectángulo_41296" data-name="Rectángulo 41296" width="15.159" height="15.159" transform="translate(0 24.693)" fill="#82c5be"/>
          <rect id="Rectángulo_41297" data-name="Rectángulo 41297" width="15.159" height="15.159" transform="translate(29.92)" fill="#82c5be"/>
          <rect id="Rectángulo_41298" data-name="Rectángulo 41298" width="15.159" height="15.159" transform="translate(29.92 24.693)" fill="#82c5be"/>
        </g>
        <g id="Grupo_564387" data-name="Grupo 564387" transform="translate(144.015 296.727)">
          <rect id="Rectángulo_41299" data-name="Rectángulo 41299" width="15.161" height="15.159" fill="#68ada4"/>
          <rect id="Rectángulo_41300" data-name="Rectángulo 41300" width="15.161" height="15.159" transform="translate(0 30.593)" fill="#68ada4"/>
          <rect id="Rectángulo_41301" data-name="Rectángulo 41301" width="15.161" height="15.159" transform="translate(85.512 0.006)" fill="#68ada4"/>
          <rect id="Rectángulo_41302" data-name="Rectángulo 41302" width="15.161" height="15.159" transform="translate(85.512 30.593)" fill="#68ada4"/>
        </g>
        <g id="Grupo_564388" data-name="Grupo 564388" transform="translate(186.157 301.62)">
          <rect id="Rectángulo_41303" data-name="Rectángulo 41303" width="6.242" height="16.394" transform="translate(5.074)" fill="#f96544"/>
          <rect id="Rectángulo_41304" data-name="Rectángulo 41304" width="16.389" height="6.244" transform="translate(0 5.075)" fill="#f96544"/>
        </g>
        <g id="Grupo_564390" data-name="Grupo 564390" transform="translate(169.384 323.492)">
          <rect id="Rectángulo_41305" data-name="Rectángulo 41305" width="49.934" height="3.828" fill="#82c5be"/>
          <g id="Grupo_564389" data-name="Grupo 564389" transform="translate(7.903 1.961)">
            <rect id="Rectángulo_41306" data-name="Rectángulo 41306" width="4.553" height="21.316" fill="#82c5be"/>
            <rect id="Rectángulo_41307" data-name="Rectángulo 41307" width="4.554" height="21.316" transform="translate(29.575)" fill="#82c5be"/>
          </g>
        </g>
      </g>
      <g id="Grupo_564401" data-name="Grupo 564401" transform="translate(94.46 2219.062)">
        <path id="Trazado_198508" data-name="Trazado 198508" d="M279.334,76.617a20.262,20.262,0,0,0-20.262,20.261v12.586h40.522V96.878A20.26,20.26,0,0,0,279.334,76.617Z" fill="#68ada4"/>
        <path id="Trazado_198509" data-name="Trazado 198509" d="M279.336,108.855l-12.27-18.141,12.27-12.268L291.6,90.714Z" fill="#fff"/>
        <path id="Trazado_198510" data-name="Trazado 198510" d="M279.336,108.855,267.066,81.9l12.27-12.268L291.6,81.9Z" fill="#fff"/>
        <g id="Grupo_564393" data-name="Grupo 564393">
          <path id="Trazado_198511" data-name="Trazado 198511" d="M263.779,61.646a3.9,3.9,0,1,1-3.9-3.9A3.905,3.905,0,0,1,263.779,61.646Z" fill="#f3b071"/>
          <path id="Trazado_198512" data-name="Trazado 198512" d="M302.7,61.646a3.9,3.9,0,1,1-3.9-3.9A3.9,3.9,0,0,1,302.7,61.646Z" fill="#f3b071"/>
          <path id="Trazado_198513" data-name="Trazado 198513" d="M287.482,80.191a7.768,7.768,0,0,1-7.767,7.766h0a7.768,7.768,0,0,1-7.768-7.766V76.878a7.764,7.764,0,0,1,7.768-7.765h0a7.765,7.765,0,0,1,7.767,7.765Z" fill="#f3b071"/>
          <path id="Trazado_198514" data-name="Trazado 198514" d="M298.883,59.4a19.55,19.55,0,0,1-19.549,19.549h0A19.551,19.551,0,0,1,259.785,59.4V49.1A19.551,19.551,0,0,1,279.334,29.55h0A19.55,19.55,0,0,1,298.883,49.1Z" fill="#ffc384"/>
          <path id="Trazado_198515" data-name="Trazado 198515" d="M279.367,78.949A19.548,19.548,0,0,0,298.883,59.4V49.1a19.549,19.549,0,0,0-13.176-18.48,23.907,23.907,0,0,0-6.34-.856Z" fill="#f3b071"/>
          <path id="Trazado_198516" data-name="Trazado 198516" d="M276.4,70.839a2.966,2.966,0,1,0,5.932,0Z" fill="#fff"/>
          <g id="Grupo_564392" data-name="Grupo 564392">
            <path id="Trazado_198517" data-name="Trazado 198517" d="M257.389,51.244c1.2-12.246,10.582-21.78,21.974-21.78a20.5,20.5,0,0,1,11.977,3.914c.045.618.088,1.235.088,1.864,0,12.277-9,22.228-20.106,22.228A19.077,19.077,0,0,1,257.389,51.244Z" fill="#e44d24"/>
            <path id="Trazado_198518" data-name="Trazado 198518" d="M291.416,44.289a23.123,23.123,0,0,1-5.781-13.815c8.121,2.654,13.668,8.342,14.961,17.779A11.055,11.055,0,0,1,291.416,44.289Z" fill="#e44d24"/>
            <path id="Trazado_198519" data-name="Trazado 198519" d="M260.6,60.863l-3.207-2.9V51.244H260.6Z" fill="#e44d24"/>
            <path id="Trazado_198520" data-name="Trazado 198520" d="M300.6,57.964l-3.205,3.381V47.289l3.205.965Z" fill="#e44d24"/>
          </g>
        </g>
        <g id="Grupo_564394" data-name="Grupo 564394">
          <path id="Trazado_198521" data-name="Trazado 198521" d="M271.072,62.587a1.981,1.981,0,0,1-1.98,1.981h0a1.981,1.981,0,0,1-1.981-1.981h0a1.981,1.981,0,0,1,1.981-1.98h0a1.981,1.981,0,0,1,1.98,1.98Z" fill="#68ada4"/>
          <path id="Trazado_198522" data-name="Trazado 198522" d="M291.557,62.587a1.981,1.981,0,0,1-1.981,1.981h0a1.979,1.979,0,0,1-1.978-1.981h0a1.978,1.978,0,0,1,1.978-1.98h0a1.981,1.981,0,0,1,1.981,1.98Z" fill="#68ada4"/>
        </g>
        <g id="Grupo_564399" data-name="Grupo 564399">
          <g id="Grupo_564397" data-name="Grupo 564397">
            <g id="Grupo_564395" data-name="Grupo 564395">
              <path id="Trazado_198523" data-name="Trazado 198523" d="M273.244,67.671h-9.267a3.318,3.318,0,0,1-3.315-3.312V58.377a3.315,3.315,0,0,1,3.315-3.315h9.267a3.318,3.318,0,0,1,3.318,3.315v5.982A3.321,3.321,0,0,1,273.244,67.671Zm-9.267-10.982a1.689,1.689,0,0,0-1.686,1.688v5.982a1.688,1.688,0,0,0,1.686,1.683h9.267a1.684,1.684,0,0,0,1.684-1.683V58.377a1.686,1.686,0,0,0-1.684-1.688Z" fill="#68ada4"/>
            </g>
            <g id="Grupo_564396" data-name="Grupo 564396">
              <path id="Trazado_198524" data-name="Trazado 198524" d="M294.687,67.671h-9.265a3.321,3.321,0,0,1-3.319-3.312V58.377a3.318,3.318,0,0,1,3.319-3.315h9.265a3.317,3.317,0,0,1,3.319,3.315v5.982A3.32,3.32,0,0,1,294.687,67.671Zm-9.265-10.982a1.69,1.69,0,0,0-1.69,1.688v5.982a1.688,1.688,0,0,0,1.69,1.683h9.265a1.686,1.686,0,0,0,1.684-1.683V58.377a1.687,1.687,0,0,0-1.684-1.688Z" fill="#68ada4"/>
            </g>
          </g>
          <g id="Grupo_564398" data-name="Grupo 564398">
            <rect id="Rectángulo_41308" data-name="Rectángulo 41308" width="7.17" height="1.629" transform="translate(275.746 58.976)" fill="#68ada4"/>
          </g>
        </g>
        <path id="Trazado_198525" data-name="Trazado 198525" d="M282.771,102.753l-1.223-10.8h-4.424L275.9,102.834l3.41,5.043Z" fill="#f96544"/>
        <path id="Trazado_198526" data-name="Trazado 198526" d="M281.545,91.949h-4.422l-1-4.424h6.422Z" fill="#e44d24"/>
        <path id="Trazado_198527" data-name="Trazado 198527" d="M301.8,52.08a238.726,238.726,0,0,0-44.938,0c0-7.288,2.057-15.7,2.057-22.987a197.248,197.248,0,0,1,40.824,0C299.746,36.382,301.8,44.792,301.8,52.08Z" fill="#82c5be"/>
        <g id="Grupo_564400" data-name="Grupo 564400">
          <rect id="Rectángulo_41309" data-name="Rectángulo 41309" width="3.934" height="10.328" transform="translate(277.748 35.996)" fill="#fff"/>
          <rect id="Rectángulo_41310" data-name="Rectángulo 41310" width="10.328" height="3.934" transform="translate(274.551 39.193)" fill="#fff"/>
        </g>
      </g>
    </g>
  </g>
</svg>
