<svg xmlns="http://www.w3.org/2000/svg" xmlns:xlink="http://www.w3.org/1999/xlink" width="89" height="90" viewBox="0 0 89 90">
  <defs>
    <clipPath id="clip-path">
      <rect id="Rectángulo_40957" data-name="Rectángulo 40957" width="89" height="90" transform="translate(-0.239 0.355)" fill="#fff" stroke="#707070" stroke-width="1"/>
    </clipPath>
  </defs>
  <g id="Grupo_564525" data-name="Grupo 564525" transform="translate(-826 -6636)">
    <g id="Enmascarar_grupo_153" data-name="Enmascarar grupo 153" transform="translate(826.239 6635.645)" clip-path="url(#clip-path)">
      <g id="Grupo_561158" data-name="Grupo 561158" transform="translate(-13.38 -10.094)">
        <ellipse id="Elipse_5434" data-name="Elipse 5434" cx="43.635" cy="43.635" rx="43.635" ry="43.635" transform="translate(80.333 114.432) rotate(-157)" fill="#d3cdfb"/>
        <path id="Trazado_195486" data-name="Trazado 195486" d="M11.439,0A43.632,43.632,0,0,0,73.083,61.644Z" transform="translate(46.235 108.715) rotate(-112)" fill="#4c4bf0"/>
        <circle id="Elipse_5435" data-name="Elipse 5435" cx="35.485" cy="35.485" r="35.485" transform="translate(7.652 55.368) rotate(-45)" fill="#fff"/>
      </g>
    </g>
    <g id="Grupo_564432" data-name="Grupo 564432" transform="translate(487.695 6304.879)">
      <g id="Grupo_564426" data-name="Grupo 564426" transform="translate(385.207 351.151)">
        <path id="Trazado_198594" data-name="Trazado 198594" d="M404.087,352.718l-.415,3.217a2.025,2.025,0,0,1-1.752-.691l1.891-2.634Z" transform="translate(-396.429 -351.676)" fill="#ffd2a1"/>
        <path id="Trazado_198595" data-name="Trazado 198595" d="M402.273,356.92l-5.451,13.828-.586-.232,5.452-13.827C401.908,356.128,402.494,356.359,402.273,356.92Z" transform="translate(-395.063 -352.579)" fill="#005b6b"/>
        <path id="Trazado_198596" data-name="Trazado 198596" d="M401.5,356.619l-5.452,13.827-.586-.231,5.451-13.827C401.131,355.841,401.717,356.072,401.5,356.619Z" transform="translate(-394.878 -352.509)" fill="#005b6b"/>
        <path id="Trazado_198597" data-name="Trazado 198597" d="M400.73,356.321l-5.451,13.827-.586-.231,5.452-13.827C400.348,355.571,400.935,355.8,400.73,356.321Z" transform="translate(-394.692 -352.442)" fill="#005b6b"/>
        <rect id="Rectángulo_41323" data-name="Rectángulo 41323" width="1.003" height="0.279" transform="matrix(0.367, -0.93, 0.93, 0.367, 7.381, 0.933)" fill="#3c3c3b"/>
      </g>
      <rect id="Rectángulo_41324" data-name="Rectángulo 41324" width="25.244" height="32.97" transform="matrix(0.992, -0.125, 0.125, 0.992, 360.092, 355.47)" fill="#c6c6c6"/>
      <g id="Grupo_564428" data-name="Grupo 564428" transform="translate(355.232 350.424)">
        <path id="Trazado_198598" data-name="Trazado 198598" d="M386.786,383.981a.33.33,0,0,0,.257-.387l-9.11-32.956a.331.331,0,0,0-.419-.2L355.5,356.525a.33.33,0,0,0-.257.386l9.11,32.957a.331.331,0,0,0,.419.2Z" transform="translate(-355.232 -350.424)" fill="#ededed"/>
        <g id="Grupo_564427" data-name="Grupo 564427" transform="translate(12.47 4.362)">
          <path id="Trazado_198599" data-name="Trazado 198599" d="M373.988,365.293l2.375-4.19-1.283-4.642a4.886,4.886,0,0,0-1.092,8.832Z" transform="translate(-371.649 -356.237)" fill="#ffb100"/>
          <path id="Trazado_198600" data-name="Trazado 198600" d="M376.575,356.3l1.258,4.551,4.551-1.258a4.885,4.885,0,0,0-5.809-3.293Z" transform="translate(-372.833 -356.166)" fill="#575756"/>
          <path id="Trazado_198601" data-name="Trazado 198601" d="M378.634,362.29l2.751,1.559,1.158.657a4.85,4.85,0,0,0,.422-3.414Z" transform="translate(-373.328 -357.35)" fill="#e63f12"/>
          <path id="Trazado_198602" data-name="Trazado 198602" d="M377.426,362.89,375.1,367a4.885,4.885,0,0,0,6.436-1.779Z" transform="translate(-372.478 -357.782)" fill="#005b6b"/>
        </g>
        <rect id="Rectángulo_41325" data-name="Rectángulo 41325" width="3.046" height="10.278" transform="translate(21.356 14.905) rotate(-15.453)" fill="#005b6b"/>
        <rect id="Rectángulo_41326" data-name="Rectángulo 41326" width="3.046" height="8.438" transform="matrix(0.964, -0.266, 0.266, 0.964, 18.051, 17.728)" fill="#005b6b"/>
        <rect id="Rectángulo_41327" data-name="Rectángulo 41327" width="3.046" height="5.07" transform="translate(15.153 22.023) rotate(-15.453)" fill="#005b6b"/>
        <rect id="Rectángulo_41328" data-name="Rectángulo 41328" width="3.046" height="6.928" transform="translate(10.863 21.282) rotate(-15.453)" fill="#005b6b"/>
        <rect id="Rectángulo_41329" data-name="Rectángulo 41329" width="3.046" height="8.953" transform="translate(6.528 20.379) rotate(-15.453)" fill="#005b6b"/>
        <path id="Trazado_198603" data-name="Trazado 198603" d="M362.384,364l1.325-5.106,3.76,3.7-1.174.324,1.65,5.967-2.786.77-1.65-5.967Z" transform="translate(-356.951 -352.459)" fill="#e63f12"/>
        <rect id="Rectángulo_41330" data-name="Rectángulo 41330" width="18.796" height="0.722" transform="translate(9.426 30.863) rotate(-15.453)" fill="#575756"/>
        <rect id="Rectángulo_41331" data-name="Rectángulo 41331" width="18.796" height="0.722" transform="translate(9.864 32.448) rotate(-15.453)" fill="#575756"/>
        <rect id="Rectángulo_41332" data-name="Rectángulo 41332" width="18.796" height="0.722" transform="translate(10.303 34.033) rotate(-15.453)" fill="#575756"/>
        <rect id="Rectángulo_41333" data-name="Rectángulo 41333" width="18.796" height="0.722" transform="translate(10.741 35.618) rotate(-15.453)" fill="#575756"/>
      </g>
      <g id="Grupo_564431" data-name="Grupo 564431" transform="translate(369.528 373.253)">
        <path id="Trazado_198604" data-name="Trazado 198604" d="M376.252,411.191a2.2,2.2,0,0,1-2.2-2.21V386.773a2.222,2.222,0,0,1,1.956-2.209c.09-.008.172-.008.245-.008H409.8c.073,0,.155,0,.245.008A2.222,2.222,0,0,1,412,386.773v22.208a2.2,2.2,0,0,1-2.2,2.21Z" transform="translate(-374.051 -381.457)" fill="#3c3c3b"/>
        <path id="Trazado_198605" data-name="Trazado 198605" d="M384.848,398.565a7.045,7.045,0,0,1-5.04-2.119c-2.611-2.669-5.757-5.916-5.757-5.916v-3.756a2.222,2.222,0,0,1,1.956-2.209c.09-.008.172-.008.245-.008H409.8c.073,0,.155,0,.245.008A2.222,2.222,0,0,1,412,386.773v3.756s-3.146,3.247-5.756,5.916a7.048,7.048,0,0,1-5.041,2.119Z" transform="translate(-374.051 -381.457)" fill="#575756"/>
        <g id="Grupo_564430" data-name="Grupo 564430" transform="translate(15.667 13.789)">
          <path id="Trazado_198606" data-name="Trazado 198606" d="M397.666,405.783a1.009,1.009,0,0,1-1.009-1.008V398.63h3.6v6.145a1.008,1.008,0,0,1-1.009,1.008Z" transform="translate(-395.151 -398.63)" fill="#b3b3b3"/>
          <rect id="Rectángulo_41334" data-name="Rectángulo 41334" width="4.141" height="0.919" transform="translate(1.237 3.523)" fill="#999"/>
          <rect id="Rectángulo_41335" data-name="Rectángulo 41335" width="6.615" height="2.63" rx="0.92" fill="#999"/>
          <path id="Trazado_198607" data-name="Trazado 198607" d="M397.776,406.758a.57.57,0,0,1-.57-.57v-1.711h2.77v1.711a.569.569,0,0,1-.57.57Z" transform="translate(-395.283 -400.035)" fill="#fff"/>
          <g id="Grupo_564429" data-name="Grupo 564429" transform="translate(0.659 0.914)">
            <path id="Trazado_198608" data-name="Trazado 198608" d="M396.429,400.277a.444.444,0,1,1-.444-.444A.443.443,0,0,1,396.429,400.277Z" transform="translate(-395.542 -399.833)" fill="#4d4d4d"/>
            <path id="Trazado_198609" data-name="Trazado 198609" d="M401.348,400.277a.444.444,0,1,0,.444-.444A.443.443,0,0,0,401.348,400.277Z" transform="translate(-396.938 -399.833)" fill="#4d4d4d"/>
          </g>
          <path id="Trazado_198610" data-name="Trazado 198610" d="M397.857,405.188a.182.182,0,0,1-.182-.182h0a.182.182,0,0,1,.182-.182h1.694a.182.182,0,0,1,.182.182h0a.182.182,0,0,1-.182.182Z" transform="translate(-395.396 -400.119)" fill="#999"/>
          <path id="Trazado_198611" data-name="Trazado 198611" d="M397.857,406.1a.182.182,0,0,1-.182-.182h0a.181.181,0,0,1,.182-.181h1.694a.181.181,0,0,1,.182.181h0a.182.182,0,0,1-.182.182Z" transform="translate(-395.396 -400.339)" fill="#999"/>
          <path id="Trazado_198612" data-name="Trazado 198612" d="M397.857,407.017a.181.181,0,0,1-.182-.181h0a.182.182,0,0,1,.182-.182h1.694a.182.182,0,0,1,.182.182h0a.181.181,0,0,1-.182.181Z" transform="translate(-395.396 -400.559)" fill="#999"/>
        </g>
        <path id="Trazado_198613" data-name="Trazado 198613" d="M397.423,381.848a7.4,7.4,0,0,0-3.915,1.12.8.8,0,0,1-1.043-.108h0a.746.746,0,0,1,.317-1.056,8.777,8.777,0,0,1,9.281,0,.746.746,0,0,1,.318,1.056h0a.8.8,0,0,1-1.043.108A7.4,7.4,0,0,0,397.423,381.848Z" transform="translate(-378.449 -380.477)" fill="#3c3c3b"/>
      </g>
    </g>
  </g>
</svg>
