<svg xmlns="http://www.w3.org/2000/svg" width="144" height="90.123" viewBox="0 0 144 90.123">
  <g id="Grupo_564488" data-name="Grupo 564488" transform="translate(-464 -4662.204)">
    <g id="Grupo_563828" data-name="Grupo 563828" transform="translate(225.176 4518.955)">
      <g id="Grupo_563821" data-name="Grupo 563821" transform="translate(324.071 143.749)">
        <rect id="Rectángulo_41206" data-name="Rectángulo 41206" width="7.581" height="15.035" transform="translate(25.585 40.588)" fill="#fc6"/>
        <g id="Grupo_563819" data-name="Grupo 563819" transform="translate(25.585 41.178)" opacity="0.65" style="mix-blend-mode: multiply;isolation: isolate">
          <path id="Trazado_197834" data-name="Trazado 197834" d="M304.166,167.82v3.54a12.538,12.538,0,0,0,7.582,0v-3.54Z" transform="translate(-304.166 -167.82)" fill="#cec5ae"/>
        </g>
        <path id="Trazado_197835" data-name="Trazado 197835" d="M328.828,165.283c0,10.884-7.119,19.708-15.9,19.708s-15.9-8.824-15.9-19.708,7.121-19.708,15.9-19.708S328.828,154.4,328.828,165.283Z" transform="translate(-283.551 -142.129)" fill="#fc6"/>
        <path id="Trazado_197836" data-name="Trazado 197836" d="M320.55,159.807a3.4,3.4,0,1,1-3.386-3.706A3.556,3.556,0,0,1,320.55,159.807Z" transform="translate(-271.888 -134.801)" fill="#fc6"/>
        <path id="Trazado_197837" data-name="Trazado 197837" d="M301.8,159.807a3.4,3.4,0,1,1-3.386-3.706A3.556,3.556,0,0,1,301.8,159.807Z" transform="translate(-284.941 -134.801)" fill="#fc6"/>
        <path id="Trazado_197838" data-name="Trazado 197838" d="M307.083,146.669s-14.991-.972-9.938,23.435h3.44S300.814,150.676,307.083,146.669Z" transform="translate(-284.193 -141.371)" fill="#343643"/>
        <path id="Trazado_197839" data-name="Trazado 197839" d="M310.92,149.944c6.157,6.156,5.116,17.876,5.116,17.876h3.44c3.065-12.64-1.878-17.876-1.878-17.876Z" transform="translate(-273.878 -139.087)" fill="#343643"/>
        <path id="Trazado_197840" data-name="Trazado 197840" d="M324.758,146.465c-12.774-8.534-23.781,4.342-23.781,4.342s14.4,10.535,27.721,2.953C328.7,153.761,327.862,148.538,324.758,146.465Z" transform="translate(-280.801 -143.544)" fill="#343643"/>
        <path id="Trazado_197841" data-name="Trazado 197841" d="M331.7,199.711V171.2H319.639l-6.023,5.814L308.9,171.2H295.824v28.515Z" transform="translate(-284.388 -124.292)" fill="#eeeeef"/>
        <path id="Trazado_197842" data-name="Trazado 197842" d="M313.8,170.758l-4.239,6.719-3.85-6.951-4.053,1.843,1.246,5.706,1.078,4.945,5.579-4.36v.033l5.372,4.626,1.408-5.245,1.42-5.284Z" transform="translate(-280.329 -124.758)" fill="#c6c6c9"/>
        <path id="Trazado_197843" data-name="Trazado 197843" d="M345.289,180.06a10.105,10.105,0,0,0-8.835-8.781l-.056-.007-10.611-.076-7.477,25.962L311.972,171.2H300.518v.076l-.054.007a10.105,10.105,0,0,0-8.835,8.781l-2.546,19.65h10.689l.746-5.072v5.072H336.4v-5.072l.748,5.072h10.689Z" transform="translate(-289.082 -124.292)" fill="#0093a9"/>
        <path id="Trazado_197844" data-name="Trazado 197844" d="M323.558,182l4.039-7.292-9-3.909-5.9,23.415-5.9-23.415-9,3.909L301.827,182l-4.464,2.443,15.329,13.9,15.33-13.9Z" transform="translate(-283.317 -124.568)" fill="#56c0d3"/>
        <g id="Grupo_563820" data-name="Grupo 563820" transform="translate(21.325 44.551)">
          <path id="Trazado_197845" data-name="Trazado 197845" d="M310.552,169.945l-4.239,7.936,5.372,4.626,2.828-10.529Z" transform="translate(-298.411 -169.713)" fill="#eeeeef"/>
          <path id="Trazado_197846" data-name="Trazado 197846" d="M305.707,169.809l3.856,8.129-5.587,4.365-2.322-10.653Z" transform="translate(-301.654 -169.809)" fill="#eeeeef"/>
        </g>
      </g>
      <g id="Grupo_563824" data-name="Grupo 563824" transform="translate(238.824 143.249)">
        <path id="Trazado_197847" data-name="Trazado 197847" d="M286.216,166.9c0,13.062,1.315,49.122-21.321,49.122-21.552,0-21.323-36.059-21.323-49.122s9.546-23.653,21.323-23.653S286.216,153.838,286.216,166.9Z" transform="translate(-235.519 -143.249)" fill="#343643"/>
        <rect id="Rectángulo_41207" data-name="Rectángulo 41207" width="7.58" height="15.035" transform="translate(25.586 41.087)" fill="#fc6"/>
        <g id="Grupo_563822" data-name="Grupo 563822" transform="translate(25.585 41.677)" opacity="0.65" style="mix-blend-mode: multiply;isolation: isolate">
          <path id="Trazado_197848" data-name="Trazado 197848" d="M253.908,167.82v3.54a12.532,12.532,0,0,0,7.58,0v-3.54Z" transform="translate(-253.908 -167.82)" fill="#cec5ae"/>
        </g>
        <path id="Trazado_197849" data-name="Trazado 197849" d="M278.571,165.283c0,10.884-7.121,19.708-15.9,19.708s-15.9-8.824-15.9-19.708,7.119-19.708,15.9-19.708S278.571,154.4,278.571,165.283Z" transform="translate(-233.293 -141.63)" fill="#fc6"/>
        <path id="Trazado_197850" data-name="Trazado 197850" d="M270.294,159.807a3.4,3.4,0,1,1-3.386-3.706A3.557,3.557,0,0,1,270.294,159.807Z" transform="translate(-221.63 -134.301)" fill="#fc6"/>
        <path id="Trazado_197851" data-name="Trazado 197851" d="M251.546,159.807a3.4,3.4,0,1,1-3.386-3.706A3.557,3.557,0,0,1,251.546,159.807Z" transform="translate(-234.684 -134.301)" fill="#fc6"/>
        <path id="Trazado_197852" data-name="Trazado 197852" d="M281.447,199.711V171.979l-12.066-.783-6.024,5.814-4.714-5.814-13.076.783v27.732Z" transform="translate(-234.13 -123.792)" fill="#eeeeef"/>
        <path id="Trazado_197853" data-name="Trazado 197853" d="M295.031,180.06a10.105,10.105,0,0,0-8.835-8.781l-.054-.007-10.613-.076-7.477,25.962L261.714,171.2H250.26v.076l-.054.007a10.109,10.109,0,0,0-8.837,8.781l-2.544,19.65h10.689l.746-5.072v5.072h35.881v-5.072l.745,5.072h10.691Z" transform="translate(-238.824 -123.792)" fill="#848e94"/>
        <path id="Trazado_197854" data-name="Trazado 197854" d="M263.538,170.758l-4.24,6.719-3.848-6.951-4.053,1.843,1.244,5.706,1.078,4.945,5.579-4.36v.033l5.374,4.626,1.408-5.245,1.418-5.284Z" transform="translate(-230.071 -124.259)" fill="#c6c6c9"/>
        <path id="Trazado_197855" data-name="Trazado 197855" d="M273.3,182l4.04-7.292-9-3.909-5.9,23.415-5.9-23.415-9,3.909L251.569,182l-4.464,2.443,15.329,13.9,15.329-13.9Z" transform="translate(-233.058 -124.069)" fill="#b6bcc0"/>
        <g id="Grupo_563823" data-name="Grupo 563823" transform="translate(21.325 45.05)">
          <path id="Trazado_197856" data-name="Trazado 197856" d="M260.3,169.945l-4.24,7.936,5.373,4.626,2.826-10.529Z" transform="translate(-248.153 -169.713)" fill="#eeeeef"/>
          <path id="Trazado_197857" data-name="Trazado 197857" d="M255.448,169.809l3.858,8.129-5.587,4.365L251.4,171.65Z" transform="translate(-251.396 -169.809)" fill="#eeeeef"/>
        </g>
        <path id="Trazado_197858" data-name="Trazado 197858" d="M267.819,162.329a1.279,1.279,0,1,1-1.279-1.281A1.279,1.279,0,0,1,267.819,162.329Z" transform="translate(-220.419 -130.857)" fill="#eeeeef"/>
        <path id="Trazado_197859" data-name="Trazado 197859" d="M248.126,162.329a1.28,1.28,0,1,1-1.281-1.281A1.28,1.28,0,0,1,248.126,162.329Z" transform="translate(-234.13 -130.857)" fill="#eeeeef"/>
        <path id="Trazado_197860" data-name="Trazado 197860" d="M263.879,144.651s3.923,19.482-18.5,19.482C245.38,164.133,246.971,145.251,263.879,144.651Z" transform="translate(-234.26 -142.273)" fill="#343643"/>
        <path id="Trazado_197861" data-name="Trazado 197861" d="M256.417,144.651s-3.923,19.482,18.5,19.482C274.916,164.133,273.323,145.251,256.417,144.651Z" transform="translate(-226.759 -142.273)" fill="#343643"/>
      </g>
      <g id="Grupo_563827" data-name="Grupo 563827" transform="translate(280.332 147.106)">
        <rect id="Rectángulo_41208" data-name="Rectángulo 41208" width="8.529" height="16.915" transform="translate(28.787 47.076)" fill="#fc6"/>
        <g id="Grupo_563825" data-name="Grupo 563825" transform="translate(28.788 47.738)" opacity="0.65" style="mix-blend-mode: multiply;isolation: isolate">
          <path id="Trazado_197862" data-name="Trazado 197862" d="M280.267,173.667v3.984a14.109,14.109,0,0,0,8.528,0v-3.984Z" transform="translate(-280.267 -173.667)" fill="#cec5ae"/>
        </g>
        <ellipse id="Elipse_5591" data-name="Elipse 5591" cx="17.891" cy="22.175" rx="17.891" ry="22.175" transform="translate(15.16 5.285)" fill="#fc6"/>
        <ellipse id="Elipse_5592" data-name="Elipse 5592" cx="3.81" cy="4.169" rx="3.81" ry="4.169" transform="translate(47.132 25.375)" fill="#fc6"/>
        <ellipse id="Elipse_5593" data-name="Elipse 5593" cx="3.81" cy="4.169" rx="3.81" ry="4.169" transform="translate(11.35 25.375)" fill="#fc6"/>
        <path id="Trazado_197863" data-name="Trazado 197863" d="M283.548,150.237s-16.867-7.37-11.181,20.09h3.871S276.493,154.746,283.548,150.237Z" transform="translate(-257.795 -142.867)" fill="#343643"/>
        <path id="Trazado_197864" data-name="Trazado 197864" d="M289.687,153.555c2.529,6.14,2.668,13.836,2.668,13.836h3.867c1.857-6.008.29-10.489.417-13.836Z" transform="translate(-244.921 -139.931)" fill="#343643"/>
        <path id="Trazado_197865" data-name="Trazado 197865" d="M276.677,154.6s16.784-18.986,27.421-2.035a5.952,5.952,0,0,0,9.575.952c.066-.078.132-.159.2-.243,0,0-1.428,15.376-18.4,9.548a26.393,26.393,0,0,1-6.785-3.63C286.048,157.293,281.319,154.472,276.677,154.6Z" transform="translate(-253.979 -145.523)" fill="#343643"/>
        <path id="Trazado_197866" data-name="Trazado 197866" d="M311.25,209.549V178.488l-13.575-1.021-6.778,6.541-5.306-6.541-14.711,1.021v31.061Z" transform="translate(-258.014 -123.283)" fill="#eeeeef"/>
        <path id="Trazado_197867" data-name="Trazado 197867" d="M291.1,176.972l-4.771,7.561L282,176.712l-4.559,2.073,1.4,6.42,1.214,5.564,6.276-4.9v.037l6.046,5.2,1.584-5.9,1.6-5.946Z" transform="translate(-253.447 -123.809)" fill="#c6c6c9"/>
        <path id="Trazado_197868" data-name="Trazado 197868" d="M326.534,187.439a11.373,11.373,0,0,0-9.941-9.88l-.061-.007-11.941-.085-8.411,29.207-7.131-29.207H276.162v.085l-.061.007a11.373,11.373,0,0,0-9.943,9.88l-2.863,22.11h12.026l.841-5.708v5.708h40.369v-5.708l.84,5.708H329.4Z" transform="translate(-263.295 -123.283)" fill="#343643"/>
        <path id="Trazado_197869" data-name="Trazado 197869" d="M302.084,189.623l4.544-8.205-10.127-4.4-6.641,26.344-6.641-26.344-10.128,4.4,4.544,8.205-5.022,2.748,17.247,15.636,17.247-15.636Z" transform="translate(-256.808 -123.595)" fill="#62646e"/>
        <g id="Grupo_563826" data-name="Grupo 563826" transform="translate(23.993 51.535)">
          <path id="Trazado_197870" data-name="Trazado 197870" d="M287.452,176.059l-4.77,8.93,6.046,5.2,3.179-11.847Z" transform="translate(-273.792 -175.799)" fill="#eeeeef"/>
          <path id="Trazado_197871" data-name="Trazado 197871" d="M282,175.905l4.34,9.146-6.285,4.911-2.614-11.985Z" transform="translate(-277.44 -175.905)" fill="#eeeeef"/>
        </g>
      </g>
    </g>
  </g>
</svg>
