<svg xmlns="http://www.w3.org/2000/svg" xmlns:xlink="http://www.w3.org/1999/xlink" width="89" height="90" viewBox="0 0 89 90">
  <defs>
    <clipPath id="clip-path">
      <rect id="Rectángulo_40955" data-name="Rectángulo 40955" width="89" height="90" transform="translate(-0.239 -0.454)" fill="#fff" stroke="#707070" stroke-width="1"/>
    </clipPath>
  </defs>
  <g id="Grupo_564523" data-name="Grupo 564523" transform="translate(-826 -6491)">
    <g id="Enmascarar_grupo_151" data-name="Enmascarar grupo 151" transform="translate(826.239 6491.454)" clip-path="url(#clip-path)">
      <g id="Grupo_561156" data-name="Grupo 561156" transform="translate(-15.131 -8.443)">
        <ellipse id="Elipse_5430" data-name="Elipse 5430" cx="43.635" cy="43.635" rx="43.635" ry="43.635" transform="matrix(0.966, 0.259, -0.259, 0.966, 28.731, 0)" fill="#d3cdfb"/>
        <path id="Trazado_195484" data-name="Trazado 195484" d="M11.439,0A43.632,43.632,0,0,0,73.083,61.644Z" transform="translate(63.292 0.916) rotate(60)" fill="#4c4bf0"/>
        <circle id="Elipse_5431" data-name="Elipse 5431" cx="35.485" cy="35.485" r="35.485" transform="translate(9.403 53.442) rotate(-45)" fill="#fff"/>
      </g>
    </g>
    <g id="Grupo_564425" data-name="Grupo 564425" transform="translate(600.024 6264.241)">
      <g id="Grupo_564417" data-name="Grupo 564417" transform="translate(251.532 239.261)">
        <path id="Trazado_198559" data-name="Trazado 198559" d="M293.794,286.95c-.487,5.072.444,12.3-.043,16.788v.017H267.22v-.017c-.008-.034-.008-.093-.017-.179a32.514,32.514,0,0,1-.128-3.518c.008-1.887.111-3.946.179-6a55.551,55.551,0,0,0-.1-7.318,16.824,16.824,0,0,0-.3-1.9c-.6-2.7-.837-6.139-1.623-12.356.009,0,.017-.008.026-.008,3.338-1.392,7.71-3.287,8.437-3.979,1.408.546,5.337.7,6.789.862h.008c.222-.025.5-.052.829-.077a30.981,30.981,0,0,0,5.96-.785c.726.692,5.124,2.6,8.463,3.987-.786,6.217-1.025,9.658-1.623,12.356A18.2,18.2,0,0,0,293.794,286.95Z" transform="translate(-256.759 -246.652)" fill="#ededed"/>
        <path id="Trazado_198560" data-name="Trazado 198560" d="M284.141,277.894l-.673-3.2,1.629-.044,1.629.044-.673,3.2Z" transform="translate(-261.371 -248.21)" fill="#e94e1b"/>
        <path id="Trazado_198561" data-name="Trazado 198561" d="M283.833,278.991l-1.583,16.635,2.539,2.247,2.539-2.247-1.583-16.635Z" transform="translate(-261.062 -249.307)" fill="#cf4518"/>
        <path id="Trazado_198562" data-name="Trazado 198562" d="M265.545,295.389l1.751,9.692v.017h-8.223v-.017l-.769-11.6a118.141,118.141,0,0,1,5.175-19.683l.026.009,7.207,1.9-3.578,13.62Z" transform="translate(-255.008 -247.995)" fill="#ededed"/>
        <path id="Trazado_198563" data-name="Trazado 198563" d="M278.451,303.737H257.957l-4.065-13.6a32.649,32.649,0,0,1,8.471-17.677l.026.009c3.338-1.392,7.71-3.287,8.437-3.979,1.408.546,7.63,21.232,7.63,21.232C278.723,293.617,278.451,303.737,278.451,303.737Z" transform="translate(-253.892 -246.652)" fill="#575756"/>
        <path id="Trazado_198564" data-name="Trazado 198564" d="M286.057,303.737h19.3l.769-11.6a118.207,118.207,0,0,0-5.175-19.683l-.026.009c-3.338-1.392-7.711-3.287-8.437-3.979-1.409.546-6.62,21.232-6.62,21.232C285.6,293.617,286.057,303.737,286.057,303.737Z" transform="translate(-261.956 -246.652)" fill="#575756"/>
        <g id="Grupo_564415" data-name="Grupo 564415" transform="translate(10.15 29.645)">
          <path id="Trazado_198565" data-name="Trazado 198565" d="M282.969,306.4H267.79c-.063-.556-.351-10.145-.309-11.262.141-4.034.7-16.2.9-16.2q.087,1.881.173,3.755c.168,3.567.356,7.223,1.747,10.506a12.744,12.744,0,0,0,.9,1.742,9.885,9.885,0,0,0,6.483,4.783q-3.713-.519-7.421-1.033A39.387,39.387,0,0,0,282.969,306.4Z" transform="translate(-267.476 -278.94)" fill="#1d1d1b" opacity="0.2"/>
          <path id="Trazado_198566" data-name="Trazado 198566" d="M301.908,306.923H293.7c2.68-.908,4.243-6.334,5.124-9.3a23.111,23.111,0,0,0,.755-3.719,60.923,60.923,0,0,0-.173-12.819,83.424,83.424,0,0,1,1.815,11.623C301.281,293.54,302.018,306.214,301.908,306.923Z" transform="translate(-274.108 -279.483)" fill="#1d1d1b" opacity="0.2"/>
        </g>
        <path id="Trazado_198567" data-name="Trazado 198567" d="M279.438,263.552l.028,1.411c-.007.007,0,.007,0,.007l.022,1.5v.008l.015.672.087,4.833,2.865-.058L284,271.9h.007l.123-.007,1.418-.029,2.944-.058.131-4.658.014-.593.043-1.5v-.007l.037-1.237Z" transform="translate(-260.352 -245.404)" fill="#f2c799"/>
        <g id="Grupo_564416" data-name="Grupo 564416" transform="translate(15.362)">
          <path id="Trazado_198568" data-name="Trazado 198568" d="M282.75,240.392c4.155-.017,7.469,2.717,7.161,7.643a12.874,12.874,0,0,1-.212,1.692c.925-.524,1.735.391,1.41,1.792-.229.988-.711,2.314-1.257,2.513-.656.239-.855-.17-.894-.182a11.084,11.084,0,0,1-.919,3.45,24.046,24.046,0,0,1-1.494,2.072c-.977,1.148-1.789,1.432-3.654,1.443h-.021c-1.866.012-2.681-.262-3.672-1.4a23.816,23.816,0,0,1-1.52-2.052,11.113,11.113,0,0,1-.963-3.438c-.037.013-.232.424-.891.194-.55-.192-1.047-1.512-1.29-2.5-.343-1.4.456-2.321,1.387-1.809a12.782,12.782,0,0,1-.234-1.689C275.316,243.2,278.594,240.428,282.75,240.392Z" transform="translate(-274.452 -239.547)" fill="#ffd2a1"/>
          <path id="Trazado_198569" data-name="Trazado 198569" d="M288.969,241.535c1.6,1.86,2.1,3.93,1.476,7.757-.625.352-.955.817-1.193,2.719-.454.128-.65.158-1.062.3,2.482-10.14-1.446-10.318-2.525-10.528a27.027,27.027,0,0,0-5.341.034c-1.076.223-5,.451-2.39,10.559-.415-.136-.611-.163-1.066-.285-.262-1.9-.6-2.359-1.228-2.7-.672-3.819.007-5.743,1.376-7.775C278.918,238.789,286.116,238.211,288.969,241.535Z" transform="translate(-274.687 -239.261)" fill="#3c3c3b"/>
          <path id="Trazado_198570" data-name="Trazado 198570" d="M281.077,240.413a3.077,3.077,0,0,0-1.458.457c-.64.35-2.277,2.722-1.935,3.28,1.385,2.263,5.676,2.909,8.7,2.995a2.807,2.807,0,0,1-1.015-1.25,8.053,8.053,0,0,0,5.243.421,10.155,10.155,0,0,0-2.271-4.1,6.775,6.775,0,0,0-3.438-1.6A20.253,20.253,0,0,0,281.077,240.413Z" transform="translate(-275.258 -239.551)" fill="#3c3c3b"/>
        </g>
        <path id="Trazado_198571" data-name="Trazado 198571" d="M278.717,275.478a14.372,14.372,0,0,1-2.788-7.166l2.665-1.483a9.007,9.007,0,0,0,4.6,5.856Z" transform="translate(-259.464 -246.232)" fill="#dadada"/>
        <path id="Trazado_198572" data-name="Trazado 198572" d="M290.12,275.478a14.366,14.366,0,0,0,2.789-7.166l-2.666-1.483a9.006,9.006,0,0,1-4.6,5.856Z" transform="translate(-261.922 -246.232)" fill="#dadada"/>
        <path id="Trazado_198573" data-name="Trazado 198573" d="M283.252,289.523c-.12-.163-.231-.325-.35-.487l-.3-.4c-3.911-5.371-9.222-12.476-9.222-12.476s2.989-1.554,2.775-1.785l-3.279.111.607-4.978,3-1.785c2.177,7.2,4.346,13.3,6.268,20.008.1.35.2.708.3,1.067C283.115,289.036,283.183,289.275,283.252,289.523Z" transform="translate(-258.692 -246.458)" fill="#3c3c3b"/>
        <path id="Trazado_198574" data-name="Trazado 198574" d="M294.749,276.159s-4.824,6.729-8.411,12.638c-.052.077-.1.162-.146.239l-.3-.4c.043-.307.094-.606.146-.9,1.229-7.3,3.441-12.843,5.61-20.008l3,1.785.607,4.978-3.279-.111C291.761,274.6,294.749,276.159,294.749,276.159Z" transform="translate(-261.984 -246.458)" fill="#3c3c3b"/>
        <circle id="Elipse_5595" data-name="Elipse 5595" cx="0.667" cy="0.667" r="0.667" transform="translate(23.523 46.004)" fill="#3c3c3b"/>
        <circle id="Elipse_5596" data-name="Elipse 5596" cx="0.667" cy="0.667" r="0.667" transform="translate(23.523 52.569)" fill="#3c3c3b"/>
        <rect id="Rectángulo_41317" data-name="Rectángulo 41317" width="5.408" height="1.312" transform="translate(29.386 41.096)" fill="#3c3c3b"/>
      </g>
      <g id="Grupo_564424" data-name="Grupo 564424" transform="translate(244.559 267.021)">
        <path id="Trazado_198575" data-name="Trazado 198575" d="M261.034,279.615a.918.918,0,0,0,.649-1.124v0a.783.783,0,0,0-.965-.553l-3.952,1.139a.866.866,0,0,0-.613,1.061l.007.026a.818.818,0,0,0,1,.578Z" transform="translate(-247.483 -276.793)" fill="#f0c997"/>
        <g id="Grupo_564423" data-name="Grupo 564423" transform="translate(0 2.072)">
          <rect id="Rectángulo_41318" data-name="Rectángulo 41318" width="20.02" height="27.302" fill="#f6f6f6"/>
          <g id="Grupo_564418" data-name="Grupo 564418" transform="translate(1.895 5.709)">
            <path id="Trazado_198576" data-name="Trazado 198576" d="M253.438,293.545a3.577,3.577,0,0,1-3.589,1.018,3.83,3.83,0,0,1-2.627-2.782,4.091,4.091,0,0,1,.962-3.8,3.577,3.577,0,0,1,3.589-1.018,3.831,3.831,0,0,1,2.627,2.781A4.093,4.093,0,0,1,253.438,293.545Z" transform="translate(-247.095 -286.83)" fill="#fb0"/>
            <path id="Trazado_198577" data-name="Trazado 198577" d="M253.438,293.545a3.577,3.577,0,0,1-3.589,1.018,3.83,3.83,0,0,1-2.627-2.782,4.091,4.091,0,0,1,.962-3.8,3.607,3.607,0,0,1,2.743-1.15l-.117,3.931Z" transform="translate(-247.095 -286.83)" fill="#005b6b"/>
            <path id="Trazado_198578" data-name="Trazado 198578" d="M253.453,294.876a3.577,3.577,0,0,1-3.589,1.018,3.83,3.83,0,0,1-2.627-2.782,3.92,3.92,0,0,1-.081-.4l3.67-.615Z" transform="translate(-247.111 -288.162)" fill="#cf4518"/>
          </g>
          <g id="Grupo_564419" data-name="Grupo 564419" transform="translate(11.937 2.848)">
            <rect id="Rectángulo_41319" data-name="Rectángulo 41319" width="1.34" height="4.025" transform="translate(0 2.911)" fill="#575756"/>
            <rect id="Rectángulo_41320" data-name="Rectángulo 41320" width="1.34" height="6.346" transform="translate(1.6 0.589)" fill="#005b6b"/>
            <rect id="Rectángulo_41321" data-name="Rectángulo 41321" width="1.34" height="6.935" transform="translate(3.2)" fill="#cf4518"/>
            <rect id="Rectángulo_41322" data-name="Rectángulo 41322" width="1.34" height="5.303" transform="translate(4.801 1.632)" fill="#fb0"/>
          </g>
          <path id="Trazado_198579" data-name="Trazado 198579" d="M259.262,307.637h-2.616a.2.2,0,0,1,0-.4h2.616a.2.2,0,0,1,0,.4Z" transform="translate(-247.568 -286.282)" fill="#706f6f"/>
          <path id="Trazado_198580" data-name="Trazado 198580" d="M260.389,308.868h-3.744a.2.2,0,0,1,0-.4h3.744a.2.2,0,0,1,0,.4Z" transform="translate(-247.568 -286.594)" fill="#706f6f"/>
          <path id="Trazado_198581" data-name="Trazado 198581" d="M258.151,281.436H247.368a.2.2,0,0,1,0-.4h10.783a.2.2,0,0,1,0,.4Z" transform="translate(-245.222 -279.657)" fill="#706f6f"/>
          <path id="Trazado_198582" data-name="Trazado 198582" d="M256.172,283.133h-8.8a.2.2,0,0,1,0-.4h8.8a.2.2,0,0,1,0,.4Z" transform="translate(-245.222 -280.086)" fill="#706f6f"/>
          <path id="Trazado_198583" data-name="Trazado 198583" d="M255.059,284.83h-7.691a.2.2,0,0,1,0-.4h7.691a.2.2,0,0,1,0,.4Z" transform="translate(-245.222 -280.515)" fill="#706f6f"/>
          <path id="Trazado_198584" data-name="Trazado 198584" d="M261.87,310.1h-5.224a.2.2,0,0,1,0-.4h5.224a.2.2,0,0,1,0,.4Z" transform="translate(-247.568 -286.905)" fill="#706f6f"/>
          <path id="Trazado_198585" data-name="Trazado 198585" d="M261.87,311.332h-5.224a.2.2,0,0,1,0-.4h5.224a.2.2,0,0,1,0,.4Z" transform="translate(-247.568 -287.216)" fill="#706f6f"/>
          <path id="Trazado_198586" data-name="Trazado 198586" d="M250.121,309.916l-.248-.039-.04-.328,1.508-3.151,2.2-.646,1.095-2.076,2.123-.238,2.8-2.022.268.415-2.9,2.093-2,.223-1.071,2.032-2.194.644Z" transform="translate(-245.892 -284.81)" fill="#df4937"/>
          <g id="Grupo_564422" data-name="Grupo 564422" transform="translate(3.61 15.512)">
            <path id="Trazado_198587" data-name="Trazado 198587" d="M261.147,310.009h-11.42v-8.42h.157v8.253h11.263Z" transform="translate(-249.476 -300.365)" fill="#575756"/>
            <g id="Grupo_564420" data-name="Grupo 564420">
              <path id="Trazado_198588" data-name="Trazado 198588" d="M249.391,301.253l.33-1.3.33,1.3Z" transform="translate(-249.391 -299.951)" fill="#575756"/>
            </g>
            <g id="Grupo_564421" data-name="Grupo 564421" transform="translate(11.625 9.227)">
              <path id="Trazado_198589" data-name="Trazado 198589" d="M264.951,312.968l1.174-.333-1.174-.333Z" transform="translate(-264.951 -312.301)" fill="#575756"/>
            </g>
          </g>
        </g>
        <path id="Trazado_198590" data-name="Trazado 198590" d="M258.739,279.486a.834.834,0,0,0,.829.841h0a.835.835,0,0,0,.841-.828l.013-1.807a.836.836,0,0,0-.829-.841h0a.834.834,0,0,0-.841.829Z" transform="translate(-248.145 -276.526)" fill="#fad8ac"/>
        <path id="Trazado_198591" data-name="Trazado 198591" d="M256.506,279.3a.873.873,0,0,0,.828.913h0a.873.873,0,0,0,.841-.9l.015-1.962a.873.873,0,0,0-.828-.913h0a.873.873,0,0,0-.841.9Z" transform="translate(-247.58 -276.42)" fill="#fad8ac"/>
        <path id="Trazado_198592" data-name="Trazado 198592" d="M254.272,279.279a.873.873,0,0,0,.828.913h0a.873.873,0,0,0,.841-.9l.015-1.963a.873.873,0,0,0-.828-.913h0a.874.874,0,0,0-.842.9Z" transform="translate(-247.015 -276.416)" fill="#fad8ac"/>
        <path id="Trazado_198593" data-name="Trazado 198593" d="M252.42,279.207a.724.724,0,0,0,.687.757h0a.724.724,0,0,0,.7-.747l.013-1.628a.725.725,0,0,0-.687-.758h0a.724.724,0,0,0-.7.747Z" transform="translate(-246.547 -276.521)" fill="#fad8ac"/>
      </g>
    </g>
  </g>
</svg>
