<svg xmlns="http://www.w3.org/2000/svg" xmlns:xlink="http://www.w3.org/1999/xlink" width="89" height="90" viewBox="0 0 89 90">
  <defs>
    <clipPath id="clip-path">
      <rect id="Rect치ngulo_40954" data-name="Rect치ngulo 40954" width="89" height="90" transform="translate(-0.045 -0.454)" fill="#fff" stroke="#707070" stroke-width="1"/>
    </clipPath>
  </defs>
  <g id="Grupo_564522" data-name="Grupo 564522" transform="translate(-286 -6491)">
    <g id="Enmascarar_grupo_150" data-name="Enmascarar grupo 150" transform="translate(286.045 6491.454)" clip-path="url(#clip-path)">
      <g id="Grupo_561155" data-name="Grupo 561155" transform="translate(-17.24 -16.711)">
        <circle id="Elipse_5428" data-name="Elipse 5428" cx="43.635" cy="43.635" r="43.635" transform="translate(0 61.71) rotate(-45)" fill="#d3cdfb"/>
        <path id="Trazado_195483" data-name="Trazado 195483" d="M194.439,1317.112a43.632,43.632,0,0,0,61.644,61.644Z" transform="translate(-164.926 -1284.874)" fill="#4c4bf0"/>
        <circle id="Elipse_5429" data-name="Elipse 5429" cx="35.485" cy="35.485" r="35.485" transform="translate(11.527 61.71) rotate(-45)" fill="#fff"/>
      </g>
    </g>
    <g id="Grupo_564411" data-name="Grupo 564411" transform="translate(164.42 6164.56)">
      <path id="Trazado_198528" data-name="Trazado 198528" d="M150.711,363.944c-1.544,1.852-8.807,9.074-12.771,8.369-.008,0-1.662-.961-1.67-.973-2.756-3.015-.665-5.4,2.675-6.958,1.175-.55,8.065-3.129,9.655-3.809l.554-.239C149.562,361.114,150.3,363.161,150.711,363.944Z" transform="translate(0 -2.974)" fill="#ededed"/>
      <path id="Trazado_198529" data-name="Trazado 198529" d="M153.471,376.705l-5.8,11.142c-7.024-5.442-12.683-10.8-12.672-15.807h7.857A14.508,14.508,0,0,0,153.471,376.705Z" transform="translate(0 -6.205)" fill="#ededed"/>
      <path id="Trazado_198530" data-name="Trazado 198530" d="M184.889,402.483l6.6-1.733a107.666,107.666,0,0,0-4.714-17.934l-6.6,1.734Z" transform="translate(-12.467 -9.178)" fill="#ededed"/>
      <path id="Trazado_198531" data-name="Trazado 198531" d="M200.072,398.746a39.824,39.824,0,0,1-2.806,3.313s0,0-.009,0a28.067,28.067,0,0,1-11.519,7.552l-2.064-3.475-1.137-1.921c.6-.5,1.2-.99,1.825-1.468.492-.373.99-.736,1.5-1.09a67.423,67.423,0,0,1,12.628-6.9Z" transform="translate(-13.119 -12.474)" fill="#ededed"/>
      <path id="Trazado_198532" data-name="Trazado 198532" d="M176.908,394.644a103.564,103.564,0,0,0,.077,10.847,35.171,35.171,0,0,1-.117,4.459H152.7a36.818,36.818,0,0,1-.1-4.825c.078-3.362.335-7.128.085-10.139a15.779,15.779,0,0,0-.319-2.28c-.413-1.829-.638-4.055-1.019-7.416a.07.07,0,0,1-.008-.039c-.132-1.121-.28-2.381-.459-3.8,3.05-1.268,7.058-3.011,7.712-3.641,1.292.505,4.863.638,6.194.786.662-.07,1.891-.148,3.113-.257a14.133,14.133,0,0,0,3.082-.529c.654.63,4.661,2.373,7.712,3.641-.716,5.658-.934,8.8-1.486,11.253A16.5,16.5,0,0,0,176.908,394.644Z" transform="translate(-4.383 -7.798)" fill="#ededed"/>
      <path id="Trazado_198533" data-name="Trazado 198533" d="M168.648,386.566l-.613-2.914,1.484-.04,1.484.04-.613,2.914Z" transform="translate(-9.117 -9.398)" fill="#3c3c3b"/>
      <g id="Grupo_564404" data-name="Grupo 564404" transform="translate(185.41 376.651)">
        <g id="Grupo_564403" data-name="Grupo 564403" transform="translate(1.266)">
          <path id="Trazado_198534" data-name="Trazado 198534" d="M216.739,391.42l.53-.363.705-.652.684-1.9a.683.683,0,0,1,.607-.451l.222-.618a.683.683,0,0,1,.874-.413l.013.005a.681.681,0,0,1,.227.136.742.742,0,0,1,.7,0l.014.007a.741.741,0,0,1,.3,1l-1.37,2.565c0,.008-.01.014-.014.022a.581.581,0,0,1-.044.066.677.677,0,0,1-.043.056c-.015.017-.032.033-.048.048a.738.738,0,0,1-.063.054c-.007.005-.012.011-.019.016l-2.392,1.652a.743.743,0,0,1-1.033-.189l-.008-.012A.731.731,0,0,1,216.739,391.42Z" transform="translate(-209.149 -386.978)" fill="#f5c08c"/>
          <path id="Trazado_198535" data-name="Trazado 198535" d="M208.736,392.4l2.208-.7a1.3,1.3,0,0,0,.4-.157l2.271-1.362a.741.741,0,0,1,1.019.25l.008.012a.742.742,0,0,1-.25,1.019l-1.46.885S208.53,392.449,208.736,392.4Z" transform="translate(-207.022 -387.834)" fill="#f5c08c"/>
          <path id="Trazado_198536" data-name="Trazado 198536" d="M207.928,391.951c1.824-.686,6.107-.224,6.107-.224l2.475-1.1,1.715-2.114a.742.742,0,0,1,1.043-.108l.012.009a.742.742,0,0,1,.108,1.043s-2.1,2.465-2.111,2.469-1.822,1.24-2.425,1.577c-.114.063-.285.124-.454.2a16.662,16.662,0,0,1-4.487,1.263l-2.342.621-1.2-2.628Z" transform="translate(-206.372 -387.326)" fill="#ffcf9f"/>
        </g>
        <rect id="Rect치ngulo_41311" data-name="Rect치ngulo 41311" width="2.246" height="4.232" transform="translate(0 5.681) rotate(-21.422)" fill="#dadada"/>
        <path id="Trazado_198537" data-name="Trazado 198537" d="M207.941,398.878a.374.374,0,1,1,.211-.485A.375.375,0,0,1,207.941,398.878Z" transform="translate(-205.398 -390.062)" fill="#fff"/>
      </g>
      <path id="Trazado_198538" data-name="Trazado 198538" d="M168.331,387.692l-1.443,15.159L169.2,404.9l2.314-2.048-1.443-15.159Z" transform="translate(-8.801 -10.524)" fill="#575756"/>
      <path id="Trazado_198539" data-name="Trazado 198539" d="M164.245,373.174l.026,1.286c-.007.007,0,.007,0,.007l.02,1.371v.007l.014.613.079,4.4,2.61-.053,1.411-.026h.007l.112-.007,1.292-.027,2.683-.053.119-4.245.013-.541.04-1.365v-.007l.033-1.127Z" transform="translate(-8.071 -6.518)" fill="#f2c799"/>
      <path id="Trazado_198540" data-name="Trazado 198540" d="M163.486,384.137a13.1,13.1,0,0,1-2.541-6.53l2.429-1.352a8.206,8.206,0,0,0,4.188,5.337Z" transform="translate(-7.161 -7.368)" fill="#dadada"/>
      <path id="Trazado_198541" data-name="Trazado 198541" d="M174.16,384.137a13.09,13.09,0,0,0,2.541-6.53l-2.429-1.352a8.206,8.206,0,0,1-4.188,5.337Z" transform="translate(-9.683 -7.368)" fill="#dadada"/>
      <g id="Grupo_564405" data-name="Grupo 564405" transform="translate(146.962 377.493)">
        <path id="Trazado_198542" data-name="Trazado 198542" d="M152.923,412.808V412.8c-.054-.537-.1-3.906-.132-4.677v-.031l-.016-.117c.078-3.362.335-7.128.085-10.139a15.778,15.778,0,0,0-.319-2.28c-.413-1.829-.638-4.055-1.019-7.416a95.609,95.609,0,0,0,3.642,12.637,11.811,11.811,0,0,0,.825,1.588,9,9,0,0,0,5.906,4.357c-2.257-.319-4.506-.631-6.762-.941a36.041,36.041,0,0,0,11.548,7.019c.007,0,.015.007.023.007Z" transform="translate(-151.523 -388.141)" fill="#1d1d1b" opacity="0.05"/>
        <path id="Trazado_198543" data-name="Trazado 198543" d="M195.911,400.657a28.067,28.067,0,0,1-11.519,7.552v.335c-.067.641-.148,4.018-.248,4.663h-6.485c2.442-.827,3.866-5.771,4.669-8.472a21.146,21.146,0,0,0,.688-3.389,55.559,55.559,0,0,0-.157-11.681,76.344,76.344,0,0,1,1.654,10.591c.052.755.091,1.544.109,2.352C186.165,406.1,191.27,403.534,195.911,400.657Z" transform="translate(-158.735 -388.561)" fill="#1d1d1b" opacity="0.05"/>
      </g>
      <path id="Trazado_198544" data-name="Trazado 198544" d="M163.19,351.243a.447.447,0,0,1-.014.047,2.182,2.182,0,0,1-.684,1.011,5.1,5.1,0,0,1-1.091.683,4.775,4.775,0,0,1-1.784.569,2.4,2.4,0,0,1-.7-.055c.05-.082.1-.164.147-.246a4.971,4.971,0,0,1,1.012-1.321c.209-.114.417-.237.621-.363a15.355,15.355,0,0,0,1.312-.88,2.067,2.067,0,0,1,.45-.278.609.609,0,0,1,.515.017A.722.722,0,0,1,163.19,351.243Z" transform="translate(-6.6 -0.223)" fill="#f2c799"/>
      <path id="Trazado_198545" data-name="Trazado 198545" d="M164.161,349.554a4.751,4.751,0,0,0,.217,1.278,1.6,1.6,0,0,0,.83.953,4.347,4.347,0,0,0,2.587-.527C166.692,351.172,164.931,350.862,164.161,349.554Z" transform="translate(-8.048)" fill="#3c3c3b"/>
      <g id="Grupo_564407" data-name="Grupo 564407" transform="translate(152.994 350.139)">
        <g id="Grupo_564406" data-name="Grupo 564406" transform="translate(0.144 1.38)">
          <path id="Trazado_198546" data-name="Trazado 198546" d="M167.534,353.311c-3.717.009-6.665,2.473-6.361,6.876a11.547,11.547,0,0,0,.2,1.512c-.83-.463-1.549.359-1.251,1.61.211.882.648,2.065,1.139,2.24.588.21.765-.156.8-.168a9.926,9.926,0,0,0,.841,3.08,21.741,21.741,0,0,0,1.348,1.844c.88,1.02,1.607,1.27,3.276,1.27h.02c1.668,0,2.4-.25,3.276-1.27a21.432,21.432,0,0,0,1.348-1.844,9.925,9.925,0,0,0,.841-3.08c.034.012.21.378.8.168.491-.175.928-1.358,1.139-2.24.3-1.251-.421-2.074-1.25-1.61a11.422,11.422,0,0,0,.2-1.512C174.2,355.784,171.25,353.32,167.534,353.311Z" transform="translate(-160.053 -352.555)" fill="#ffd2a1"/>
          <path id="Trazado_198547" data-name="Trazado 198547" d="M162.421,354.334c-1.417,1.673-1.854,3.527-1.275,6.946.561.311.859.726,1.082,2.425.406.112.582.137.952.261-2.277-9.054,1.234-9.235,2.2-9.429a24.147,24.147,0,0,1,4.777,0c.964.194,4.475.375,2.2,9.429.37-.124.546-.149.952-.261.224-1.7.521-2.114,1.082-2.425.579-3.419-.039-5.136-1.275-6.946C171.4,351.822,164.955,351.345,162.421,354.334Z" transform="translate(-160.286 -352.267)" fill="#3c3c3b"/>
        </g>
        <path id="Trazado_198548" data-name="Trazado 198548" d="M168.708,350.743a1.811,1.811,0,0,1-.334.71c.614-.155,1.851-1.064,2.317-1.091-1.152,3.184-4.268,6.585-7.141,7.156l.909-1.085-4.514,1.334,1.534-3.1-1.625.588a7.039,7.039,0,0,1,6.753-3.772c-.139-.127-.393-.442-.579-.612a2.458,2.458,0,0,1,1.507.442A3.608,3.608,0,0,1,168.708,350.743Z" transform="translate(-159.854 -350.362)" fill="#3c3c3b"/>
        <path id="Trazado_198549" data-name="Trazado 198549" d="M170.99,355.795a6.4,6.4,0,0,0,2.944,1.332l-.626-.859,3.919.652a6.682,6.682,0,0,0-1.413-3l.886.03a4.6,4.6,0,0,0-5.8-.891,1.62,1.62,0,0,0,.086,2.74Z" transform="translate(-162.706 -350.921)" fill="#3c3c3b"/>
      </g>
      <path id="Trazado_198550" data-name="Trazado 198550" d="M166.114,352.948c-.094.3-.477.355-.788.378a11.622,11.622,0,0,0-2.7.507,1.942,1.942,0,0,0-1.662,1.554,18.459,18.459,0,0,1-.639,2.169,3.26,3.26,0,0,1-1.419,1.705,1.822,1.822,0,0,1-2.1-.234,1.958,1.958,0,0,1-.4-1.767,5.828,5.828,0,0,1,.78-1.71c.341-.571.684-1.145,1.022-1.717.05-.082.1-.164.147-.246a4.971,4.971,0,0,1,1.011-1.321,1.909,1.909,0,0,1,.214-.157,2.341,2.341,0,0,1,.408-.206,4.444,4.444,0,0,1,1.591-.228c.3,0,.594-.025.892-.05a3.773,3.773,0,0,1,2.915.562c.156.122.388.112.539.238A.513.513,0,0,1,166.114,352.948Z" transform="translate(-5.893 -0.556)" fill="#ffd2a1"/>
      <path id="Trazado_198551" data-name="Trazado 198551" d="M157.736,361.941l-1.864,1.615-2.173-3.328,1.842-1.3Z" transform="translate(-5.161 -2.588)" fill="#dadada"/>
      <path id="Trazado_198552" data-name="Trazado 198552" d="M165.107,354.627a2.5,2.5,0,0,0,2.9-.378L163.7,353.2A4.906,4.906,0,0,0,165.107,354.627Z" transform="translate(-7.92 -1.006)" fill="#3c3c3b"/>
      <path id="Trazado_198553" data-name="Trazado 198553" d="M172.146,354.181a8.376,8.376,0,0,1,2.466-.532c-.409.146-.592.64-.974.846a1.051,1.051,0,0,1-.781.053A2.571,2.571,0,0,1,172.146,354.181Z" transform="translate(-10.252 -1.13)" fill="#3c3c3b"/>
      <g id="Grupo_564410" data-name="Grupo 564410" transform="translate(185.945 353.932)">
        <g id="Grupo_564408" data-name="Grupo 564408">
          <path id="Trazado_198554" data-name="Trazado 198554" d="M208.726,374.2a4.4,4.4,0,0,1-.2-1.446c0-5.145,4.035-5.615,4.035-11.467,0-1.681-.672-2.32-1.849-2.32s-1.849.639-1.849,2.32v2.556h-3.5v-2.32c0-3.767,1.849-5.918,5.448-5.918s5.447,2.152,5.447,5.918c0,6.12-4.371,7.062-4.371,11.366a5.8,5.8,0,0,0,.134,1.311Zm3.4,1.648v3.565h-3.564v-3.565Z" transform="translate(-205.363 -355.601)" fill="#cf4518"/>
        </g>
        <g id="Grupo_564409" data-name="Grupo 564409">
          <path id="Trazado_198555" data-name="Trazado 198555" d="M208.726,374.2a4.4,4.4,0,0,1-.2-1.446c0-5.145,4.035-5.615,4.035-11.467,0-1.681-.672-2.32-1.849-2.32s-1.849.639-1.849,2.32v2.556h-3.5v-2.32c0-3.767,1.849-5.918,5.448-5.918s5.447,2.152,5.447,5.918c0,6.12-4.371,7.062-4.371,11.366a5.8,5.8,0,0,0,.134,1.311Zm3.4,1.648v3.565h-3.564v-3.565Z" transform="translate(-205.363 -355.601)" fill="#cf4518"/>
        </g>
      </g>
    </g>
  </g>
</svg>
