<svg xmlns="http://www.w3.org/2000/svg" width="400" height="198.965" viewBox="0 0 400 198.965">
  <g id="Grupo_564521" data-name="Grupo 564521" transform="translate(-180 -5089.807)">
    <g id="Grupo_563018" data-name="Grupo 563018" transform="translate(-735 305)">
      <path id="Trazado_197352" data-name="Trazado 197352" d="M517.586,361.825h0l-.092.153c-.22.366-.448.737-.681,1.11l-356.039-.1s-.346-.359-.967-1.046l-.108-.12a125.273,125.273,0,0,1-8.538-10.762s0,0,0-.006c-9.942-13.96-23.719-38.682-21.4-66.121a70.8,70.8,0,0,1,6.257-23.7c11.121-24.256,44.3-40.607,74.193-40.936,11.569-.129,22.648,2.145,31.761,7.29a20.663,20.663,0,0,0,6.013,2.1,39.963,39.963,0,0,0,6.638.73c19.413.634,50.985-9.521,69.711-35.072,9.944-13.569,25.209-22.451,42.755-27.077q1.226-.322,2.468-.617a115.445,115.445,0,0,1,12.26-2.215q1.127-.141,2.262-.263a141.406,141.406,0,0,1,56.535,5.771q3.593,1.126,7.1,2.443c34.229,12.868,60.859,39.145,58.518,75.835q-.139,2.176-.416,4.4a79.813,79.813,0,0,1-1.57,8.651q-.619,2.6-1.424,5.259C488.707,314.037,545.106,316.137,517.586,361.825Z" transform="translate(785.5 4620.384)" fill="#dce9ff" opacity="0.5"/>
      <g id="Grupo_562955" data-name="Grupo 562955" transform="translate(1025.956 4850.813)">
        <path id="Trazado_197353" data-name="Trazado 197353" d="M1222.432,847.6h0l-277.13.028,2.389-79.044V747.108h10.365V730.335h20.679v14.237h6.315v-26.33h1.373V716.4h.246v1.841h4.988V716.4h.248v1.841h7.06V716.4h.248v1.841h4.444V716.4h.245v1.841h1.826v24.579h6.98v-3.976l8.232.035v-6.443h1.655v-1.274h.22v1.274h6.357v0h1.271v-1.277h.219v1.277h1.533V745.25h9.8v4.715h5.448v-2.737h5.052V736.359h2.52v-5.07h.38v5.07h6.038v-9.5h.593v9.5h4v-.132h-.006v-1.206h.006v-1.142h-.006v-1.9h.006v-1.212h-.006v-1.9h.006v-1.212h-.006v-1.9h.006v-1.31h-.006v-1.9h.006v-1.669h-.006v-1.9h.006v-1.259h1.19V716.3h.191v1.421h8.818V716.3h.189v1.421h1.61v9.935l1.132.006v-.006h-.009v-1.9h.009v-1.31h-.009v-1.9h.009v-1.306h-.009v-1.9h.009v-.006h10.693v.006h1.838l.286.151v12.669h1.968v-1.826h22.571v14.237h6.892v-26.33h1.5V716.4h.271v1.841h5.442V716.4h.27v1.841h7.708V716.4h.269v1.841h4.851V716.4h.268v1.841h1.994v24.579h7.617v-3.976l8.983.035v-6.441h1.809v-1.275h.24v1.275h6.936v0h1.389v-1.277h.239v1.277h1.673v12.81h10.695v4.713h5.947v-2.737h5.514V736.358h2.75v-5.069h.416v5.069h6.591v-9.5h.647v9.5h3.241a84.153,84.153,0,0,1-1.57,8.893q-.619,2.673-1.424,5.407C1193.553,798.473,1249.952,800.631,1222.432,847.6Z" transform="translate(-945.302 -716.3)" fill="#dfeafa"/>
      </g>
      <path id="Trazado_197354" data-name="Trazado 197354" d="M2424.038,218.452V406.908h-7.1v-190.9Q2420.537,217.134,2424.038,218.452Z" transform="translate(-1190.831 4575.203)" fill="#b2cbfd"/>
      <path id="Trazado_197355" data-name="Trazado 197355" d="M247.982,616.228V747.363H159.808l-.108-.119a124.387,124.387,0,0,1-8.538-10.67s0,0,0-.006c-9.942-13.841-23.719-38.352-21.4-65.557a69.724,69.724,0,0,1,6.257-23.5c11.121-24.049,44.3-40.261,74.193-40.587,11.462.116,22.386,2.393,31.458,7.228A22.58,22.58,0,0,0,247.982,616.228Z" transform="translate(785.5 4234.876)" fill="#cfdfff"/>
      <g id="Grupo_562956" data-name="Grupo 562956" transform="translate(1157.215 4784.807)">
        <path id="Trazado_197356" data-name="Trazado 197356" d="M1986.908,170.3v25c0,1.949-.476,3.539-1.056,3.539h-.151c-.58,0-1.055-1.59-1.055-3.539V170.582Q1985.774,170.43,1986.908,170.3Z" transform="translate(-1970.271 -170.299)" fill="#a2bff6"/>
        <path id="Trazado_197357" data-name="Trazado 197357" d="M1893.865,335.9c-8.239,0-14.917,7.062-14.917,15.774h29.835C1908.783,342.965,1902.1,335.9,1893.865,335.9Z" transform="translate(-1878.948 -313.379)" fill="#f29032"/>
        <path id="Trazado_197358" data-name="Trazado 197358" d="M1927.3,336.411a6.138,6.138,0,0,0-1.31-.143c-5.368,0-9.719,7.04-9.719,15.724h2.62C1918.892,344.027,1922.553,337.446,1927.3,336.411Z" transform="translate(-1911.195 -313.695)" fill="#f6bf81"/>
      </g>
      <g id="Grupo_562963" data-name="Grupo 562963" transform="translate(1229.056 4926.586)">
        <g id="Grupo_562958" data-name="Grupo 562958" transform="translate(30.334 22.655)">
          <path id="Trazado_197359" data-name="Trazado 197359" d="M2699.275,1495.771s-3.97-4.631-.245-7.573c0,0,2.721-1.647,4.939-1.514,0,0-3.144,5.272-2.126,5.8s3.079-6.127,3.079-6.127,6.192-.6,8.184.357c0,0-5.293,4.332-4.178,4.59s6.833-3.994,6.833-3.994,5.763.981,5.456,4.5-2.293,4.6-3.166,4.508-5.978-2.042-6.089-1.327,2.962,3.052,5.114,3.162c0,0-4.063,4.481-6.763,3.188s-2.931-3.343-4.614-4.112-3.12-.767-2.425.017,3.741,1.546,4.7,3.249,1.826,2.851-.968,2.431-7.335-2.465-7.534-4.806Z" transform="translate(-2692.564 -1486.168)" fill="#7ea2e7"/>
          <g id="Grupo_562957" data-name="Grupo 562957" transform="translate(0 5.703)">
            <path id="Trazado_197360" data-name="Trazado 197360" d="M2707.938,1528.126s-15.653-.6-19.109,3.873a11.325,11.325,0,0,1-3.117,4.374l-.367,1s2.712-2.86,3.683-3.033C2689.028,1534.34,2687.51,1528.794,2707.938,1528.126Z" transform="translate(-2682.118 -1528.099)" fill="#7ea2e7"/>
            <path id="Trazado_197361" data-name="Trazado 197361" d="M2665.215,1586.438a9.829,9.829,0,0,0-3.593,6.924l.61.054s1.073-4.59,3.013-6.385S2665.215,1586.438,2665.215,1586.438Z" transform="translate(-2661.622 -1578.163)" fill="#7ea2e7"/>
          </g>
        </g>
        <g id="Grupo_562960" data-name="Grupo 562960" transform="translate(0 10.081)">
          <path id="Trazado_197362" data-name="Trazado 197362" d="M2461.755,1410.066s6.315-3.537,3.368-8.336c0,0-2.358-2.947-4.884-3.7,0,0,1.347,7.157,0,7.326s-.927-8.083-.927-8.083-6.652-3.2-9.262-2.947c0,0,4.126,6.989,2.779,6.82s-5.979-7.241-5.979-7.241-6.82-1.263-7.915,2.779.674,6.062,1.684,6.315,7.494.168,7.326,1.01-4.547,2.189-6.989,1.432c0,0,2.694,6.652,6.231,6.315s4.631-2.526,6.82-2.695,3.789.421,2.695,1.011-4.8.193-6.568,1.7-3.2,2.429.084,3.1,9.178.253,10.357-2.273Z" transform="translate(-2438.591 -1393.712)" fill="#7ea2e7"/>
          <g id="Grupo_562959" data-name="Grupo 562959" transform="translate(3.461 4.229)">
            <path id="Trazado_197363" data-name="Trazado 197363" d="M2464.037,1424.8s17.682,5.726,19.7,12.125a13.432,13.432,0,0,0,1.684,6.147v1.263s-1.853-4.294-2.863-4.884C2482.561,1439.454,2486.519,1433.9,2464.037,1424.8Z" transform="translate(-2464.037 -1424.803)" fill="#7ea2e7"/>
            <path id="Trazado_197364" data-name="Trazado 197364" d="M2615.918,1554.152a11.663,11.663,0,0,1,1.173,9.182l-.7-.188s.68-5.552-.746-8.344S2615.918,1554.152,2615.918,1554.152Z" transform="translate(-2594.531 -1535.88)" fill="#7ea2e7"/>
          </g>
        </g>
        <g id="Grupo_562962" data-name="Grupo 562962" transform="translate(27.738)">
          <path id="Trazado_197365" data-name="Trazado 197365" d="M2648.008,1341.151s-8.324-4.662-4.439-10.988c0,0,3.107-3.885,6.438-4.884,0,0-1.776,9.435,0,9.656s1.221-10.656,1.221-10.656,8.768-4.218,12.209-3.885c0,0-5.439,9.212-3.663,8.99s7.881-9.545,7.881-9.545,8.99-1.665,10.433,3.663-.888,7.991-2.219,8.324-9.879.222-9.657,1.332,5.994,2.886,9.213,1.887c0,0-3.552,8.769-8.213,8.324s-6.1-3.33-8.99-3.552-4.995.555-3.552,1.332,6.326.255,8.657,2.236,4.218,3.2-.111,4.09-12.1.333-13.652-3Z" transform="translate(-2642.535 -1319.594)" fill="#a2bff6"/>
          <g id="Grupo_562961" data-name="Grupo 562961" transform="translate(1.076 5.574)">
            <path id="Trazado_197366" data-name="Trazado 197366" d="M2694.643,1360.576s-23.309,7.548-25.973,15.983a17.7,17.7,0,0,1-2.22,8.1v1.665s2.442-5.661,3.774-6.438C2670.225,1379.889,2665.008,1372.563,2694.643,1360.576Z" transform="translate(-2664.274 -1360.576)" fill="#a2bff6"/>
            <path id="Trazado_197367" data-name="Trazado 197367" d="M2652.624,1531.083a15.373,15.373,0,0,0-1.545,12.1l.925-.248s-.9-7.318.983-11S2652.624,1531.083,2652.624,1531.083Z" transform="translate(-2650.447 -1506.998)" fill="#a2bff6"/>
          </g>
        </g>
        <path id="Trazado_197368" data-name="Trazado 197368" d="M2577.124,1629.009a16.307,16.307,0,0,0,16.307-16.307h-32.613A16.307,16.307,0,0,0,2577.124,1629.009Z" transform="translate(-2544.194 -1572.838)" fill="#a2bff6"/>
        <path id="Trazado_197369" data-name="Trazado 197369" d="M2593.762,1628.884a16.316,16.316,0,0,1-18.332-16.181h4.051A16.308,16.308,0,0,0,2593.762,1628.884Z" transform="translate(-2556.819 -1572.837)" fill="#b2cbfd"/>
        <rect id="Rectángulo_41137" data-name="Rectángulo 41137" width="33.52" height="0.5" transform="translate(16.088 39.865)" fill="#a2bff6"/>
      </g>
      <g id="Grupo_562988" data-name="Grupo 562988" transform="translate(1109.493 4879.922)">
        <g id="Grupo_562964" data-name="Grupo 562964" transform="translate(60.556 32.911)">
          <path id="Trazado_197370" data-name="Trazado 197370" d="M2020.774,1287.6l-16.024-66.5,1.119-2.618,15.874,69.115a.283.283,0,0,1-.276.346h-.265A.442.442,0,0,1,2020.774,1287.6Z" transform="translate(-2004.75 -1218.475)" fill="#7ea2e7"/>
        </g>
        <g id="Grupo_562987" data-name="Grupo 562987" transform="translate(0 0)">
          <g id="Grupo_562965" data-name="Grupo 562965" transform="translate(3.732 73.147)">
            <path id="Trazado_197371" data-name="Trazado 197371" d="M1587.482,1543.536h0a.533.533,0,0,1-.526-.62l4.719-28.605h2.022l-5.628,28.742A.6.6,0,0,1,1587.482,1543.536Z" transform="translate(-1586.948 -1514.31)" fill="#7ea2e7"/>
          </g>
          <g id="Grupo_562966" data-name="Grupo 562966" transform="translate(49.004 73.147)">
            <path id="Trazado_197372" data-name="Trazado 197372" d="M1920.344,1543.536h0a.534.534,0,0,1-.526-.62l4.719-28.605h2.023l-5.628,28.742A.6.6,0,0,1,1920.344,1543.536Z" transform="translate(-1919.81 -1514.31)" fill="#7ea2e7"/>
          </g>
          <path id="Trazado_197373" data-name="Trazado 197373" d="M1646.4,1049.705h-56.363l11.677-73.207h56.363Z" transform="translate(-1585.885 -976.498)" fill="#f5faff"/>
          <rect id="Rectángulo_41138" data-name="Rectángulo 41138" width="64.731" height="2.154" transform="translate(0 72.648)" fill="#7ea2e7"/>
          <g id="Grupo_562967" data-name="Grupo 562967" transform="translate(17.027 4.4)">
            <path id="Trazado_197374" data-name="Trazado 197374" d="M1705.826,1019.77a11.842,11.842,0,0,1-11.35,10.953c-5.825.01-10.186-4.878-9.741-10.917a11.784,11.784,0,0,1,11.352-10.953,9.782,9.782,0,0,1,3.439.606,9.427,9.427,0,0,1,3.863,2.677,9.833,9.833,0,0,1,1.056,1.472,9.7,9.7,0,0,1,.489.946,10.393,10.393,0,0,1,.829,2.927,11.153,11.153,0,0,1,.093,1.6Q1705.851,1019.422,1705.826,1019.77Z" transform="translate(-1684.703 -1008.853)" fill="#becffa"/>
            <path id="Trazado_197375" data-name="Trazado 197375" d="M1772.127,1022.453l-9.653,5.234s3.983-7.014,5.618-9.692a9.515,9.515,0,0,1,2.49,2.04,9.835,9.835,0,0,1,1.056,1.472A9.72,9.72,0,0,1,1772.127,1022.453Z" transform="translate(-1751.896 -1016.752)" fill="#fff"/>
            <path id="Trazado_197376" data-name="Trazado 197376" d="M1784.808,1015.172l-8.817,4.781s3.638-6.407,5.131-8.853a8.679,8.679,0,0,1,2.274,1.863,9.083,9.083,0,0,1,1.412,2.208Z" transform="translate(-1763.575 -1010.794)" fill="#ec9037"/>
          </g>
          <g id="Grupo_562973" data-name="Grupo 562973" transform="translate(9.635 40.872)">
            <g id="Grupo_562968" data-name="Grupo 562968">
              <path id="Trazado_197377" data-name="Trazado 197377" d="M1676.745,1303.78l-46.391,0,4.7-26.767,46.391,0Zm-46.016-.273,45.736,0,4.6-26.228-45.736,0Z" transform="translate(-1630.354 -1277.01)" fill="#becffa"/>
            </g>
            <g id="Grupo_562970" data-name="Grupo 562970" transform="translate(2.481 14.815)">
              <path id="Trazado_197378" data-name="Trazado 197378" d="M1689.74,1401.742l-41.144,0s7.3-3.914,9.3-3.709,4.879,1.79,6.729,1.851,3.854-5.493,5.914-5.231,2.835,5.175,3.9,4.7a10.792,10.792,0,0,1,6.113,0c1.844.688,4.532-2.187,6.153-2.1S1689.74,1401.742,1689.74,1401.742Z" transform="translate(-1648.596 -1393.457)" fill="#ec9037"/>
              <g id="Grupo_562969" data-name="Grupo 562969" transform="translate(1.879)">
                <path id="Trazado_197379" data-name="Trazado 197379" d="M1671.416,1386.357h-7.858l.073-.417h7.858Z" transform="translate(-1663.401 -1385.94)" fill="#ec9037"/>
                <path id="Trazado_197380" data-name="Trazado 197380" d="M1670.268,1392.9h-7.858l.073-.417h7.858Z" transform="translate(-1662.409 -1391.594)" fill="#ec9037"/>
              </g>
            </g>
            <g id="Grupo_562972" data-name="Grupo 562972" transform="translate(4.835 2.163)">
              <path id="Trazado_197381" data-name="Trazado 197381" d="M1665.905,1303.089l41.144,0s-5.924-3.915-8-3.71-5.508,1.789-7.379,1.85-1.926-5.494-4.078-5.232-4.651,5.175-5.549,4.695a10.668,10.668,0,0,0-6.113,0c-2.085.688-3.764-2.187-5.417-2.1S1665.905,1303.089,1665.905,1303.089Z" transform="translate(-1665.905 -1295.573)" fill="#becffa"/>
              <g id="Grupo_562971" data-name="Grupo 562971" transform="translate(1.744)">
                <path id="Trazado_197382" data-name="Trazado 197382" d="M1687.738,1293.333h-7.858l.073-.417h7.858Z" transform="translate(-1679.724 -1292.916)" fill="#becffa"/>
                <path id="Trazado_197383" data-name="Trazado 197383" d="M1686.59,1299.878h-7.858l.073-.417h7.858Z" transform="translate(-1678.732 -1298.571)" fill="#becffa"/>
              </g>
            </g>
          </g>
          <g id="Grupo_562974" data-name="Grupo 562974" transform="translate(15.333 28.683)">
            <path id="Trazado_197384" data-name="Trazado 197384" d="M1674.053,1195.844h-1.8l1.568-8.456h1.8Z" transform="translate(-1672.249 -1187.388)" fill="#becffa"/>
            <path id="Trazado_197385" data-name="Trazado 197385" d="M1692.128,1207.95h-1.8l1.215-6.551h1.8Z" transform="translate(-1687.865 -1199.494)" fill="#becffa"/>
            <path id="Trazado_197386" data-name="Trazado 197386" d="M1710.2,1206.166h-1.8l1.267-6.831h1.8Z" transform="translate(-1703.482 -1197.71)" fill="#becffa"/>
            <path id="Trazado_197387" data-name="Trazado 197387" d="M1728.277,1216.553h-1.8l.964-5.2h1.8Z" transform="translate(-1719.098 -1208.097)" fill="#becffa"/>
            <path id="Trazado_197388" data-name="Trazado 197388" d="M1746.351,1214.15h-1.8l1.034-5.575h1.8Z" transform="translate(-1734.714 -1205.693)" fill="#becffa"/>
            <path id="Trazado_197389" data-name="Trazado 197389" d="M1764.427,1222.1h-1.8l.8-4.323h1.8Z" transform="translate(-1750.331 -1213.643)" fill="#becffa"/>
          </g>
          <g id="Grupo_562975" data-name="Grupo 562975" transform="translate(39.474 28.683)">
            <path id="Trazado_197390" data-name="Trazado 197390" d="M1851.546,1195.844h-1.8l1.568-8.456h1.8Z" transform="translate(-1849.741 -1187.388)" fill="#ec9037"/>
            <path id="Trazado_197391" data-name="Trazado 197391" d="M1869.62,1207.95h-1.8l1.215-6.551h1.8Z" transform="translate(-1865.357 -1199.494)" fill="#ec9037"/>
            <path id="Trazado_197392" data-name="Trazado 197392" d="M1887.7,1206.166h-1.8l1.267-6.831h1.8Z" transform="translate(-1880.974 -1197.71)" fill="#ec9037"/>
            <path id="Trazado_197393" data-name="Trazado 197393" d="M1905.769,1216.553h-1.8l.964-5.2h1.8Z" transform="translate(-1896.59 -1208.097)" fill="#ec9037"/>
            <path id="Trazado_197394" data-name="Trazado 197394" d="M1923.844,1214.15h-1.8l1.034-5.575h1.8Z" transform="translate(-1912.206 -1205.693)" fill="#ec9037"/>
            <path id="Trazado_197395" data-name="Trazado 197395" d="M1941.919,1222.1h-1.8l.8-4.323h1.8Z" transform="translate(-1927.823 -1213.643)" fill="#ec9037"/>
          </g>
          <g id="Grupo_562984" data-name="Grupo 562984" transform="translate(42.198 6.852)">
            <g id="Grupo_562976" data-name="Grupo 562976" transform="translate(1.894 1.878)">
              <path id="Trazado_197396" data-name="Trazado 197396" d="M1889.574,1041.49H1883.7l.151-.8h5.874Z" transform="translate(-1883.699 -1040.686)" fill="#becffa"/>
              <path id="Trazado_197397" data-name="Trazado 197397" d="M1938.671,1041.49h-6.486l.151-.8h6.486Z" transform="translate(-1925.59 -1040.686)" fill="#becffa"/>
              <path id="Trazado_197398" data-name="Trazado 197398" d="M1987.6,1041.49h-4.135l.151-.8h4.135Z" transform="translate(-1969.894 -1040.686)" fill="#becffa"/>
              <path id="Trazado_197399" data-name="Trazado 197399" d="M2021.981,1041.49h-3.191l.151-.8h3.191Z" transform="translate(-2000.417 -1040.686)" fill="#becffa"/>
            </g>
            <g id="Grupo_562977" data-name="Grupo 562977" transform="translate(1.249 5.311)">
              <path id="Trazado_197400" data-name="Trazado 197400" d="M1884.833,1066.735h-5.875l.151-.8h5.875Z" transform="translate(-1878.959 -1065.93)" fill="#becffa"/>
              <path id="Trazado_197401" data-name="Trazado 197401" d="M1933.93,1066.735h-6.486l.151-.8h6.486Z" transform="translate(-1920.85 -1065.93)" fill="#becffa"/>
              <path id="Trazado_197402" data-name="Trazado 197402" d="M1982.858,1066.735h-4.135l.151-.8h4.135Z" transform="translate(-1965.154 -1065.93)" fill="#becffa"/>
              <path id="Trazado_197403" data-name="Trazado 197403" d="M2017.241,1066.735h-3.191l.151-.8h3.191Z" transform="translate(-1995.677 -1065.93)" fill="#becffa"/>
            </g>
            <g id="Grupo_562978" data-name="Grupo 562978" transform="translate(2.247)">
              <path id="Trazado_197404" data-name="Trazado 197404" d="M1895.3,1027.685h-9.013l.151-.8h9.013Z" transform="translate(-1886.292 -1026.88)" fill="#becffa"/>
              <path id="Trazado_197405" data-name="Trazado 197405" d="M1964.065,1027.685h-5.2l.151-.8h5.2Z" transform="translate(-1948.999 -1026.88)" fill="#becffa"/>
              <path id="Trazado_197406" data-name="Trazado 197406" d="M2008.226,1027.685h-5.77l.151-.8h5.77Z" transform="translate(-1986.657 -1026.88)" fill="#becffa"/>
            </g>
            <g id="Grupo_562979" data-name="Grupo 562979" transform="translate(1.561 3.651)">
              <path id="Trazado_197407" data-name="Trazado 197407" d="M1890.265,1054.526h-9.012l.151-.8h9.013Z" transform="translate(-1881.252 -1053.722)" fill="#becffa"/>
              <path id="Trazado_197408" data-name="Trazado 197408" d="M1959.025,1054.526h-5.2l.151-.8h5.2Z" transform="translate(-1943.959 -1053.722)" fill="#becffa"/>
              <path id="Trazado_197409" data-name="Trazado 197409" d="M2003.185,1054.526h-5.769l.151-.8h5.77Z" transform="translate(-1981.617 -1053.722)" fill="#becffa"/>
            </g>
            <g id="Grupo_562980" data-name="Grupo 562980" transform="translate(0.604 8.745)">
              <path id="Trazado_197410" data-name="Trazado 197410" d="M1880.093,1091.979h-5.874l.151-.8h5.875Z" transform="translate(-1874.219 -1091.174)" fill="#becffa"/>
              <path id="Trazado_197411" data-name="Trazado 197411" d="M1929.189,1091.979H1922.7l.151-.8h6.486Z" transform="translate(-1916.109 -1091.174)" fill="#becffa"/>
              <path id="Trazado_197412" data-name="Trazado 197412" d="M1978.117,1091.979h-4.135l.151-.8h4.135Z" transform="translate(-1960.413 -1091.174)" fill="#becffa"/>
              <path id="Trazado_197413" data-name="Trazado 197413" d="M2012.5,1091.979h-3.191l.151-.8h3.191Z" transform="translate(-1990.936 -1091.174)" fill="#becffa"/>
            </g>
            <g id="Grupo_562981" data-name="Grupo 562981" transform="translate(0.916 7.084)">
              <path id="Trazado_197414" data-name="Trazado 197414" d="M1885.523,1079.771h-9.013l.151-.8h9.013Z" transform="translate(-1876.511 -1078.967)" fill="#becffa"/>
              <path id="Trazado_197415" data-name="Trazado 197415" d="M1954.284,1079.771h-5.2l.151-.8h5.2Z" transform="translate(-1939.218 -1078.967)" fill="#becffa"/>
              <path id="Trazado_197416" data-name="Trazado 197416" d="M1998.444,1079.771h-5.769l.151-.8h5.769Z" transform="translate(-1976.876 -1078.967)" fill="#becffa"/>
            </g>
            <g id="Grupo_562982" data-name="Grupo 562982" transform="translate(0 11.963)">
              <path id="Trazado_197417" data-name="Trazado 197417" d="M1875.649,1115.646h-5.874l.151-.8h5.874Z" transform="translate(-1869.774 -1114.841)" fill="#becffa"/>
              <path id="Trazado_197418" data-name="Trazado 197418" d="M1924.746,1115.646h-6.486l.151-.8h6.486Z" transform="translate(-1911.666 -1114.841)" fill="#becffa"/>
              <path id="Trazado_197419" data-name="Trazado 197419" d="M1973.673,1115.646h-4.135l.151-.8h4.135Z" transform="translate(-1955.969 -1114.841)" fill="#becffa"/>
              <path id="Trazado_197420" data-name="Trazado 197420" d="M2008.056,1115.646h-3.191l.151-.8h3.191Z" transform="translate(-1986.492 -1114.841)" fill="#becffa"/>
            </g>
            <g id="Grupo_562983" data-name="Grupo 562983" transform="translate(0.312 10.303)">
              <path id="Trazado_197421" data-name="Trazado 197421" d="M1881.079,1103.438h-9.013l.151-.8h9.013Z" transform="translate(-1872.067 -1102.633)" fill="#becffa"/>
              <path id="Trazado_197422" data-name="Trazado 197422" d="M1949.84,1103.438h-5.2l.151-.8h5.2Z" transform="translate(-1934.774 -1102.633)" fill="#becffa"/>
              <path id="Trazado_197423" data-name="Trazado 197423" d="M1994,1103.438h-5.77l.151-.8h5.769Z" transform="translate(-1972.431 -1102.633)" fill="#becffa"/>
            </g>
          </g>
          <g id="Grupo_562985" data-name="Grupo 562985" transform="translate(31.513 28.627)">
            <path id="Trazado_197424" data-name="Trazado 197424" d="M1796.41,1194.132h-2.875l.074-.394h2.875Z" transform="translate(-1793.219 -1192.819)" fill="#becffa"/>
            <path id="Trazado_197425" data-name="Trazado 197425" d="M1820.441,1194.132h-3.175l.074-.394h3.175Z" transform="translate(-1813.722 -1192.819)" fill="#becffa"/>
            <path id="Trazado_197426" data-name="Trazado 197426" d="M1794.089,1206.489h-2.875l.074-.394h2.875Z" transform="translate(-1791.214 -1203.495)" fill="#becffa"/>
            <path id="Trazado_197427" data-name="Trazado 197427" d="M1818.12,1206.489h-3.175l.074-.394h3.175Z" transform="translate(-1811.718 -1203.495)" fill="#becffa"/>
            <path id="Trazado_197428" data-name="Trazado 197428" d="M1799.214,1187.375H1794.8l.074-.394h4.411Z" transform="translate(-1794.315 -1186.981)" fill="#becffa"/>
            <path id="Trazado_197429" data-name="Trazado 197429" d="M1832.87,1187.375h-2.543l.074-.394h2.543Z" transform="translate(-1825.007 -1186.981)" fill="#becffa"/>
            <path id="Trazado_197430" data-name="Trazado 197430" d="M1796.747,1200.514h-4.411l.074-.394h4.411Z" transform="translate(-1792.183 -1198.333)" fill="#becffa"/>
            <path id="Trazado_197431" data-name="Trazado 197431" d="M1830.4,1200.514h-2.543l.074-.394h2.543Z" transform="translate(-1822.876 -1198.333)" fill="#becffa"/>
          </g>
          <g id="Grupo_562986" data-name="Grupo 562986" transform="translate(54.546 28.627)">
            <path id="Trazado_197432" data-name="Trazado 197432" d="M1965.757,1194.132h-2.875l.074-.394h2.875Z" transform="translate(-1962.567 -1192.819)" fill="#becffa"/>
            <path id="Trazado_197433" data-name="Trazado 197433" d="M1989.789,1194.132h-3.175l.074-.394h3.175Z" transform="translate(-1983.071 -1192.819)" fill="#becffa"/>
            <path id="Trazado_197434" data-name="Trazado 197434" d="M1963.438,1206.489h-2.875l.074-.394h2.875Z" transform="translate(-1960.562 -1203.495)" fill="#becffa"/>
            <path id="Trazado_197435" data-name="Trazado 197435" d="M1987.469,1206.489h-3.175l.074-.394h3.175Z" transform="translate(-1981.066 -1203.495)" fill="#becffa"/>
            <path id="Trazado_197436" data-name="Trazado 197436" d="M1968.563,1187.375h-4.411l.074-.394h4.412Z" transform="translate(-1963.663 -1186.981)" fill="#becffa"/>
            <path id="Trazado_197437" data-name="Trazado 197437" d="M2002.219,1187.375h-2.543l.074-.394h2.543Z" transform="translate(-1994.356 -1186.981)" fill="#becffa"/>
            <path id="Trazado_197438" data-name="Trazado 197438" d="M1966.095,1200.514h-4.411l.074-.394h4.411Z" transform="translate(-1961.531 -1198.333)" fill="#becffa"/>
            <path id="Trazado_197439" data-name="Trazado 197439" d="M1999.752,1200.514h-2.543l.074-.394h2.543Z" transform="translate(-1992.225 -1198.333)" fill="#becffa"/>
          </g>
        </g>
      </g>
      <g id="Grupo_562992" data-name="Grupo 562992" transform="translate(1169.274 4858.838)">
        <g id="Grupo_562989" data-name="Grupo 562989" transform="translate(0 112.894)">
          <path id="Trazado_197440" data-name="Trazado 197440" d="M2012.3,1661.01c-.1,1.376-2.042,1.391-4.245,1.135s-1.617.3-4.7.345-4.148-.977-4.3-1.417c-.133-.391,1.353-.72,2.942-1.107.2-.048.4-.1.6-.149,1.792-.456,2.979-1.8,4.512-2.968,1.453-1.11,3.325-5.125,3.325-5.125l4.214-.19s-1.775,3.6-2.441,5.151a5.085,5.085,0,0,0-.055,2.895A5.39,5.39,0,0,1,2012.3,1661.01Z" transform="translate(-1999.051 -1651.533)" fill="#f4ac75"/>
          <path id="Trazado_197441" data-name="Trazado 197441" d="M2008.059,1713.255c-2.2-.256-1.617.3-4.7.345s-4.148-.977-4.3-1.417c-.133-.391,1.353-.72,2.942-1.107l.019.029a8.645,8.645,0,0,0,4.527.811c2.07-.208,4.183-1.072,5.611-1.227a5.39,5.39,0,0,1,.146,1.431C2012.2,1713.5,2010.262,1713.51,2008.059,1713.255Z" transform="translate(-1999.051 -1702.642)" fill="#2c3a64"/>
        </g>
        <g id="Grupo_562990" data-name="Grupo 562990" transform="translate(29.104 110.361)">
          <path id="Trazado_197442" data-name="Trazado 197442" d="M2226.289,1645.2c-.1,1.376-2.041,1.393-4.245,1.14s-1.617.3-4.7.35-4.15-.973-4.3-1.413c-.133-.391,1.352-.721,2.941-1.11.2-.048.4-.1.6-.15,1.791-.458,2.977-1.8,4.509-2.973,1.451-1.111,0-7.688,0-7.688l4.635-.451s-.222,5.538-.219,8.055a14.2,14.2,0,0,0,.63,2.809A5.4,5.4,0,0,1,2226.289,1645.2Z" transform="translate(-2213.035 -1632.907)" fill="#f4ac75"/>
          <path id="Trazado_197443" data-name="Trazado 197443" d="M2222.044,1715.358c-2.2-.253-1.617.3-4.7.35s-4.15-.972-4.3-1.413c-.133-.391,1.352-.721,2.941-1.11l.019.029a8.648,8.648,0,0,0,4.528.806c2.07-.21,4.182-1.076,5.61-1.232a5.4,5.4,0,0,1,.147,1.431C2226.189,1715.594,2224.248,1715.611,2222.044,1715.358Z" transform="translate(-2213.035 -1701.922)" fill="#2c3a64"/>
        </g>
        <path id="Trazado_197444" data-name="Trazado 197444" d="M2209.33,830.463c-.8-3.282.359-4.81,1.4-5.624a4.974,4.974,0,0,1,1.638-2.407,5.911,5.911,0,0,1,3.2-.612,1.5,1.5,0,0,0-.675-.32,4.961,4.961,0,0,1,1.77.462c7.616-2.935,8.813,8.279,8.653,10.885s-.137,5.674,3.825,7.726c7.56,3.917-2.513,18.676-2.513,18.676.192-2.105-9.521-13.216-14.59-16.543a14.649,14.649,0,0,1-1.7-5.277,13.861,13.861,0,0,0,1.037,4.775C2209.061,840.077,2208.719,834.972,2209.33,830.463Z" transform="translate(-2180.5 -821.477)" fill="#9d3f3a"/>
        <path id="Trazado_197445" data-name="Trazado 197445" d="M2233.146,931.117c-.025.012,2.447,1.3,4.307.786,1.749-.477,2.892-2.745,2.868-2.75-.741-.147-.954-1.165-.938-5.54l-.335.066-5.631,1.115s.128,1.772.132,3.442C2233.552,929.638,2233.467,930.968,2233.146,931.117Z" transform="translate(-2201.306 -909.723)" fill="#f4ac75"/>
        <path id="Trazado_197446" data-name="Trazado 197446" d="M2235.135,925.214s.128,1.772.132,3.442c3.151-.089,4.817-2.963,5.5-4.557Z" transform="translate(-2203.026 -910.141)" fill="#e19054"/>
        <path id="Trazado_197447" data-name="Trazado 197447" d="M2066.263,1270.559a1.381,1.381,0,0,0,1.252,1.8l2.2.1,2.328.071a1.868,1.868,0,0,0,1.506-.688,65.429,65.429,0,0,0,11.046-20.913c.1-.31.2-.623.31-.94,2.29-6.68,7.04-15.065,9.543-22.655.4-1.209.756-2.347,1.077-3.424q.155-.517.3-1.017a80.465,80.465,0,0,0,2.87-15.112l-18.072.145A398.1,398.1,0,0,1,2066.263,1270.559Z" transform="translate(-2057.065 -1155.243)" fill="#354e97"/>
        <path id="Trazado_197448" data-name="Trazado 197448" d="M2174.207,983.708c.046,8.6-1.262,12.29-1.262,12.29a24.286,24.286,0,0,0,16.935,1.037c.108-.034,6.58-1.866,6.58-1.866-.154-.348-1.432-6.1-1.583-6.422-1.941-4.17-2.471-5.921-2.7-7.2a27.256,27.256,0,0,1-.223-7.205,57.8,57.8,0,0,1,2.23-11.315,58.74,58.74,0,0,1-7.461-2.55,5.827,5.827,0,0,1-4.025,1.493c-1.832-.04-2.426-.825-2.331-1.681-1.952,1.086-3.51,2.112-3.51,2.112-1.659,2.882-5.024,5.681-5.268,10.1C2171.528,973.588,2174.206,983.467,2174.207,983.708Z" transform="translate(-2148.121 -941.407)" fill="#fff"/>
        <path id="Trazado_197449" data-name="Trazado 197449" d="M2287.879,1044.6c.79,1.118,2.3,7.914,6.073,8.769-1.941-4.844-3.416-6.968-3.646-8.457a36.735,36.735,0,0,1-.224-8.37c-1.261-2.211-2.2-3.727-2.2-3.727-.1-.357-2-6.25-2.615-.983A24.331,24.331,0,0,0,2287.879,1044.6Z" transform="translate(-2246.25 -1001.339)" fill="#6a99a7"/>
        <path id="Trazado_197450" data-name="Trazado 197450" d="M2211.624,864.005s7.455.123,7.46-4.521.971-7.756-3.789-8.031-5.687,1.5-6.066,3.046S2209.685,863.853,2211.624,864.005Z" transform="translate(-2180.567 -847.352)" fill="#f4ac75"/>
        <path id="Trazado_197451" data-name="Trazado 197451" d="M2229.426,844.8s2.042,5.448,5.174,6.254,4.491-.034,4.491-.034a8.872,8.872,0,0,1-2.9-5.241S2230.966,842.209,2229.426,844.8Z" transform="translate(-2198.093 -840.814)" fill="#9d3f3a"/>
        <path id="Trazado_197452" data-name="Trazado 197452" d="M2209.166,848.406a6.583,6.583,0,0,0-1.9,2.4c-.372,1.183-.539,3.617-1.249,3.534,0,0-1.538-3.7.19-5.8C2208.045,846.32,2209.166,848.406,2209.166,848.406Z" transform="translate(-2177.327 -843.976)" fill="#9d3f3a"/>
        <path id="Trazado_197453" data-name="Trazado 197453" d="M2118.778,1176.382l-3.521,10.736,2.008.805,5.822-9.485Z" transform="translate(-2099.452 -1128.112)" fill="#f4ac75"/>
        <path id="Trazado_197454" data-name="Trazado 197454" d="M2145.082,971.168s-4.152,1.648-5.354,4.216-3.021,19.8-3.746,21.568-1.27,3.17-1.27,3.17a8.66,8.66,0,0,0,4.2,1.894C2141.017,1002.147,2145.082,971.168,2145.082,971.168Z" transform="translate(-2116.262 -950.809)" fill="#ec9037"/>
        <path id="Trazado_197455" data-name="Trazado 197455" d="M2164.413,960.286s-4.313,10.656-4.44,12.812-.507,35.265-.507,35.265.253,1.522-2.664.888-3.679-1.269-3.679-1.269,2.791-20.423,2.03-27.527,5.835-18.69,5.835-18.69Z" transform="translate(-2132.168 -941.407)" fill="#ec9037"/>
        <path id="Trazado_197456" data-name="Trazado 197456" d="M2092.063,1355.632l2.527.078a1.462,1.462,0,0,0,1.172-.529,65.236,65.236,0,0,0,11.181-21.078q.146-.464.31-.94c2.291-6.68,7.04-15.065,9.543-22.655.4-1.209.756-2.347,1.077-3.424.1-.345.2-.684.3-1.017l-2.661-2.02s-7.991,12.939-10.465,25.116C2102.9,1339.74,2094.29,1352.467,2092.063,1355.632Z" transform="translate(-2079.413 -1238.413)" fill="#2a3f72"/>
        <path id="Trazado_197457" data-name="Trazado 197457" d="M2251.128,1308.483c-.043,5.6.222,18.088.9,24.191a1.1,1.1,0,0,0,1.1.98h1.885c.8,0,1.39-.006,1.784-.012a.726.726,0,0,0,.7-.586c1.875-9.542,3.217-17.47,4.2-24.32.821-5.734,1.552-10.649,2.114-14.881.566-4.258.959-7.824,1.1-10.837.021-.474.038-.936.047-1.384s.012-.888.008-1.313l-15.616-1.522C2249.549,1289.174,2251.153,1305.041,2251.128,1308.483Z" transform="translate(-2215.309 -1216.599)" fill="#354e97"/>
        <path id="Trazado_197458" data-name="Trazado 197458" d="M2290.986,1360.456c.714,0,1.266,0,1.658-.01a.88.88,0,0,0,.85-.711c1.863-9.488,3.2-17.377,4.176-24.2.822-5.734,1.553-10.649,2.115-14.881.566-4.258.959-7.824,1.1-10.837l-5.73,3.371s3.657,1.29,2.262,11.058S2292.928,1359.073,2290.986,1360.456Z" transform="translate(-2251.281 -1243.401)" fill="#2a3f72"/>
        <path id="Trazado_197459" data-name="Trazado 197459" d="M2251.667,1009.108s1.1,3.974,4.905,3.467a45.866,45.866,0,0,0,9.217-2.791s-1.626-5.139-3.648-11.89c-2.448-8.173-5.479-18.71-6.907-25.355a41.119,41.119,0,0,1-.776-4.531l-3.157-6.126s-4.708,10.565-4.962,13.229S2251.667,1009.108,2251.667,1009.108Z" transform="translate(-2212.698 -942.786)" fill="#ec9037"/>
        <path id="Trazado_197460" data-name="Trazado 197460" d="M2220.063,974.714l-4.167-12.832a64.271,64.271,0,0,1,7.9,2.9s1.651,2.129,2.673,7.04c0,0,1.079,11.791-1.331,16.1,0,0-7.611,1.522-19.789-2.664v-2.791s13.32.7,16.047,1.015Z" transform="translate(-2177.295 -942.786)" fill="#f4ac75"/>
        <path id="Trazado_197461" data-name="Trazado 197461" d="M2286.783,1048.391c.17,4.313,1.185,12.686,10.233,17.167.024.011.048.024.072.034-2.448-8.173-5.478-18.71-6.907-25.356C2288.52,1042.721,2286.691,1046.016,2286.783,1048.391Z" transform="translate(-2247.646 -1010.484)" fill="#df750d"/>
        <path id="Trazado_197462" data-name="Trazado 197462" d="M2280.03,961.882s7.725.544,9.585,4.688,2.453,17.929.085,21.988c0,0-3.26.928-9.026-.15l-.213-.041s-1.839-4.5-.19-5.391c0,0,4.863.254,4.355-1.353S2280.03,961.882,2280.03,961.882Z" transform="translate(-2241.429 -942.786)" fill="#ec9037"/>
        <g id="Grupo_562991" data-name="Grupo 562991" transform="translate(18.317 37.465)">
          <path id="Trazado_197463" data-name="Trazado 197463" d="M2140.469,1100.878l.227.731,12.675-3.943a.488.488,0,0,0,.086-.448.359.359,0,0,0-.313-.283Z" transform="translate(-2139.552 -1096.935)" fill="#9d3f3a"/>
          <path id="Trazado_197464" data-name="Trazado 197464" d="M2133.729,1126.617l.917-.691.227.731Z" transform="translate(-2133.729 -1121.983)" fill="#9d3f3a"/>
        </g>
        <path id="Trazado_197465" data-name="Trazado 197465" d="M2094.53,1253.157s-3.216,1.777-3.639,3.131-.133,4.188.378,4.146,1.272-3.046,1.7-3.258,1.016-.846,1.016-.381-.423,1.311-.212,1.438.888-1.184,1.354-1.438.661-2.346,1.113-2.908S2094.53,1253.157,2094.53,1253.157Z" transform="translate(-2078.224 -1194.445)" fill="#f4ac75"/>
        <path id="Trazado_197466" data-name="Trazado 197466" d="M2159.123,1103.548s-2.876-1.771-4.082-1.5-4.281,2.5-2.8,2.981,2.677-.024,3.245.326.989.99,3.639.982S2159.123,1103.548,2159.123,1103.548Z" transform="translate(-2131.063 -1063.865)" fill="#f4ac75"/>
      </g>
      <g id="Grupo_563002" data-name="Grupo 563002" transform="translate(1038.26 4886.006)">
        <g id="Grupo_562996" data-name="Grupo 562996" transform="translate(5.375 31.452)" opacity="0.6">
          <g id="Grupo_562993" data-name="Grupo 562993" transform="translate(13.888 31.339)">
            <path id="Trazado_197467" data-name="Trazado 197467" d="M1177.943,1516.4h-.047a.5.5,0,0,1-.5-.51l.755-32.724,2.224-.26-1.9,32.986A.538.538,0,0,1,1177.943,1516.4Z" transform="translate(-1177.397 -1482.903)" fill="#7ea2e7"/>
          </g>
          <g id="Grupo_562994" data-name="Grupo 562994" transform="translate(0.928 31.339)">
            <path id="Trazado_197468" data-name="Trazado 197468" d="M1082.653,1516.4h-.047a.5.5,0,0,1-.5-.51l.755-32.724,2.224-.26-1.9,32.986A.538.538,0,0,1,1082.653,1516.4Z" transform="translate(-1082.108 -1482.903)" fill="#7ea2e7"/>
          </g>
          <g id="Grupo_562995" data-name="Grupo 562995" transform="translate(34.803 31.339)">
            <path id="Trazado_197469" data-name="Trazado 197469" d="M1333.6,1516.4h.047a.5.5,0,0,0,.5-.51l-.755-32.724-2.224-.26,1.9,32.986A.538.538,0,0,0,1333.6,1516.4Z" transform="translate(-1331.169 -1482.903)" fill="#7ea2e7"/>
          </g>
          <path id="Trazado_197470" data-name="Trazado 197470" d="M1075.283,1282.054V1259.63a7.145,7.145,0,0,1,7.144-7.145h16.156a7.145,7.145,0,0,1,7.144,7.145v23.281Z" transform="translate(-1075.283 -1252.486)" fill="#7ea2e7"/>
          <path id="Rectángulo_41139" data-name="Rectángulo 41139" d="M0,0H33.339a0,0,0,0,1,0,0V3.54a0,0,0,0,1,0,0H3.54A3.54,3.54,0,0,1,0,0V0A0,0,0,0,1,0,0Z" transform="translate(0 29.569)" fill="#7ea2e7"/>
          <path id="Rectángulo_41140" data-name="Rectángulo 41140" d="M1.77,0H25a1.77,1.77,0,0,1,1.77,1.77v0A1.77,1.77,0,0,1,25,3.54H1.77A1.77,1.77,0,0,1,0,1.77v0A1.77,1.77,0,0,1,1.77,0Z" transform="translate(11.892 29.569)" fill="#7ea2e7"/>
        </g>
        <g id="Grupo_563001" data-name="Grupo 563001">
          <path id="Trazado_197471" data-name="Trazado 197471" d="M1459.162,1583.231c.225,1.127,1.832.939,3.627.5s1.368.083,3.923-.2,3.328-1.235,3.407-1.615c.069-.337-1.193-.456-2.547-.612-.17-.019-.341-.04-.512-.061-1.529-.192-2.648-1.178-4.036-1.988-1.315-.767-3.278-3.894-3.278-3.894l-3.5.278s1.838,2.793,2.549,4.006a4.234,4.234,0,0,1,.344,2.387A4.5,4.5,0,0,0,1459.162,1583.231Z" transform="translate(-1399.054 -1499.995)" fill="#f4ac75"/>
          <path id="Trazado_197472" data-name="Trazado 197472" d="M1481,1621.486c1.8-.438,1.368.083,3.923-.2s3.328-1.235,3.407-1.615c.07-.337-1.193-.456-2.547-.612l-.013.026a7.2,7.2,0,0,1-3.659,1.137c-1.733.042-3.569-.454-4.766-.435a4.486,4.486,0,0,0,.027,1.2C1477.6,1622.113,1479.2,1621.924,1481,1621.486Z" transform="translate(-1417.264 -1537.75)" fill="#2c3a64"/>
          <path id="Trazado_197473" data-name="Trazado 197473" d="M1255.064,1624.475c-.7.915.508,2,2.024,3.051s.843,1.081,2.745,2.809,3.128,1.679,3.465,1.486c.3-.171-.447-1.2-1.226-2.315-.1-.14-.2-.282-.293-.425-.867-1.273-.868-2.765-1.179-4.342-.295-1.494,2.145-6.984,2.145-6.984l-3.919-.493a43.841,43.841,0,0,1-.952,4.652c-.259.786-1.348,1.3-1.929,1.748A4.5,4.5,0,0,0,1255.064,1624.475Z" transform="translate(-1225.062 -1536.198)" fill="#f4ac75"/>
          <path id="Trazado_197474" data-name="Trazado 197474" d="M1257.088,1668.179c1.516,1.056.843,1.081,2.745,2.81s3.128,1.679,3.465,1.486c.3-.171-.447-1.2-1.226-2.315l-.028.008a7.2,7.2,0,0,1-3.273-1.992c-1.178-1.272-2.02-2.977-2.826-3.861a4.493,4.493,0,0,0-.881.813C1254.368,1666.043,1255.572,1667.123,1257.088,1668.179Z" transform="translate(-1225.062 -1576.851)" fill="#2c3a64"/>
          <path id="Trazado_197475" data-name="Trazado 197475" d="M1290.582,1424.929l-3.579,9.632-4.673,12.577a7.575,7.575,0,0,1-2.483-.227,10.761,10.761,0,0,1-2.4-1.169s1.3-13.5,3.718-21.255a13.8,13.8,0,0,1,2.083-4.5C1287,1415.547,1290.582,1424.929,1290.582,1424.929Z" transform="translate(-1244.575 -1364.72)" fill="#233862"/>
          <path id="Trazado_197476" data-name="Trazado 197476" d="M1127.332,1339.23c-2.345-.756-9.411-.305-16.13,1.01l-1.029-1.8-14.512-1.133s-4.789,10.62-2.167,17.386a2.454,2.454,0,0,0,2.456,1.653h.212s8.637-.005,11.442-.005c7.217,0,15.274-4.961,16.316-5.169,1.706-.341,2.388,3.071,4.094,6.653s16.036,15.865,16.036,15.865a12.618,12.618,0,0,0,3.112-.319,3.066,3.066,0,0,0,1.336-.844S1132.621,1340.937,1127.332,1339.23Z" transform="translate(-1084.964 -1294.318)" fill="#354e97"/>
          <path id="Trazado_197477" data-name="Trazado 197477" d="M1069.283,1021.427a15.3,15.3,0,0,0-5.277.139c-5.511.643-6.743,9.2-6.333,11.6.755,4.413-1.364,5.656-3.893,9.185-5.071,7.077-1.568,12.9,2.56,14.349,2.477.866,5.852-1.493,5.852-1.493.062.023,8.763-8.284,13.067-12.318C1082.493,1039.906,1074.488,1022.667,1069.283,1021.427Z" transform="translate(-1049.156 -1021.232)" fill="#2c3a64"/>
          <path id="Trazado_197478" data-name="Trazado 197478" d="M1143.811,1128.762c.026.009-2.244,1.491-4.093,1.179-1.74-.292-3.581-2.563-3.558-2.57.7-.214,1.325-1.036.886-5.269l.331.031,5.56.533s.048,1.728.206,3.345C1143.274,1127.369,1143.486,1128.648,1143.811,1128.762Z" transform="translate(-1122.505 -1108.383)" fill="#f4ac75"/>
          <path id="Trazado_197479" data-name="Trazado 197479" d="M1150.664,1122.865s.048,1.728.206,3.345c-3.059.22-4.951-2.4-5.766-3.879Z" transform="translate(-1130.233 -1108.582)" fill="#e19054"/>
          <path id="Trazado_197480" data-name="Trazado 197480" d="M1142.76,1060.679s-7.206.842-7.662-3.654-1.692-7.415,2.89-8.143,5.651.9,6.168,2.361S1144.623,1060.344,1142.76,1060.679Z" transform="translate(-1121.157 -1044.967)" fill="#f4ac75"/>
          <path id="Trazado_197481" data-name="Trazado 197481" d="M1130.024,1044.656s-3.48,4.982-6.435,6.066-4.352.4-4.352.4a12.225,12.225,0,0,0,1.875-4.612,2.2,2.2,0,0,1,1.438-1.706C1124.668,1044.067,1128.753,1042.934,1130.024,1044.656Z" transform="translate(-1107.884 -1040.689)" fill="#2c3a64"/>
          <path id="Trazado_197482" data-name="Trazado 197482" d="M1177.4,1044.888a11.331,11.331,0,0,1,2.6,2.012,8.7,8.7,0,0,1,1.372,4.425s1.172-5.114-.7-6.974C1178.682,1042.378,1177.4,1044.888,1177.4,1044.888Z" transform="translate(-1158.138 -1040.553)" fill="#2c3a64"/>
          <path id="Trazado_197483" data-name="Trazado 197483" d="M1110.576,1170.186c-.218,14.556-.06,11.515-1.652,12.9a6.115,6.115,0,0,1-2.882.625c-4.464.3-12.309-.439-12.608-1.264-1.03-2.854-.3-3.741-1.162-8.111-.089-.465-.2-.968-.331-1.516-.716-3-1.413-4.022,1.128-8.844,2.3-4.367,4.792-7.856,5.008-7.729,6.079,3.609,6.475.52,6.475.52S1110.682,1163.086,1110.576,1170.186Z" transform="translate(-1083.728 -1137.879)" fill="#fff"/>
          <path id="Trazado_197484" data-name="Trazado 197484" d="M1285.97,1470.742l-4.78,13.1a8.073,8.073,0,0,1-2.967.378,3.716,3.716,0,0,1-1.973-.881s1.46-14.92,3.881-22.672Z" transform="translate(-1243.543 -1400.901)" fill="#354e97"/>
          <path id="Trazado_197485" data-name="Trazado 197485" d="M1188.872,1160.08s6.255,1.061,6.99,3.754,6.106,17.534,6.106,17.534-4.229,1.563-5.7.094-5.112-13.629-5.112-13.629Z" transform="translate(-1168.048 -1141.195)" fill="#fff"/>
          <path id="Trazado_197486" data-name="Trazado 197486" d="M1112.353,1268.352c-4.464.3-12.31-.439-12.608-1.264-1.029-2.854-.3-3.741-1.162-8.111l2.094-4.767s-.3,5.455,1.694,7.231,8.151,3.427,9.119,4.911A5.429,5.429,0,0,1,1112.353,1268.352Z" transform="translate(-1090.039 -1222.524)" fill="#dfeafd"/>
          <g id="Grupo_562997" data-name="Grupo 562997" transform="translate(16.443 41.345)">
            <path id="Trazado_197487" data-name="Trazado 197487" d="M1202.5,1335.344a9.934,9.934,0,0,0,1.708,1.239,1.052,1.052,0,0,0,.593.007l-.969-1.135Z" transform="translate(-1196.263 -1333.967)" fill="#f4ac75"/>
            <path id="Trazado_197488" data-name="Trazado 197488" d="M1198.624,1325.41l3.366.869a.558.558,0,0,1-.468.3,7.453,7.453,0,0,1-1.4-.1Z" transform="translate(-1192.917 -1325.384)" fill="#f4ac75"/>
            <path id="Trazado_197489" data-name="Trazado 197489" d="M1156.664,1327.1s4.8-2.138,5.707-1.855a12.061,12.061,0,0,1,3.578,2.023c.363.516-1.894-.064-2.6-.108a6.076,6.076,0,0,0-2.042.9,7.245,7.245,0,0,1-3.752,1.159Z" transform="translate(-1156.664 -1325.221)" fill="#f4ac75"/>
          </g>
          <path id="Trazado_197490" data-name="Trazado 197490" d="M1050.113,1156.266s-6.8,1.276-8.058,3.16c-2.748,4.111-8.6,21.145-5.321,23.429,3.689,2.572,16.79.673,16.79.673s.436-2.038-.171-3.024-10.464-2.578-10.919-3.033,4.494-7.033,3.967-8.292C1044.713,1165.146,1050.113,1156.266,1050.113,1156.266Z" transform="translate(-1035.764 -1137.9)" fill="#fff"/>
          <g id="Grupo_562998" data-name="Grupo 562998" transform="translate(40.618 42.5)">
            <path id="Trazado_197491" data-name="Trazado 197491" d="M1335.013,1333.711s4.757,1.285,5.246,2.023a11.3,11.3,0,0,1,1.406,3.585c-.041.589-1.34-1.166-1.826-1.615a5.683,5.683,0,0,0-2.017-.552,6.014,6.014,0,0,1-2.626-1.2,1.441,1.441,0,0,0-.787-.176Z" transform="translate(-1334.409 -1333.711)" fill="#f4ac75"/>
            <path id="Trazado_197492" data-name="Trazado 197492" d="M1374.368,1358.1a9.309,9.309,0,0,0,.51,1.91.988.988,0,0,0,.428.356l-.034-1.4Z" transform="translate(-1368.933 -1354.784)" fill="#f4ac75"/>
            <path id="Trazado_197493" data-name="Trazado 197493" d="M1377.423,1348.588l1.934,2.621a.522.522,0,0,1-.517-.059,6.988,6.988,0,0,1-.963-.9Z" transform="translate(-1371.573 -1346.564)" fill="#f4ac75"/>
            <path id="Trazado_197494" data-name="Trazado 197494" d="M1340.2,1350.2a3,3,0,0,0,1.321,1.455c.881.384,1.527.96,1.668.753s-.667-1.3-.667-1.3Z" transform="translate(-1339.409 -1347.958)" fill="#f4ac75"/>
          </g>
          <path id="Trazado_197495" data-name="Trazado 197495" d="M1247.7,1290.8l10.005,6.325a8.281,8.281,0,0,1-1.4,1.534c-1.853.679-10.185.029-13.039-4.256Z" transform="translate(-1215.043 -1254.135)" fill="#fff"/>
          <g id="Grupo_563000" data-name="Grupo 563000" transform="translate(18.46 43.066)">
            <path id="Trazado_197496" data-name="Trazado 197496" d="M1245.178,1338.759c.59,0,6.463-.407,6.463-.407a2.779,2.779,0,0,0,.194,1.6l-5.723,1.095-1.177-.345Z" transform="translate(-1234.946 -1338.287)" fill="#f4daba"/>
            <g id="Grupo_562999" data-name="Grupo 562999">
              <path id="Trazado_197497" data-name="Trazado 197497" d="M1171.927,1342.289l9.8-.944s-.345,1.812.934,2.285l-10.8.79A1.694,1.694,0,0,1,1171.927,1342.289Z" transform="translate(-1171.491 -1340.873)" fill="#ec9037"/>
              <path id="Trazado_197498" data-name="Trazado 197498" d="M1252.066,1338.071l-6.62.509s.05-.229.173-.232,6.576-.472,6.576-.472l-.023.181Z" transform="translate(-1235.388 -1337.877)" fill="#ec9037"/>
              <path id="Trazado_197499" data-name="Trazado 197499" d="M1250.807,1350.153l5.829-1.108-.053-.151-6.214,1.19Z" transform="translate(-1239.642 -1347.396)" fill="#ec9037"/>
            </g>
          </g>
        </g>
      </g>
      <g id="Grupo_563011" data-name="Grupo 563011" transform="translate(984.019 4879.759)">
        <g id="Grupo_563006" data-name="Grupo 563006" transform="translate(0 30.088)">
          <g id="Grupo_563003" data-name="Grupo 563003" transform="translate(15.417 34.993)">
            <path id="Trazado_197500" data-name="Trazado 197500" d="M750.923,1491.208h-.053a.554.554,0,0,1-.553-.569l.838-36.54,2.469-.29-2.105,36.832A.6.6,0,0,1,750.923,1491.208Z" transform="translate(-750.318 -1453.81)" fill="#7ea2e7"/>
          </g>
          <g id="Grupo_563004" data-name="Grupo 563004" transform="translate(1.03 34.993)">
            <path id="Trazado_197501" data-name="Trazado 197501" d="M645.143,1491.208h-.053a.554.554,0,0,1-.553-.569l.838-36.54,2.469-.29-2.105,36.832A.6.6,0,0,1,645.143,1491.208Z" transform="translate(-644.537 -1453.81)" fill="#7ea2e7"/>
          </g>
          <g id="Grupo_563005" data-name="Grupo 563005" transform="translate(38.634 34.993)">
            <path id="Trazado_197502" data-name="Trazado 197502" d="M923.722,1491.208h.053a.554.554,0,0,0,.553-.569l-.838-36.54-2.469-.29,2.105,36.832A.6.6,0,0,0,923.722,1491.208Z" transform="translate(-921.02 -1453.81)" fill="#7ea2e7"/>
          </g>
          <path id="Trazado_197503" data-name="Trazado 197503" d="M636.961,1229.543V1204.5a7.954,7.954,0,0,1,7.931-7.978h17.935a7.954,7.954,0,0,1,7.931,7.978v26Z" transform="translate(-636.961 -1196.527)" fill="#7ea2e7"/>
          <path id="Rectángulo_41141" data-name="Rectángulo 41141" d="M0,0H37.01a0,0,0,0,1,0,0V3.953a0,0,0,0,1,0,0H3.953A3.953,3.953,0,0,1,0,0V0A0,0,0,0,1,0,0Z" transform="translate(0 33.016)" fill="#7ea2e7"/>
          <rect id="Rectángulo_41142" data-name="Rectángulo 41142" width="29.72" height="3.953" rx="1.976" transform="translate(13.201 33.016)" fill="#7ea2e7"/>
        </g>
        <g id="Grupo_563010" data-name="Grupo 563010" transform="translate(7.844)">
          <path id="Trazado_197504" data-name="Trazado 197504" d="M824.253,1128.53s-1.5,1.277-1.827,4.589c-.248,2.515,1.5,22.037,2.809,23.589,3.693,4.366,8.322,2.521,10.136,3.183l1.71-1.537s-6.014-4.439-6.472-5.887C828.848,1146.893,829.94,1130.636,824.253,1128.53Z" transform="translate(-805.025 -1107.69)" fill="#f4daba"/>
          <path id="Trazado_197505" data-name="Trazado 197505" d="M741.567,982.851s.1-3.58-4.62-4.283-6.027.4-6.83,1.606-2.308,6.122-2.158,8.079,5.536,4.377,5.449,5.519S741.567,982.851,741.567,982.851Z" transform="translate(-723.418 -977.934)" fill="#233862"/>
          <path id="Trazado_197506" data-name="Trazado 197506" d="M986.866,1651.273c-.153,1.21,1.5,1.566,3.417,1.734s1.324.548,3.943,1.13,3.7-.112,3.9-.468c.181-.315-1.026-.863-2.312-1.48-.162-.077-.324-.156-.486-.235-1.446-.712-2.223-2.083-3.325-3.369-1.044-1.218-1.94-5.028-1.94-5.028l-3.554-.91s.885,3.432,1.183,4.894a4.561,4.561,0,0,1-.456,2.517A4.836,4.836,0,0,0,986.866,1651.273Z" transform="translate(-946.815 -1551.884)" fill="#f4ac75"/>
          <path id="Trazado_197507" data-name="Trazado 197507" d="M992.465,1700.089c1.92.168,1.324.548,3.943,1.13s3.7-.113,3.9-.468c.181-.315-1.026-.863-2.312-1.479l-.021.022a7.382,7.382,0,0,1-3.994-.1c-1.726-.546-3.375-1.668-4.564-2.055a4.841,4.841,0,0,0-.373,1.214C988.9,1699.565,990.545,1699.921,992.465,1700.089Z" transform="translate(-948.997 -1598.965)" fill="#2c3a64"/>
          <path id="Trazado_197508" data-name="Trazado 197508" d="M760.388,1322.114s23.758,2.464,27.675,6.1,3.219,37.52,3.219,37.52c-.61.633-1.06.618-2.023.542a13.462,13.462,0,0,1-2.809-.868s-5.088-16.637-5.152-20.49-.868-10.389-2.484-10.775-20.85,1.771-22.959-4.3a13.1,13.1,0,0,1,1.393-11.074Z" transform="translate(-746.945 -1272.053)" fill="#df750d"/>
          <path id="Trazado_197509" data-name="Trazado 197509" d="M706.077,1160.708a10.814,10.814,0,0,0,5.934,1.854c5.5.2,12.371-.456,13.723-1.733a2.327,2.327,0,0,0,.57-1.568c.149-2.112-.86-5.587-1.537-8.462a10.85,10.85,0,0,1-.494-4.307c.747-2.511,3.066-7.628,3.267-9.309s-1.806-10.691-4.581-11.807-13.484,0-13.484,0c-4.183.849-4.36,9.769-2.97,17.36.036.2.072.39.11.583C708.121,1151.028,703.217,1158.792,706.077,1160.708Z" transform="translate(-703.731 -1104.536)" fill="#f4daba"/>
          <g id="Grupo_563007" data-name="Grupo 563007" transform="translate(7.138 4.216)">
            <path id="Trazado_197510" data-name="Trazado 197510" d="M766.919,1092.235c-.075.489-1.414,1.282-4.277.528-2.743-.723-3.072-1.616-3.071-2.206,0-.7,1.192-1.639,1.177-5.935l.329.065,5.53,1.095s-.126,1.74-.13,3.38C766.473,1090.538,767.044,1091.42,766.919,1092.235Z" transform="translate(-757.877 -1073.969)" fill="#f4ac75"/>
            <path id="Trazado_197511" data-name="Trazado 197511" d="M776.171,1086.193s-.126,1.74-.13,3.38c-3.095-.087-4.73-2.91-5.4-4.475Z" transform="translate(-767.442 -1074.381)" fill="#e19054"/>
            <path id="Trazado_197512" data-name="Trazado 197512" d="M771.834,1026.085s-7.321.121-7.326-4.44-.953-7.616,3.721-7.886,5.584,1.469,5.956,2.991S773.738,1025.936,771.834,1026.085Z" transform="translate(-762.071 -1012.72)" fill="#f4ac75"/>
            <path id="Trazado_197513" data-name="Trazado 197513" d="M756.609,1007.227s-2,5.35-5.081,6.141-4.411-.033-4.411-.033a8.711,8.711,0,0,0,2.849-5.147S755.1,1004.681,756.609,1007.227Z" transform="translate(-747.117 -1006.3)" fill="#233862"/>
            <path id="Trazado_197514" data-name="Trazado 197514" d="M813.251,1010.767a6.463,6.463,0,0,1,1.862,2.356c.365,1.161.529,3.552,1.226,3.471,0,0,1.51-3.637-.187-5.694C814.352,1008.718,813.251,1010.767,813.251,1010.767Z" transform="translate(-804.256 -1009.406)" fill="#233862"/>
          </g>
          <path id="Trazado_197515" data-name="Trazado 197515" d="M857.916,1641.57c-.018,1.22,1.661,1.383,3.587,1.329s1.377.391,4.043.669,3.664-.538,3.827-.915c.145-.334-1.116-.739-2.461-1.2-.169-.058-.339-.118-.509-.178-1.516-.54-2.441-1.814-3.678-2.965-1.172-1.09,1.415-6.363,1.415-6.363l-3.392-1.679s-.643,3.764-1.472,7.057c-.214.851-.912,2.252-1.125,3A4.843,4.843,0,0,0,857.916,1641.57Z" transform="translate(-835.708 -1541.186)" fill="#f4ac75"/>
          <path id="Trazado_197516" data-name="Trazado 197516" d="M707.02,1247.626c1.025.686,2.712,2.65,5.788,2.76,5.076-1.155,10.855-2.5,14.293-3.3.149-2.112-.859-5.586-1.537-8.462-4.009,1.224-9.975-2.946-11.98-4.594-2.108-1.731-2.041-7.5-2.041-7.5l-4.24,4.031c.036.2.072.39.11.583C708.917,1238.852,704.16,1245.709,707.02,1247.626Z" transform="translate(-704.528 -1192.36)" fill="#ebc8a4"/>
          <path id="Trazado_197517" data-name="Trazado 197517" d="M861.5,1706.771c1.926-.054,1.377.392,4.043.669s3.664-.538,3.827-.915c.145-.334-1.116-.74-2.461-1.2l-.019.024a7.39,7.39,0,0,1-3.979.362c-1.776-.343-3.538-1.269-4.763-1.516a4.846,4.846,0,0,0-.235,1.25C857.9,1706.661,859.578,1706.825,861.5,1706.771Z" transform="translate(-835.708 -1605.057)" fill="#2c3a64"/>
          <path id="Trazado_197518" data-name="Trazado 197518" d="M708.71,1344.579c6.032-.172,24.048,1.266,27.509,3.876,4.26,3.212-7.91,37.947-7.91,37.947a15.732,15.732,0,0,1-1.861.086,5.965,5.965,0,0,1-2.72-.808s.047-20.444,1.469-24.355c1.314-3.614,2.119-4.892.473-5.107s-22.191,2.4-23.906-3.8a15.365,15.365,0,0,1,.64-9.329S703.146,1344.738,708.71,1344.579Z" transform="translate(-700.393 -1293.07)" fill="#ec9037"/>
          <path id="Trazado_197519" data-name="Trazado 197519" d="M700.38,1128.446s-4.19.356-4.516,3.668c-.248,2.515-2.07,20.352-.758,21.9,3.693,4.365,16.009,5.291,17.822,5.953l.5-2.064s-13.147-6.624-12.946-8.129S704.4,1127.85,700.38,1128.446Z" transform="translate(-694.635 -1107.606)" fill="#f4daba"/>
          <path id="Trazado_197520" data-name="Trazado 197520" d="M726.386,977.737s.3-1.91-2.349-2.4-2.7,5.135-2.983,6.492.424,2.169,1.434,2.252S726.386,977.737,726.386,977.737Z" transform="translate(-717.406 -975.303)" fill="#233862"/>
          <g id="Grupo_563008" data-name="Grupo 563008" transform="translate(17.815 48.689)">
            <path id="Trazado_197521" data-name="Trazado 197521" d="M826.739,1339.066s3.744-1.059,4.636-.812,3.947,2.271,3.518,2.82-3.122-.329-4.36-.163-2.2.777-3.088.645a10.345,10.345,0,0,1-1.824-.483Z" transform="translate(-825.62 -1337.547)" fill="#f4ac75"/>
            <path id="Trazado_197522" data-name="Trazado 197522" d="M833.848,1334.807a14.03,14.03,0,0,0,2.353-1.477.146.146,0,0,1,.227.026c.14.22.27.645-.372,1.068A3.455,3.455,0,0,1,833.848,1334.807Z" transform="translate(-832.729 -1333.287)" fill="#f4ac75"/>
          </g>
          <g id="Grupo_563009" data-name="Grupo 563009" transform="translate(30.346 50.665)">
            <path id="Trazado_197523" data-name="Trazado 197523" d="M919.465,1347.815s3.885.213,4.649.736,3,3.429,2.412,3.81-2.846-1.324-4.072-1.569-2.33.023-3.131-.392a10.352,10.352,0,0,1-1.569-1.049Z" transform="translate(-917.755 -1347.815)" fill="#f4ac75"/>
          </g>
        </g>
      </g>
      <g id="Grupo_563017" data-name="Grupo 563017" transform="translate(928.012 4873.361)">
        <g id="Grupo_563012" data-name="Grupo 563012" transform="translate(13.557)">
          <path id="Trazado_197524" data-name="Trazado 197524" d="M630.4,1679.772H614.595c-.76-.928-.48-4.352-.365-5.47.024-.225.04-.356.04-.356s5.4-4.318,6.14-1.012c.023.1.05.205.08.305.934,3.093,5.125,4.5,7.545,4.889A2.741,2.741,0,0,1,630.4,1679.772Z" transform="translate(-574.744 -1570.576)" fill="#253353"/>
          <path id="Trazado_197525" data-name="Trazado 197525" d="M353.825,1353.435c.571,0,27.08,4.977,31.465,10.405,2.19,2.711,2.516,34.027,2.516,34.027s-2.71,3.36-8.563,1.409c0,0-4.291-21.425-3.974-27.924.088-1.8-18.113-.26-21.444-1.122s-11.47-8.108-9.677-11.639S353.825,1353.435,353.825,1353.435Z" transform="translate(-341.302 -1295.608)" fill="#2c3a64"/>
          <path id="Trazado_197526" data-name="Trazado 197526" d="M553.515,1342.619a9.771,9.771,0,0,0,3.436,1.878,15.572,15.572,0,0,1,2.525.767c1.574.723,4.56,3.948,4.282,4.269-.89,1.028-4.477-1.649-5.163-1.46s1.125,1.745.407,2.168c-.375.221-1.082-1.123-1.744-1.312-.9-.256-1.489-1.608-1.757-1.7a21.379,21.379,0,0,1-2.7-2.133Z" transform="translate(-521.798 -1286.263)" fill="#f4ac75"/>
          <path id="Trazado_197527" data-name="Trazado 197527" d="M681.775,1679.772H665.966c-.76-.928-.48-4.352-.365-5.47.024-.225.04-.356.04-.356s5.4-4.318,6.14-1.012c.023.1.05.205.08.305.934,3.093,5.125,4.5,7.544,4.889A2.741,2.741,0,0,1,681.775,1679.772Z" transform="translate(-619.128 -1570.576)" fill="#293e6a"/>
          <path id="Trazado_197528" data-name="Trazado 197528" d="M411.261,1353.435c.571,0,27.08,4.977,31.465,10.405,2.191,2.711,2.516,34.027,2.516,34.027s-2.71,3.36-8.563,1.409c0,0-4.292-21.425-3.974-27.924.088-1.8-18.112-.26-21.444-1.122s-11.47-8.108-9.677-11.639S411.261,1353.435,411.261,1353.435Z" transform="translate(-390.927 -1295.608)" fill="#35488b"/>
          <path id="Trazado_197529" data-name="Trazado 197529" d="M406.475,1026.509a25.72,25.72,0,0,1-5.635-1.226c-2.16-.7-3.9-1.725-2.779-3.7,1.034-1.82,2.708-5.885,2.595-9.252l4.02,3.239,2.73,2.2a32.755,32.755,0,0,1-.31,3.57q-.082.622-.194,1.34a.974.974,0,0,0,.449.978l.062.038A1.525,1.525,0,0,1,406.475,1026.509Z" transform="translate(-387.799 -1000.896)" fill="#f4ac75"/>
          <path id="Trazado_197530" data-name="Trazado 197530" d="M438.442,1037.644a6.642,6.642,0,0,1-.1,2.21,11.419,11.419,0,0,1-4.71-2.339c1.239-.34,1.69-1.679,2.613-1.554Z" transform="translate(-418.836 -1021.305)" fill="#e19054"/>
          <path id="Trazado_197531" data-name="Trazado 197531" d="M414.4,952.9s-9.364,1.556-10.243-4.291-2.68-9.583,3.262-10.823,7.441.815,8.209,2.7S416.818,952.34,414.4,952.9Z" transform="translate(-392.547 -936.16)" fill="#f4ac75"/>
          <path id="Trazado_197532" data-name="Trazado 197532" d="M403.832,929.989c.4,1.408-.674,3.122-2.48,3.687-2.681.838-2.089,4.127-3.3,4.083s-1.693-1.891-2.771-.416c-.919,1.258.765,2.749.649,3.439-.2,1.184-2.054,3.607-3.726,3.486s-4.8-8.067-4.174-10.525,3.128-5.05,5.5-5.408,5.658.665,6.418.665S403.614,929.229,403.832,929.989Z" transform="translate(-379.369 -928.26)" fill="#35488b"/>
          <path id="Trazado_197533" data-name="Trazado 197533" d="M351.63,1105.47c-.157,1.349-.441,2.267-.887,2.566-1.4.935-3.247,2.1-5.313,3.249-7.325,4.085-17.353,8.026-19.392,1.123-2.4-8.107-.822-23.33,1.528-32.786,1.352-5.447,5.094-11.163,7.623-11.157,4.31.007,10.505,1.145,13.007,7.316.968,2.39,2.392,10.674,3.118,18.263A62.827,62.827,0,0,1,351.63,1105.47Z" transform="translate(-324.844 -1049.396)" fill="#fff"/>
          <path id="Trazado_197534" data-name="Trazado 197534" d="M397.71,1054.882l.976-2.2s8.652.881,10.12,5.852C408.805,1058.536,402.118,1054.989,397.71,1054.882Z" transform="translate(-387.8 -1035.761)" fill="#dfeafd"/>
          <path id="Trazado_197535" data-name="Trazado 197535" d="M429.4,1257.619c-.157,1.349-.441,2.267-.887,2.566-1.4.935-3.247,2.1-5.313,3.248-2.156-1.31-6.581-4.437-7.616-8.122-1.352-4.818-.4-10.747-.4-10.747Z" transform="translate(-402.615 -1201.544)" fill="#dfeafd"/>
          <path id="Trazado_197536" data-name="Trazado 197536" d="M410.614,1113.68s.75,20.708,1.928,24.8c2.008,6.982,20.322,9.468,20.322,9.468a3.75,3.75,0,0,0,.6-3.254s-10.949-8.63-11.269-10.272,2.386-12.776-.707-16.825S412.692,1110.041,410.614,1113.68Z" transform="translate(-398.949 -1087.144)" fill="#fff"/>
        </g>
        <g id="Grupo_563016" data-name="Grupo 563016" transform="translate(0 34.418)">
          <g id="Grupo_563013" data-name="Grupo 563013" transform="translate(1.37 40.846)">
            <path id="Trazado_197537" data-name="Trazado 197537" d="M236.132,1515.375h-.06a.819.819,0,0,1-.828-.876l3.29-32.859,2.871.256-4.724,33.035A.535.535,0,0,1,236.132,1515.375Z" transform="translate(-235.24 -1481.64)" fill="#7ea2e7"/>
          </g>
          <g id="Grupo_563014" data-name="Grupo 563014" transform="translate(18.305 40.846)">
            <path id="Trazado_197538" data-name="Trazado 197538" d="M360.645,1515.375h-.06a.819.819,0,0,1-.828-.876l3.29-32.859,2.871.256-4.724,33.035A.535.535,0,0,1,360.645,1515.375Z" transform="translate(-359.753 -1481.64)" fill="#7ea2e7"/>
          </g>
          <g id="Grupo_563015" data-name="Grupo 563015" transform="translate(45.716 40.846)">
            <path id="Trazado_197539" data-name="Trazado 197539" d="M566.566,1515.375h.06a.819.819,0,0,0,.828-.876l-3.29-32.859-2.871.256,4.724,33.035A.534.534,0,0,0,566.566,1515.375Z" transform="translate(-561.293 -1481.64)" fill="#7ea2e7"/>
          </g>
          <path id="Trazado_197540" data-name="Trazado 197540" d="M228.359,1217.51l-3.123-27.444c-.409-3.955.914-7.827,6.621-8.127l10.04-.612c5.951-.245,8.638,4.707,9.391,8.52l5.96,30.167Z" transform="translate(-225.168 -1181.319)" fill="#7ea2e7"/>
          <path id="Rectángulo_41143" data-name="Rectángulo 41143" d="M2.63,0H45.187a2.63,2.63,0,0,1,2.63,2.63V5.26a0,0,0,0,1,0,0H2.63A2.63,2.63,0,0,1,0,2.63v0A2.63,2.63,0,0,1,2.63,0Z" transform="translate(51.059 41.326) rotate(180)" fill="#7ea2e7"/>
          <path id="Rectángulo_41144" data-name="Rectángulo 41144" d="M2.63,0H26.21a2.63,2.63,0,0,1,2.63,2.63V5.26a0,0,0,0,1,0,0H2.63A2.63,2.63,0,0,1,0,2.63v0A2.63,2.63,0,0,1,2.63,0Z" transform="translate(32.082 41.326) rotate(180)" fill="#7ea2e7"/>
        </g>
      </g>
      <path id="Rectángulo_41145" data-name="Rectángulo 41145" d="M.815,0H396.973a.815.815,0,0,1,.815.815v0a.815.815,0,0,1-.815.815H.815A.815.815,0,0,1,0,.815v0A.815.815,0,0,1,.815,0Z" transform="translate(917.212 4982.142)" fill="#333854"/>
    </g>
  </g>
</svg>
