<svg xmlns="http://www.w3.org/2000/svg" width="139.763" height="110.561" viewBox="0 0 139.763 110.561">
  <g id="Grupo_564513" data-name="Grupo 564513" transform="translate(-389.428 -7526.813)">
    <path id="Trazado_197872" data-name="Trazado 197872" d="M-10532-3883.857l-.033-110.375,110.518-.173,29.245,53.309-30.194,57.252Z" transform="translate(10921.463 11521.217)" fill="#8b7cf7"/>
    <g id="Grupo_562038" data-name="Grupo 562038" transform="translate(404.81 7541.554)">
      <path id="Trazado_194632" data-name="Trazado 194632" d="M301.233,10100.568c-1.468,1.631-2.873,3.325-4.425,4.87a2.576,2.576,0,0,1-3.565-.06c-3.165-3.012-6.29-6.068-9.413-9.126a2.549,2.549,0,0,1-.653-2.612.961.961,0,0,0-.326-1.064c-.906-.971-1.773-1.979-2.54-2.841-1.754.913-3.138,1.784-4.63,2.386a17.8,17.8,0,0,1-19.663-4.286,1.607,1.607,0,0,0-1.3-.534q-13.318.018-26.637,0a11.62,11.62,0,0,1-10.12-17.689q6.832-11.8,13.641-23.615c2.9-5.025,5.776-10.067,8.715-15.07a11.639,11.639,0,0,1,20.29.109q5.55,9.574,11.073,19.165c1.6,2.774,3.194,5.558,4.822,8.318a2.657,2.657,0,0,0,.962.955,18,18,0,0,1,7.354,24.552c-.229.426-.265.7.131,1.058.981.893,1.9,1.855,2.878,2.75a1.209,1.209,0,0,0,.847.276,3.172,3.172,0,0,1,2.714.941c2.927,2.861,5.879,5.7,8.8,8.568a10.18,10.18,0,0,1,1.042,1.453Zm-34.645-43.05c-.123-.25-.205-.451-.311-.636q-6.274-10.874-12.554-21.745c-1.659-2.864-4.936-2.832-6.607.051q-3.531,6.1-7.047,12.2c-5.028,8.709-10.069,17.408-15.054,26.14a4.853,4.853,0,0,0-.667,2.568c.134,1.989,1.7,3.209,3.836,3.212q11.282.01,22.563,0a5.233,5.233,0,0,0,.531-.046l-.339-5.479c-2.556-.215-3.936-1.134-4.481-3.011a4.124,4.124,0,0,1,1.449-4.446c1.513-1.176,3.246-1.12,5.415.2A18.3,18.3,0,0,1,266.587,10057.519Zm6.328.2c-.112-.229-.165-.354-.232-.469-4.835-8.376-9.655-16.762-14.527-25.117a9.38,9.38,0,0,0-2.082-2.441,8.9,8.9,0,0,0-13.435,2.526c-3.17,5.414-6.283,10.859-9.42,16.292q-6.467,11.2-12.937,22.4a8.969,8.969,0,0,0,7.78,13.737c8.244.022,16.487.007,24.731,0,.2,0,.408-.029.683-.052a17.126,17.126,0,0,1-.887-1.863c-.216-.637-.571-.788-1.218-.787q-11.661.037-23.319.009a6.232,6.232,0,0,1-5.5-9.519q11.164-19.4,22.381-38.77a6.23,6.23,0,0,1,10.99-.032c.788,1.331,1.55,2.679,2.324,4.019q5.491,9.514,10.991,19.021c.165.284.432.651.7.7C270.88,10057.554,271.846,10057.608,272.915,10057.721Zm11.483,17.635a15.375,15.375,0,1,0-15.3,15.418A15.375,15.375,0,0,0,284.4,10075.355Zm5.061,15.536-3.811,3.449,9.166,8.89,3.815-3.442Zm-7.483-2.952.279-.117,2.835,3.1,1.016-.947-.207.164-2.956-3.271Zm-30.056-18.354a1.487,1.487,0,0,0-1.489-1.451,1.469,1.469,0,1,0,1.489,1.451Z" transform="translate(-216.232 -10025.048)" fill="#fff"/>
      <path id="Trazado_194633" data-name="Trazado 194633" d="M252.855,10053.151c-.1,2.568-.2,5.137-.3,7.7a3.51,3.51,0,0,1-7.019.078q-.321-7.66-.581-15.322a3.467,3.467,0,0,1,3.423-3.706,7.4,7.4,0,0,1,2.526.27,3.4,3.4,0,0,1,2.207,3.607q-.137,3.686-.265,7.371Zm-2.652-.14h-.013c.087-2.43.179-4.856.26-7.285.03-.916-.259-1.181-1.261-1.194-1.256-.019-1.612.216-1.579,1.137.176,4.965.372,9.931.553,14.9.021.59.191,1.091.846,1.1.7.014.883-.5.9-1.129C250,10058.033,250.1,10055.522,250.2,10053.012Z" transform="translate(-214.839 -10024.23)" fill="#fff"/>
      <path id="Trazado_194634" data-name="Trazado 194634" d="M280.36,10073.664a13.168,13.168,0,1,1-13.206-13.16A13.2,13.2,0,0,1,280.36,10073.664Zm-2.656-.014a10.513,10.513,0,1,0-10.522,10.568A10.519,10.519,0,0,0,277.7,10073.65Z" transform="translate(-214.399 -10023.327)" fill="#fff"/>
    </g>
  </g>
</svg>
