<svg id="Grupo_562039" data-name="Grupo 562039" xmlns="http://www.w3.org/2000/svg" width="84.152" height="78.666" viewBox="0 0 84.152 78.666">
  <g id="Grupo_560040" data-name="Grupo 560040">
    <path id="Trazado_194908" data-name="Trazado 194908" d="M318.749,687.513c-1.094,2.6-2.051,3.231-4.863,3.231q-5.175,0-10.349,0c-2.847,0-4.407-1.573-4.418-4.43,0-1.062,0-2.124,0-3.256H288.192c-.22,0-.44.011-.657-.007a1.32,1.32,0,0,1-1.342-1.363,1.265,1.265,0,0,1,1.423-1.252c2.382-.014,4.764-.006,7.146-.006h4.356c0-1.437.083-2.806-.016-4.161-.264-3.6,1.775-5.465,5.175-5.184,1.058.087,2.129.014,3.182.014a4.042,4.042,0,0,0-4.041-5.288q-19.589-.01-39.179,0c-.274,0-.549.011-.822,0a1.315,1.315,0,0,1-1.4-1.382,1.277,1.277,0,0,1,1.424-1.256c.9-.021,1.807-.007,2.71-.007,12.348,0,24.7.036,37.044-.022a6.664,6.664,0,0,1,6.763,4.778,24.673,24.673,0,0,1,.385,3.183c1.062,0,2.18.07,3.285-.015,2.483-.191,4.244.72,5.121,3.123Zm-2.628-6.573c0-1.86,0-3.719,0-5.578,0-1.128-.477-1.636-1.568-1.639q-5.62-.016-11.239,0c-1.075,0-1.558.472-1.562,1.557q-.022,5.659,0,11.316c0,1.046.47,1.508,1.517,1.513q5.66.023,11.321,0c1.074,0,1.525-.5,1.53-1.589C316.126,684.659,316.12,682.8,316.12,680.94Z" transform="translate(-234.596 -654.654)" fill="#191973"/>
    <path id="Trazado_194909" data-name="Trazado 194909" d="M307.945,750.15a13.178,13.178,0,0,1-2.08-1.243,3.685,3.685,0,0,1-1.123-2.977c.011-1.2,0-2.395,0-3.655-.951,0-1.8.011-2.64,0a1.31,1.31,0,1,1-.04-2.611c.845-.023,1.692-.006,2.629-.006.019-.332.046-.619.047-.906.006-1.341-.01-2.682.006-4.024a3.917,3.917,0,0,1,4.214-4.2c1.39-.009,2.78,0,4.153,0,.606-3.291-1.191-5.493-4.4-5.494q-7.883,0-15.764,0c-1,0-1.534-.39-1.623-1.138a1.281,1.281,0,0,1,1.361-1.479c1.121-.032,2.245-.01,3.366-.01,4.188,0,8.377.076,12.562-.021a6.786,6.786,0,0,1,7.235,7.214c-.019.269,0,.541,0,.93,1.5,0,2.943.01,4.385,0a3.715,3.715,0,0,1,3.071,1.285,11.929,11.929,0,0,1,1.068,1.911v13.308a4.81,4.81,0,0,1-3.122,3.122Zm13.8-9.8c0-1.86,0-3.719,0-5.578,0-1.144-.438-1.622-1.573-1.627q-5.619-.027-11.238,0c-1.1,0-1.555.46-1.559,1.555q-.021,5.616,0,11.233c0,1.14.473,1.587,1.606,1.588q5.579.009,11.157,0c1.125,0,1.6-.476,1.606-1.592C321.753,744.067,321.747,742.208,321.747,740.349Z" transform="translate(-240.223 -671.485)" fill="#191973"/>
    <path id="Trazado_194910" data-name="Trazado 194910" d="M244.542,652.639a12.52,12.52,0,0,1,1.963,1.127,3.771,3.771,0,0,1,1.243,3.092c-.01,1.391,0,2.782,0,4.284.9,0,1.715-.009,2.527,0,1.02.015,1.63.536,1.6,1.348-.026.777-.634,1.281-1.593,1.3-.814.012-1.628,0-2.537,0,0,1.367,0,2.645,0,3.924-.006,3.015-1.536,4.546-4.542,4.548q-5.377,0-10.755,0a3.976,3.976,0,0,1-4.336-4.337c0-3.42.083-6.844-.029-10.261-.081-2.465.78-4.175,3.149-5.022Zm.579,9.83c0-1.806.006-3.612,0-5.418-.006-1.358-.426-1.782-1.756-1.782q-5.46,0-10.921,0c-1.239,0-1.7.448-1.7,1.667q-.007,5.5,0,11c0,1.235.44,1.7,1.669,1.709q5.5.019,11,0c1.268,0,1.7-.461,1.7-1.763C245.127,666.081,245.12,664.274,245.121,662.469Z" transform="translate(-228.08 -652.639)" fill="#191973"/>
    <path id="Trazado_194911" data-name="Trazado 194911" d="M289.3,712.214c-1.158-.416-2.154-.718-3.1-1.134a1.514,1.514,0,0,0-1.694.22c-1.067.745-2.267,1.3-3.384,1.976a1.477,1.477,0,0,0-.642.786c-.224.9-.345,1.824-.506,2.74-.175,1-.6,1.389-1.593,1.4q-2.217.021-4.433,0a1.376,1.376,0,0,1-1.523-1.291c-.175-.94-.295-1.893-.521-2.821a1.48,1.48,0,0,0-.626-.8q-1.839-1.142-3.739-2.18a1.358,1.358,0,0,0-.94-.133c-.915.272-1.8.638-2.7.954a1.348,1.348,0,0,1-1.929-.68q-1.1-1.871-2.177-3.762a1.361,1.361,0,0,1,.349-2.08c.726-.625,1.489-1.208,2.183-1.866a1.387,1.387,0,0,0,.353-.892q.055-2.163,0-4.328a1.386,1.386,0,0,0-.355-.891c-.694-.658-1.458-1.24-2.182-1.866a1.337,1.337,0,0,1-.383-2.008q1.086-1.931,2.21-3.839a1.359,1.359,0,0,1,1.929-.693c1,.356,2.025,1.074,2.992,1,.9-.065,1.746-.961,2.619-1.485a2.244,2.244,0,0,1,.652-.339,2.367,2.367,0,0,0,2.009-2.6,9.4,9.4,0,0,1,.243-1.37c.2-1.109.6-1.462,1.7-1.468q2.093-.011,4.187,0c1.079.006,1.5.362,1.679,1.392.162.915.284,1.84.509,2.74a1.483,1.483,0,0,0,.637.79q1.84,1.138,3.74,2.177a1.355,1.355,0,0,0,.94.129c.939-.286,1.852-.658,2.775-1a1.352,1.352,0,0,1,1.815.646c.77,1.323,1.529,2.653,2.3,3.977a1.332,1.332,0,0,1-.368,1.883c-.756.63-1.531,1.243-2.245,1.918a1.38,1.38,0,0,0-.352.891q-.052,2.163,0,4.328a1.378,1.378,0,0,0,.335.9c.716.674,1.506,1.269,2.249,1.914a1.315,1.315,0,0,1,.344,1.951c-.738,1.31-1.47,2.625-2.276,3.893A4.77,4.77,0,0,1,289.3,712.214Zm-14.425-26.8c-.17.951-.366,1.884-.494,2.826a1.793,1.793,0,0,1-1.42,1.68,9.809,9.809,0,0,0-4.294,2.466,1.774,1.774,0,0,1-2.155.4c-.891-.377-1.819-.669-2.723-1-.392.665-.7,1.245-1.065,1.79-.258.386-.17.613.173.881.69.539,1.34,1.129,2.022,1.677a1.456,1.456,0,0,1,.558,1.6,11.214,11.214,0,0,0-.01,5.442,1.463,1.463,0,0,1-.529,1.608c-.7.57-1.4,1.145-2.061,1.757a.737.737,0,0,0-.2.647c.33.677.736,1.317,1.12,1.979.977-.354,1.891-.641,2.769-1.016a1.713,1.713,0,0,1,2.079.4,9.561,9.561,0,0,0,4.207,2.455,1.86,1.86,0,0,1,1.535,1.76c.113.936.325,1.859.491,2.777h2.63c.175-.981.359-1.943.511-2.91a1.709,1.709,0,0,1,1.332-1.564,10.277,10.277,0,0,0,4.493-2.609,1.53,1.53,0,0,1,1.79-.372c.964.373,1.943.71,2.963,1.079l1.318-2.3c-.84-.711-1.6-1.379-2.386-2.013a1.818,1.818,0,0,1-.606-1.815,19,19,0,0,0,.081-4.55,2.709,2.709,0,0,1,1.113-2.943c1.96-1.524,1.921-1.576.532-3.645-.014-.021-.044-.031-.125-.086-.906.324-1.864.633-2.793,1.011a1.633,1.633,0,0,1-1.935-.389,10.04,10.04,0,0,0-4.358-2.519,1.775,1.775,0,0,1-1.431-1.665c-.124-.946-.324-1.882-.494-2.846Z" transform="translate(-234.105 -661.149)" fill="#009ee3"/>
    <path id="Trazado_194912" data-name="Trazado 194912" d="M239.271,706.793c1.449,0,2.786,0,4.123,0a4,4,0,0,1,4.357,4.33c.01,1.306,0,2.614,0,4.013H258.33c.192,0,.384,0,.575,0,.967.023,1.563.521,1.567,1.308s-.579,1.313-1.546,1.316c-2.956.009-5.912,0-8.868,0h-2.3c0,1.423.016,2.756-.007,4.088a7.1,7.1,0,0,1-.167,1.706,3.9,3.9,0,0,1-3.862,2.862c-3.859.027-7.719.036-11.577,0a3.927,3.927,0,0,1-4.016-4.085q-.018-5.706,0-11.413a3.942,3.942,0,0,1,4.062-4.121c1.445-.031,2.891-.006,4.443-.006V705.75c0-3.969-.027-7.938.008-11.906a9.127,9.127,0,0,1,7.837-9.2,9.4,9.4,0,0,1,1.554-.1q6.815-.01,13.631,0a3.385,3.385,0,0,1,.573.022,1.2,1.2,0,0,1,1.08,1.071,1.181,1.181,0,0,1-.773,1.382,2.979,2.979,0,0,1-1.042.147c-4.434.009-8.868,0-13.3.007a6.5,6.5,0,0,0-6.919,6.866c-.009,3.968,0,7.937,0,11.906Zm-8.523,9.777c0,1.889-.007,3.777,0,5.666a1.364,1.364,0,0,0,1.56,1.563q5.625.018,11.249,0c1.07,0,1.555-.487,1.559-1.568q.022-5.622,0-11.245c0-1.088-.473-1.555-1.564-1.559q-5.621-.021-11.244,0c-1.122,0-1.559.486-1.563,1.641C230.744,712.9,230.748,714.736,230.748,716.569Z" transform="translate(-228.086 -662.094)" fill="#191973"/>
    <path id="Trazado_194913" data-name="Trazado 194913" d="M277.6,745.307q1.595,1.185,3.187,2.372a3.673,3.673,0,0,1,.686.581,1.2,1.2,0,0,1,.019,1.589,1.177,1.177,0,0,1-1.531.4,2.8,2.8,0,0,1-.488-.3q-3.379-2.471-6.753-4.951a1.324,1.324,0,0,1,.024-2.313q3.339-2.457,6.685-4.905c.827-.605,1.631-.564,2.094.086s.267,1.409-.562,2.029a41.2,41.2,0,0,0-3.309,2.635h.855q6.695,0,13.389,0a3.084,3.084,0,0,1,.89.087,1.189,1.189,0,0,1,.918,1.294,1.241,1.241,0,0,1-1.128,1.216,4.572,4.572,0,0,1-.738.019H277.664Z" transform="translate(-236.524 -674.359)" fill="#191973"/>
    <path id="Trazado_194914" data-name="Trazado 194914" d="M318.338,685.217c.84-1.393,1.642-2.723,2.447-4.052a6.449,6.449,0,0,1,.444-.688,1.251,1.251,0,0,1,1.748-.324,1.181,1.181,0,0,1,.457,1.65q-1.766,3.051-3.658,6.027a1.189,1.189,0,0,1-1.751.282q-1.51-.909-2.977-1.891a1.274,1.274,0,0,1-.431-1.851,1.323,1.323,0,0,1,1.885-.322C317.107,684.407,317.692,684.8,318.338,685.217Z" transform="translate(-244.652 -659.467)" fill="#009ee3"/>
    <path id="Trazado_194915" data-name="Trazado 194915" d="M318.344,744.644c.925-1.525,1.784-2.95,2.653-4.369.536-.873,1.277-1.12,1.97-.674s.791,1.159.28,2.01q-1.6,2.67-3.231,5.323a1.341,1.341,0,0,1-2.19.517q-1.354-.848-2.685-1.733a1.31,1.31,0,1,1,1.4-2.192C317.122,743.874,317.693,744.24,318.344,744.644Z" transform="translate(-244.652 -674.749)" fill="#009ee3"/>
    <path id="Trazado_194916" data-name="Trazado 194916" d="M238.526,664.858l2.388-3.949c.142-.234.275-.474.432-.7a1.286,1.286,0,0,1,1.788-.444,1.313,1.313,0,0,1,.451,1.794c-.225.436-.5.846-.758,1.267-.865,1.426-1.727,2.855-2.6,4.277a1.362,1.362,0,0,1-2.191.542c-.9-.565-1.807-1.135-2.7-1.724a1.316,1.316,0,1,1,1.4-2.206C237.322,664.07,237.888,664.45,238.526,664.858Z" transform="translate(-229.328 -653.97)" fill="#009ee3"/>
    <path id="Trazado_194917" data-name="Trazado 194917" d="M278.422,694.98a7.85,7.85,0,1,1-7.959,7.715A7.874,7.874,0,0,1,278.422,694.98Zm5.111,7.815a5.222,5.222,0,1,0-5.21,5.258A5.265,5.265,0,0,0,283.533,702.794Z" transform="translate(-236.218 -663.496)" fill="#009ee3"/>
    <path id="Trazado_194918" data-name="Trazado 194918" d="M238.528,724.292c.8-1.323,1.573-2.6,2.349-3.885.155-.257.3-.522.478-.765a1.3,1.3,0,1,1,2.218,1.371c-.45.812-.952,1.6-1.433,2.39-.652,1.076-1.3,2.155-1.961,3.221a1.338,1.338,0,0,1-2.146.48q-1.354-.85-2.684-1.739a1.309,1.309,0,1,1,1.38-2.2C237.31,723.515,237.88,723.885,238.528,724.292Z" transform="translate(-229.327 -669.25)" fill="#009ee3"/>
  </g>
</svg>
