<svg xmlns="http://www.w3.org/2000/svg" width="68.51" height="66.497" viewBox="0 0 68.51 66.497">
  <g id="Grupo_562041" data-name="Grupo 562041" transform="translate(0)">
    <path id="Trazado_194896" data-name="Trazado 194896" d="M302,376.356a2.426,2.426,0,0,1-1.534-1.422,2.1,2.1,0,0,1,2.069-2.78c3.812-.013,7.624-.008,11.436,0,1.835,0,1.7.129,1.7-1.7q-.006-5.719,0-11.436a2.1,2.1,0,0,1,4.041-.887c.057.117.108.236.163.354v13.934a4.94,4.94,0,0,1-1.7,2.8,18.741,18.741,0,0,1-2.248,1.144Z" transform="translate(-251.374 -309.859)" fill="#0f2771"/>
    <path id="Trazado_194897" data-name="Trazado 194897" d="M319.886,306.379a2.331,2.331,0,0,1-1.548,1.569,2.1,2.1,0,0,1-2.655-2.107q-.018-5.717,0-11.434c0-1.834.132-1.7-1.7-1.7q-5.684.005-11.369,0a2.109,2.109,0,0,1-2.171-2.659,2.314,2.314,0,0,1,1.569-1.545h13.935a4.9,4.9,0,0,1,2.756,1.646,19.75,19.75,0,0,1,1.188,2.3Z" transform="translate(-251.376 -288.5)" fill="#0f2771"/>
    <path id="Trazado_194898" data-name="Trazado 194898" d="M232.031,358.477a2.206,2.206,0,0,1,2.061-1.643,2.107,2.107,0,0,1,2.143,2.24c.008,3.329,0,6.659,0,9.988,0,.723,0,1.446,0,2.169,0,.808.108.917.906.917,4.053,0,8.1,0,12.158,0a2.11,2.11,0,0,1,2.176,2.655,2.346,2.346,0,0,1-1.568,1.549H235.974a19.678,19.678,0,0,1-2.3-1.188,4.9,4.9,0,0,1-1.646-2.756Z" transform="translate(-232.031 -309.858)" fill="#0f2771"/>
    <path id="Trazado_194899" data-name="Trazado 194899" d="M249.91,288.5a2.334,2.334,0,0,1,1.569,1.549A2.109,2.109,0,0,1,249.3,292.7q-5.651.012-11.3,0c-.307,0-.615.018-.92,0-.623-.044-.857.231-.852.852.019,2.453.008,4.906.008,7.36q0,2.365,0,4.732a2.161,2.161,0,0,1-1.62,2.317,2.109,2.109,0,0,1-2.492-1.418c-.027-.057-.063-.111-.094-.167V292.444a4.9,4.9,0,0,1,1.645-2.757,19.622,19.622,0,0,1,2.3-1.187Z" transform="translate(-232.031 -288.5)" fill="#0f2771"/>
    <path id="Trazado_194900" data-name="Trazado 194900" d="M271.152,358.094H250.91c-1.776,0-2.585-.81-2.552-2.547a22.49,22.49,0,0,1,19.618-21.6c12.685-1.78,24.562,7.166,25.913,19.527.083.761.124,1.528.141,2.293a2.12,2.12,0,0,1-2.366,2.329Q281.407,358.1,271.152,358.094Zm18.379-4.241c-.6-7.593-7.764-15.911-18.338-15.906s-17.752,8.341-18.332,15.906Z" transform="translate(-236.94 -302.694)" fill="#26a0df"/>
    <path id="Trazado_194901" data-name="Trazado 194901" d="M275.527,319.015A10.64,10.64,0,1,1,286.22,308.4,10.663,10.663,0,0,1,275.527,319.015Zm.077-4.207a6.432,6.432,0,1,0-6.457-6.42A6.456,6.456,0,0,0,275.6,314.808Z" transform="translate(-241.326 -291.276)" fill="#26a0df"/>
  </g>
</svg>
