<svg xmlns="http://www.w3.org/2000/svg" xmlns:xlink="http://www.w3.org/1999/xlink" width="293.649" height="565.881" viewBox="0 0 293.649 565.881">
  <defs>
    <linearGradient id="linear-gradient" x1="1.082" y1="0.125" x2="0.693" y2="1.126" gradientUnits="objectBoundingBox">
      <stop offset="0" stop-color="#f47b54"/>
      <stop offset="0.165" stop-color="#f68a63"/>
      <stop offset="0.445" stop-color="#f99e77"/>
      <stop offset="0.724" stop-color="#fbaa83"/>
      <stop offset="1" stop-color="#fcae88"/>
    </linearGradient>
    <linearGradient id="linear-gradient-2" x1="-0.091" y1="0.478" x2="0.61" y2="1.095" xlink:href="#linear-gradient"/>
    <linearGradient id="linear-gradient-3" x1="0.919" y1="1.964" x2="0.054" y2="1.971" gradientUnits="objectBoundingBox">
      <stop offset="0" stop-color="#f47b54"/>
      <stop offset="0.055" stop-color="#f68760"/>
      <stop offset="0.132" stop-color="#f79069"/>
      <stop offset="0.244" stop-color="#f8936c"/>
      <stop offset="1" stop-color="#fcae88"/>
    </linearGradient>
  </defs>
  <g id="Grupo_564489" data-name="Grupo 564489" transform="translate(-285 -6150.277)">
    <g id="Grupo_561117" data-name="Grupo 561117" transform="translate(285 6150.277)">
      <g id="bg" transform="translate(0 541.374)">
        <path id="Trazado_195382" data-name="Trazado 195382" d="M1674.289,953.491c0,6.767,49.165,12.253,109.814,12.253s109.815-5.486,109.815-12.253-49.166-12.253-109.815-12.253S1674.289,946.724,1674.289,953.491Z" transform="translate(-1674.289 -941.238)" fill="#ccedeb"/>
      </g>
      <g id="doctor" transform="translate(3.705 0)">
        <path id="Trazado_195383" data-name="Trazado 195383" d="M1964.968,284.008l-25.759,91.945,38.713,42.416Z" transform="translate(-1927.196 -152.468)" fill="#e6e7e8"/>
        <g id="Grupo_561067" data-name="Grupo 561067" transform="translate(149.424 126.185)">
          <g id="Grupo_561066" data-name="Grupo 561066" transform="translate(0.001)">
            <path id="Trazado_195384" data-name="Trazado 195384" d="M1632.386,326.839s13.82,24.852,0,39.961C1625.344,362.761,1619.579,347.471,1632.386,326.839Z" transform="translate(-1541.165 -294.776)" fill="#b5b6b6"/>
            <path id="Trazado_195385" data-name="Trazado 195385" d="M1555.586,338.477s10.694-9.938,11.241-12.208c.894-3.718,3.042-7.881,12.3-9.1,3.744-.733,5.749-3.9,7.724-5.172,1.172-.758,4.687,1.063,2.343,4.259-2.343,2.343-6.177,5.325-6.177,5.325s9.041,1.382,22.124-6.752c2.832-1.76,1.935,5.025,5.777,4.836,4.771-.236-1.588,7.808-16.283,9.938,1.6,2.461,13.515-4.188,13.088-1.207-1.46,1.247-7.86,12.6-31.077,9.613-.425,1.278-18.075,19.849-18.075,19.849Z" transform="translate(-1471.959 -289.125)" fill="#fcae88"/>
            <path id="Trazado_195386" data-name="Trazado 195386" d="M1722.813,342.5a13.3,13.3,0,0,0,3.049,4.94s-11.771,12.725-25.512,26.8c-17.012,17.435-36.461,26.424-40.879,26.424-4.472,0-9.008-5.161-12.958-11.689-6.8-11.232-11.852-26.506-11.852-26.506s-.037-4.077-.014-10.46c.087-23.194,12.027-76.6,12.027-76.6l25.665,79.533,53.519-47.462,0,0a102.9,102.9,0,0,0-3.326,13.179C1721.243,327.782,1720.543,336.342,1722.813,342.5Z" transform="translate(-1634.64 -275.421)" fill="#f1f2f2"/>
          </g>
          <path id="Trazado_195387" data-name="Trazado 195387" d="M1752.552,391.043s5.058,15.275,11.854,26.5a43.515,43.515,0,0,0,5.834,7.853l-14.685-74.091c-1.712,11.032-2.987,21.747-3.018,29.273C1752.514,386.966,1752.552,391.043,1752.552,391.043Z" transform="translate(-1752.53 -303.987)" fill="#b5b6b6"/>
        </g>
        <g id="Grupo_561074" data-name="Grupo 561074" transform="translate(43.769 263.103)">
          <g id="Grupo_561070" data-name="Grupo 561070" transform="translate(71.83 251.875)">
            <path id="Trazado_195388" data-name="Trazado 195388" d="M1810.467,924.317l1.056-25.408h-13.676l-1.058,25.408Z" transform="translate(-1787.587 -898.908)" fill="#0e131a"/>
            <g id="Grupo_561069" data-name="Grupo 561069" transform="translate(0 13.245)">
              <path id="Trazado_195389" data-name="Trazado 195389" d="M1797.127,944.861h-62.1s-1.438-5.2-.726-8.511a3.009,3.009,0,0,1,2.009-2.585c0-4.054,1.919-12.377,7.892-13.443a.017.017,0,0,1,0,.008c-.039.288-1.09,8.617,11.743-.008,3.188-2.143,21.279,16.2,34.566,16,3.109-.045,4.877,3.09,5.789,5.574A18.311,18.311,0,0,1,1797.127,944.861Z" transform="translate(-1734.102 -920.149)" fill="#866c57"/>
              <path id="Trazado_195390" data-name="Trazado 195390" d="M1828.874,920.435c-.18.248-7.036,9.891-4.086,17.163a17.32,17.32,0,0,1-5.811-1.142,3.008,3.008,0,0,1,2.009-2.585c0-4.055,1.919-12.377,7.892-13.443A.017.017,0,0,1,1828.874,920.435Z" transform="translate(-1818.777 -920.254)" fill="#9e8979"/>
              <rect id="Rectángulo_40904" data-name="Rectángulo 40904" width="62.1" height="1.382" transform="translate(0.925 24.713)" fill="#474849"/>
              <path id="Trazado_195391" data-name="Trazado 195391" d="M1797.129,953.081h-62.1s-2.774-10.028,1.282-11.1c0,0,37.936,15.165,59.987,8.128A18.311,18.311,0,0,1,1797.129,953.081Z" transform="translate(-1734.104 -928.369)" fill="#655141"/>
              <g id="Grupo_561068" data-name="Grupo 561068" transform="translate(27.458 6.494)">
                <path id="Trazado_195392" data-name="Trazado 195392" d="M1789.467,931.949a1.386,1.386,0,1,1-1.386-1.386A1.386,1.386,0,0,1,1789.467,931.949Z" transform="translate(-1786.694 -930.563)" fill="#43362c"/>
                <path id="Trazado_195393" data-name="Trazado 195393" d="M1782.223,935.883a1.388,1.388,0,1,1-1.387-1.388A1.388,1.388,0,0,1,1782.223,935.883Z" transform="translate(-1774.932 -932.043)" fill="#43362c"/>
                <path id="Trazado_195394" data-name="Trazado 195394" d="M1774.976,939.82a1.387,1.387,0,1,1-1.387-1.386A1.391,1.391,0,0,1,1774.976,939.82Z" transform="translate(-1763.166 -933.526)" fill="#43362c"/>
              </g>
              <path id="Trazado_195395" data-name="Trazado 195395" d="M1747.073,948.254c0,.525-1.049.955-2.345.955s-2.347-.43-2.347-.955,1.049-.953,2.347-.953S1747.073,947.729,1747.073,948.254Z" transform="translate(-1689.209 -930.369)" fill="#b6a79a"/>
            </g>
          </g>
          <g id="Grupo_561073" data-name="Grupo 561073" transform="translate(1.951 251.083)">
            <path id="Trazado_195396" data-name="Trazado 195396" d="M1925.642,923.839l1.464-26.2h-13.68l-1.461,26.2Z" transform="translate(-1905.111 -897.639)" fill="#0e131a"/>
            <g id="Grupo_561072" data-name="Grupo 561072" transform="translate(0 12.267)">
              <path id="Trazado_195397" data-name="Trazado 195397" d="M1887.074,943.513s22.53,1.662,37.513,0a.107.107,0,0,1-.017-.017c-.029-.033-.094-.1-.182-.2a44.991,44.991,0,0,1-8.04-8.475c-4.544-6.286-7.47-22.446-16.023-16.033a47.035,47.035,0,0,1-8.687,5.971l-3.365,13.84Z" transform="translate(-1887.071 -917.31)" fill="#866c57"/>
              <path id="Trazado_195398" data-name="Trazado 195398" d="M1887.074,955s22.53,1.662,37.513,0a.11.11,0,0,1-.017-.017c-.029-.033-.094-.1-.182-.2-1.623-1.639-13.162-12.333-32.452-3.483a17.51,17.51,0,0,1-3.664-1.213Z" transform="translate(-1887.071 -928.802)" fill="#655141"/>
              <rect id="Rectángulo_40905" data-name="Rectángulo 40905" width="37.513" height="1.665" transform="translate(0 26.2)" fill="#474849"/>
              <g id="Grupo_561071" data-name="Grupo 561071" transform="translate(6.547 7.579)">
                <path id="Trazado_195399" data-name="Trazado 195399" d="M1931.985,936.369c0,.844-.395,1.53-.884,1.53s-.884-.686-.884-1.53.4-1.531.884-1.531S1931.985,935.524,1931.985,936.369Z" transform="translate(-1927.919 -931.488)" fill="#43362c"/>
                <path id="Trazado_195400" data-name="Trazado 195400" d="M1935.67,930.995c0,.846-.392,1.532-.882,1.532s-.887-.686-.887-1.532.4-1.53.887-1.53S1935.67,930.15,1935.67,930.995Z" transform="translate(-1933.902 -929.465)" fill="#43362c"/>
              </g>
            </g>
          </g>
          <path id="Trazado_195401" data-name="Trazado 195401" d="M1788.8,494.99l-12.49,265.119,33.962.272c14.7-112.144,25.776-220.826,25.776-220.826s7.3,149.028,12.292,220.826h33.137l3.371-265.391Z" transform="translate(-1776.308 -494.99)" fill="#414042"/>
          <path id="Trazado_195402" data-name="Trazado 195402" d="M1878.413,499.361,1876.7,634.714a170.228,170.228,0,0,1-42.133,1.62c-2.762-51.571-4.909-95.4-4.909-95.4s-3.941,38.672-10.238,93.678a274.164,274.164,0,0,1-43.043-10.144l5.4-114.588,52.541-11.21S1855.1,498.593,1878.413,499.361Z" transform="translate(-1769.915 -496.375)" fill="#313032"/>
        </g>
        <path id="Trazado_195403" data-name="Trazado 195403" d="M1808.6,244.683l-21.385,30.459-1.952,55.866,12.418,79.16h65.752l9.6-89.055-3.451-40.924-17.751-35.507Z" transform="translate(-1726.313 -137.665)" fill="#abe2fc"/>
        <g id="Grupo_561091" data-name="Grupo 561091" transform="translate(68.134)">
          <path id="Trazado_195404" data-name="Trazado 195404" d="M1826.888,233.993l31.938-1.485,2.377-36.356-29.772-7.236Z" transform="translate(-1808.572 -116.674)" fill="url(#linear-gradient)"/>
          <g id="Grupo_561090" data-name="Grupo 561090" transform="translate(0)">
            <path id="Trazado_195405" data-name="Trazado 195405" d="M1888.69,99.933s-3.348-10.994,6.307-14.327c-1.616,1.452-6.982,6.336-2.434,13.034C1890.2,99.464,1888.69,99.933,1888.69,99.933Z" transform="translate(-1880.554 -77.786)" fill="#482b0e"/>
            <path id="Trazado_195406" data-name="Trazado 195406" d="M1797.564,134.381q.14,2.808.5,5.7a69.389,69.389,0,0,0,2.557,11.653c.332,1.078.69,2.126,1.072,3.15l.007,0c.183.491.371.975.564,1.46.594,1.488,1.247,2.916,1.935,4.291,6.209,12.41,15.934,20.067,25.8,18.785,9.679-1.253,17.053-10.843,19.991-24.081a58.067,58.067,0,0,0,1.089-6.852l0-.019c.1-1.1.182-2.2.234-3.322a68.29,68.29,0,0,0-.5-11.917c-.249-1.934-.582-3.829-.98-5.665-.023-.118-.031-.17-.031-.17a60.667,60.667,0,0,0-6.946-18.063c-6.2-10.413-15.034-16.6-23.971-15.435-7.151.93-13.037,6.39-16.81,14.5C1798.777,115.457,1797.092,124.53,1797.564,134.381Z" transform="translate(-1780.411 -80.851)" fill="url(#linear-gradient-2)"/>
            <path id="Trazado_195407" data-name="Trazado 195407" d="M1811.168,108.391c9.449,3.753,22.965,5.849,40.781.934-6.2-10.413-15.034-16.6-23.971-15.435C1820.827,94.819,1814.94,100.279,1811.168,108.391Z" transform="translate(-1789.513 -80.851)" fill="#f28a83" opacity="0.3"/>
            <path id="Trazado_195408" data-name="Trazado 195408" d="M1846.769,180.944l.008.016a58.7,58.7,0,0,1-1.091,6.856c-2.938,13.234-7.035,22.612-19.572,25.179-10.5,2.149-27.288-1.68-27.3-19.908a10.834,10.834,0,0,0-.853-4.268s6.367-3.543,8.731-3.67C1816.756,184.613,1834.056,177.59,1846.769,180.944Z" transform="translate(-1776.109 -113.333)" fill="#482b0e"/>
            <g id="Grupo_561075" data-name="Grupo 561075" transform="translate(0 14.034)">
              <path id="Trazado_195409" data-name="Trazado 195409" d="M1862.566,110.079c-3.447,9.271,21.528,46.944,21.528,46.944l8.733-3.67s-25.887-26.283-1.079-47.833c2.955-2.567-8.876-10.976-12.172-9.847C1877.408,96.411,1864.672,104.415,1862.566,110.079Z" transform="translate(-1862.24 -95.57)" fill="#482b0e"/>
              <path id="Trazado_195410" data-name="Trazado 195410" d="M1863.024,101.918a35.8,35.8,0,0,0,18.1,7.014,9.372,9.372,0,0,1,3.43-3.407c3.408-1.926-8.877-10.976-12.173-9.848C1871.2,96.081,1867.116,98.79,1863.024,101.918Z" transform="translate(-1855.042 -95.574)" fill="#36200b"/>
            </g>
            <g id="Grupo_561076" data-name="Grupo 561076" transform="translate(5.485 51.456)">
              <path id="Trazado_195411" data-name="Trazado 195411" d="M1878.127,169.657c3.493,5.373,8.85,8.084,11.969,6.058s2.825-8.027-.666-13.4-8.85-8.09-11.969-6.059S1874.637,164.283,1878.127,169.657Z" transform="translate(-1875.3 -155.582)" fill="#fcae88"/>
              <path id="Trazado_195412" data-name="Trazado 195412" d="M1891.516,163.863s-12.609,0,1.268,9.765C1892.509,171.562,1887.1,170.28,1891.516,163.863Z" transform="translate(-1882.666 -158.699)" fill="#f09261"/>
            </g>
            <path id="Trazado_195413" data-name="Trazado 195413" d="M1836.356,102.611s50.3-3.6.906-29.546c4.012,10.531-25.7-13.519-36.633,18.4C1804.692,98.016,1818.72,105,1836.356,102.611Z" transform="translate(-1789.975 -73.065)" fill="#482b0e"/>
            <path id="Trazado_195414" data-name="Trazado 195414" d="M1829.8,197.363c-.377-2.581-3.581-.073-7.891.559s-8.1-.85-7.72,1.731,4.526,6.513,8.836,5.88S1830.178,199.943,1829.8,197.363Z" transform="translate(-1769.263 -119.423)" fill="#f1f2f2"/>
            <g id="Grupo_561077" data-name="Grupo 561077" transform="translate(30.028 35.409)">
              <path id="Trazado_195415" data-name="Trazado 195415" d="M1848.123,134.721l.269,1.954,1.1-.149-.294-2.154,3.348-1.088s1.6,4.441.75,5.553c-2.335,3.065-15.268,2.069-15.268,2.069l-.378-2.778Z" transform="translate(-1837.648 -131.142)" fill="#482b0e"/>
              <path id="Trazado_195416" data-name="Trazado 195416" d="M1809.386,130.058l.265,1.952-1.1.149-.294-2.153-3.513-.158s-.362,4.7.754,5.554c3.064,2.333,15.267-2.07,15.267-2.07l-.375-2.776Z" transform="translate(-1784.322 -129.848)" fill="#482b0e"/>
            </g>
            <g id="Grupo_561083" data-name="Grupo 561083" transform="translate(31.814 49.102)">
              <g id="Grupo_561078" data-name="Grupo 561078" transform="translate(1.321)">
                <path id="Trazado_195417" data-name="Trazado 195417" d="M1837.475,157.715c.028-.087.052-.172.077-.255l.08.242,1.314,3.87a11.1,11.1,0,0,0,11.424-1.962l-.819-2.921v0c-.355-.437-.763-.9-1.206-1.37v0c-.133-.142-.272-.284-.412-.427-.157-.158-.321-.315-.484-.47-.064-.06-.128-.117-.189-.174s-.128-.117-.191-.174c-.323-.284-.654-.557-.995-.806-.134-.1-.274-.2-.41-.289s-.278-.18-.419-.266l-.209-.12c-.071-.041-.142-.08-.213-.117s-.145-.077-.218-.11c-.14-.067-.281-.132-.422-.188a5.221,5.221,0,0,0-.644-.214c-.065-.018-.131-.035-.2-.047a3.4,3.4,0,0,0-.446-.077c-.07-.009-.143-.014-.213-.02l-.123,0a1.02,1.02,0,0,0-.115,0,3.34,3.34,0,0,0-1.18.216,3.765,3.765,0,0,0-.369.166,4.852,4.852,0,0,0-1.748,1.659,8.117,8.117,0,0,0-.479.792,14.7,14.7,0,0,0-1.051,2.615c-.02.065-.042.132-.064.2Z" transform="translate(-1837.475 -151.807)" fill="#fff"/>
                <path id="Trazado_195418" data-name="Trazado 195418" d="M1840.717,157.46l.08.242c3.438-9.465,10.716-2.378,10.716-2.378s0,0,0-.008v0c-.133-.142-.273-.284-.412-.427-.157-.158-.321-.315-.485-.47-.064-.06-.128-.117-.189-.174s-.128-.117-.192-.174c-.322-.284-.653-.557-.995-.806-.134-.1-.274-.2-.41-.289s-.278-.18-.419-.266l-.209-.12c-.071-.041-.142-.08-.213-.117s-.145-.077-.218-.11c-.14-.067-.281-.132-.422-.188a5.217,5.217,0,0,0-.643-.214c-.065-.018-.132-.035-.2-.047a3.4,3.4,0,0,0-.446-.077c-.07-.009-.143-.014-.213-.02l-.124,0a1.018,1.018,0,0,0-.115,0,3.341,3.341,0,0,0-1.181.216,3.721,3.721,0,0,0-.369.166,4.849,4.849,0,0,0-1.749,1.659,8.117,8.117,0,0,0-.479.792,14.7,14.7,0,0,0-1.051,2.615C1840.753,157.321,1840.735,157.391,1840.717,157.46Z" transform="translate(-1840.64 -151.807)" fill="#482b0e"/>
              </g>
              <g id="Grupo_561081" data-name="Grupo 561081" transform="translate(5.045 2.267)">
                <g id="Grupo_561079" data-name="Grupo 561079" transform="translate(0)">
                  <path id="Trazado_195419" data-name="Trazado 195419" d="M1840.927,160.234a3.575,3.575,0,1,0,2.147-4.578A3.575,3.575,0,0,0,1840.927,160.234Z" transform="translate(-1840.713 -155.442)" fill="#603913"/>
                  <path id="Trazado_195420" data-name="Trazado 195420" d="M1841.546,158.213a3.574,3.574,0,0,0,6.437,3.018,3.575,3.575,0,1,1-6.437-3.018Z" transform="translate(-1841.028 -156.485)" fill="#482b0e"/>
                </g>
                <g id="Grupo_561080" data-name="Grupo 561080" transform="translate(2.229 1.781)">
                  <path id="Trazado_195421" data-name="Trazado 195421" d="M1843.33,160.563a1.676,1.676,0,1,0,1.007-2.146A1.676,1.676,0,0,0,1843.33,160.563Z" transform="translate(-1843.229 -158.305)" fill="#231f20"/>
                  <path id="Trazado_195422" data-name="Trazado 195422" d="M1845.241,158.879a.432.432,0,1,0,.259-.554A.432.432,0,0,0,1845.241,158.879Z" transform="translate(-1843.964 -158.298)" fill="#fff"/>
                </g>
              </g>
              <g id="Grupo_561082" data-name="Grupo 561082" transform="translate(0 6.303)">
                <path id="Trazado_195423" data-name="Trazado 195423" d="M1850.309,161.914l-16.506,2.559S1839.724,170.991,1850.309,161.914Z" transform="translate(-1833.803 -161.914)" fill="#fcae88"/>
                <path id="Trazado_195424" data-name="Trazado 195424" d="M1837.791,164.355c3.051,1.112,11.547-1.735,11.547-1.735l-.6.037Z" transform="translate(-1835.319 -162.18)" fill="#f28a83" opacity="0.3"/>
              </g>
            </g>
            <g id="Grupo_561089" data-name="Grupo 561089" transform="translate(52.5 45.197)">
              <g id="Grupo_561084" data-name="Grupo 561084" transform="translate(1.322)">
                <path id="Trazado_195425" data-name="Trazado 195425" d="M1804.3,151.454c.026-.086.052-.173.078-.255l.079.242,1.316,3.871a11.1,11.1,0,0,0,11.423-1.962l-.82-2.921v0c-.357-.437-.763-.9-1.207-1.371v0c-.133-.141-.271-.284-.41-.428-.158-.158-.322-.314-.484-.468-.065-.06-.129-.117-.19-.175l-.192-.174c-.323-.284-.654-.557-.994-.806-.135-.1-.276-.2-.412-.29s-.276-.179-.418-.266l-.211-.12c-.069-.041-.14-.08-.212-.117s-.145-.077-.217-.109c-.141-.069-.282-.132-.423-.188a5.381,5.381,0,0,0-.644-.214,2.009,2.009,0,0,0-.2-.046,3.383,3.383,0,0,0-.446-.077c-.07-.008-.142-.014-.213-.019l-.123-.005c-.038,0-.078,0-.116,0a3.311,3.311,0,0,0-1.18.217,3.85,3.85,0,0,0-.369.165,4.855,4.855,0,0,0-1.749,1.658,8.563,8.563,0,0,0-.478.793,14.973,14.973,0,0,0-1.051,2.613c-.019.067-.04.133-.063.2Z" transform="translate(-1804.301 -145.546)" fill="#fff"/>
                <path id="Trazado_195426" data-name="Trazado 195426" d="M1807.543,151.2l.079.242c3.437-9.465,10.717-2.378,10.717-2.378s0,0,0-.009v0c-.133-.141-.271-.284-.41-.428-.159-.158-.322-.314-.485-.468-.065-.06-.129-.117-.19-.175l-.192-.174c-.322-.284-.654-.557-.993-.806-.135-.1-.276-.2-.412-.29s-.276-.179-.418-.266l-.211-.12c-.068-.041-.14-.08-.212-.117s-.145-.077-.217-.109c-.141-.069-.282-.132-.423-.188a5.37,5.37,0,0,0-.644-.214,2,2,0,0,0-.2-.046,3.387,3.387,0,0,0-.446-.077c-.07-.008-.142-.014-.213-.019l-.123-.005c-.038,0-.078,0-.116,0a3.312,3.312,0,0,0-1.18.217,3.808,3.808,0,0,0-.369.165,4.853,4.853,0,0,0-1.749,1.658,8.591,8.591,0,0,0-.478.793,14.992,14.992,0,0,0-1.051,2.613C1807.579,151.061,1807.561,151.129,1807.543,151.2Z" transform="translate(-1807.465 -145.546)" fill="#482b0e"/>
              </g>
              <g id="Grupo_561087" data-name="Grupo 561087" transform="translate(5.046 2.267)">
                <g id="Grupo_561085" data-name="Grupo 561085" transform="translate(0)">
                  <path id="Trazado_195427" data-name="Trazado 195427" d="M1807.752,153.972a3.575,3.575,0,1,0,2.147-4.578A3.576,3.576,0,0,0,1807.752,153.972Z" transform="translate(-1807.538 -149.18)" fill="#603913"/>
                  <path id="Trazado_195428" data-name="Trazado 195428" d="M1808.372,151.951a3.574,3.574,0,0,0,6.437,3.018,3.575,3.575,0,1,1-6.437-3.018Z" transform="translate(-1807.854 -150.223)" fill="#482b0e"/>
                </g>
                <g id="Grupo_561086" data-name="Grupo 561086" transform="translate(2.229 1.782)">
                  <path id="Trazado_195429" data-name="Trazado 195429" d="M1810.155,154.3a1.676,1.676,0,1,0,1.007-2.146A1.677,1.677,0,0,0,1810.155,154.3Z" transform="translate(-1810.055 -152.044)" fill="#231f20"/>
                  <path id="Trazado_195430" data-name="Trazado 195430" d="M1812.066,152.617a.432.432,0,1,0,.26-.554A.431.431,0,0,0,1812.066,152.617Z" transform="translate(-1810.789 -152.038)" fill="#fff"/>
                </g>
              </g>
              <g id="Grupo_561088" data-name="Grupo 561088" transform="translate(0 6.302)">
                <path id="Trazado_195431" data-name="Trazado 195431" d="M1817.136,155.652l-16.507,2.559S1806.55,164.729,1817.136,155.652Z" transform="translate(-1800.629 -155.652)" fill="#fcae88"/>
                <path id="Trazado_195432" data-name="Trazado 195432" d="M1804.617,158.094c3.051,1.111,11.548-1.737,11.548-1.737l-.6.038Z" transform="translate(-1802.144 -155.917)" fill="#f28a83" opacity="0.3"/>
              </g>
            </g>
            <path id="Trazado_195433" data-name="Trazado 195433" d="M1825.557,168.147c-2.517,2.992-4.944-3.348-4.855-4.415s.011-2.155-.469-2.506-2.2-2.2-2.2-2.2l-2.093-17.7S1837.787,153.6,1825.557,168.147Z" transform="translate(-1769.817 -98.758)" fill="url(#linear-gradient-3)"/>
          </g>
        </g>
        <g id="Grupo_561092" data-name="Grupo 561092" transform="translate(92.99 116.385)">
          <path id="Trazado_195434" data-name="Trazado 195434" d="M1836.994,354.22l.086,1.1,10.72,20.893,10.668-21.861-8.9-78.916-.041-.421.067-.155,6.632-15.155h-16.882l6.619,15.155.069.155-.045.421Z" transform="translate(-1836.994 -259.705)" fill="#243444"/>
          <path id="Trazado_195435" data-name="Trazado 195435" d="M1854.859,284.008h-3.631l.069.155-.045.421h3.581Z" transform="translate(-1842.261 -268.853)" fill="#505d69"/>
        </g>
        <g id="Grupo_561094" data-name="Grupo 561094" transform="translate(85.434 263.01)">
          <rect id="Rectángulo_40906" data-name="Rectángulo 40906" width="37.14" height="7.736" transform="translate(0 2.156)" fill="#a97c50"/>
          <g id="Grupo_561093" data-name="Grupo 561093" transform="translate(9.434)">
            <rect id="Rectángulo_40907" data-name="Rectángulo 40907" width="18.199" height="12.014" transform="translate(0)" fill="#f2d97f"/>
            <path id="Trazado_195436" data-name="Trazado 195436" d="M1839.234,494.858v12h18.2v-.018A58.739,58.739,0,0,1,1839.234,494.858Z" transform="translate(-1839.234 -494.847)" fill="#b6a35f" opacity="0.52"/>
          </g>
        </g>
        <g id="Grupo_561097" data-name="Grupo 561097" transform="translate(82.049 102.286)">
          <g id="Grupo_561095" data-name="Grupo 561095" transform="translate(0)">
            <path id="Trazado_195437" data-name="Trazado 195437" d="M1875.983,251.17l-8.768,11.857-12.757-21.808,5.917-4.123Z" transform="translate(-1854.459 -237.096)" fill="#cdeefd"/>
          </g>
          <g id="Grupo_561096" data-name="Grupo 561096" transform="translate(21.524 0.997)">
            <path id="Trazado_195438" data-name="Trazado 195438" d="M1816.224,251.772l7.3,11.777,16.547-21.3-8.206-3.558Z" transform="translate(-1816.224 -238.694)" fill="#cdeefd"/>
          </g>
        </g>
        <path id="Trazado_195439" data-name="Trazado 195439" d="M1883.678,519.149a272.549,272.549,0,0,1-54.283,8.338l-7.159-17.892-6.022,18.218c-18.525-.031-39.03-2.216-59.046-8.663,4.572-85.033-.694-239.466,0-251.4l45.772-26.934,19.7,72.34,20.885-72.34,37.329,21.579C1881.548,274.329,1879.106,434.116,1883.678,519.149Z" transform="translate(-1719.395 -136.21)" fill="#f1f2f2"/>
        <g id="Grupo_561101" data-name="Grupo 561101" transform="translate(52.689 158.327)">
          <g id="Grupo_561100" data-name="Grupo 561100" transform="translate(0 2.683)">
            <rect id="Rectángulo_40908" data-name="Rectángulo 40908" width="28.007" height="15.139" fill="#fff"/>
            <g id="Grupo_561099" data-name="Grupo 561099" transform="translate(1.938 4.194)">
              <rect id="Rectángulo_40909" data-name="Rectángulo 40909" width="7.882" height="6.756" transform="translate(16.246)" fill="#d1d3d4"/>
              <g id="Grupo_561098" data-name="Grupo 561098" transform="translate(0 0.491)">
                <rect id="Rectángulo_40910" data-name="Rectángulo 40910" width="14.133" height="0.986" fill="#d1d3d4"/>
                <rect id="Rectángulo_40911" data-name="Rectángulo 40911" width="14.133" height="0.985" transform="translate(0 2.393)" fill="#d1d3d4"/>
                <rect id="Rectángulo_40912" data-name="Rectángulo 40912" width="14.133" height="0.985" transform="translate(0 4.786)" fill="#d1d3d4"/>
              </g>
            </g>
          </g>
          <rect id="Rectángulo_40913" data-name="Rectángulo 40913" width="2.957" height="4.06" transform="translate(12.524)" fill="#f1f2f2"/>
        </g>
        <path id="Trazado_195440" data-name="Trazado 195440" d="M1854.984,275.528l6.953,2.081-6.207,11.093,23.657,35.909L1864.9,271.248Z" transform="translate(-1776.141 -147.665)" fill="#b5b6b6" opacity="0.32"/>
        <path id="Trazado_195441" data-name="Trazado 195441" d="M1855.919,240.273c-2.329,2.936.424,21.953.424,21.953l9.308.853-7.144,8.69,22.24,39.54-16.321-75.4S1857.377,238.435,1855.919,240.273Z" transform="translate(-1777.501 -134.364)" fill="#fff"/>
        <path id="Trazado_195442" data-name="Trazado 195442" d="M1840.29,276.508l-9.031,4.252,7.54,7.849-22.851,36.982L1828.12,277.8l2.768-3.953Z" transform="translate(-1712.703 -148.645)" fill="#b5b6b6" opacity="0.32"/>
        <path id="Trazado_195443" data-name="Trazado 195443" d="M1837.946,240.986c2.327,2.936-2.082,21.508-2.082,21.508l-9.307.853,7.143,8.69-22.177,39.541,17.915-74.954S1836.487,239.149,1837.946,240.986Z" transform="translate(-1708.277 -134.632)" fill="#fff"/>
        <g id="Grupo_561104" data-name="Grupo 561104" transform="translate(66.692 108.859)">
          <g id="Grupo_561102" data-name="Grupo 561102" transform="translate(0 0)">
            <path id="Trazado_195444" data-name="Trazado 195444" d="M1904.607,317.317c-15.114-39.242-13.718-56.637-9.888-64.319,2.055-4.116,4.5-5.327,4.612-5.361,0,0-3.817.243-4.553.982-.159.158-15.412,13.827,7.742,69.5Z" transform="translate(-1889.703 -247.637)" fill="#231f20"/>
          </g>
          <g id="Grupo_561103" data-name="Grupo 561103" transform="translate(9.517 66.684)">
            <path id="Trazado_195445" data-name="Trazado 195445" d="M1881.422,361.918a5.389,5.389,0,1,0,3.07-6.974A5.388,5.388,0,0,0,1881.422,361.918Z" transform="translate(-1881.054 -354.575)" fill="#8d8f90"/>
            <path id="Trazado_195446" data-name="Trazado 195446" d="M1882.282,362.051a4.83,4.83,0,1,0,2.751-6.251A4.831,4.831,0,0,0,1882.282,362.051Z" transform="translate(-1881.395 -354.912)" fill="#bcbec0"/>
            <path id="Trazado_195447" data-name="Trazado 195447" d="M1884.548,362.408a3.353,3.353,0,1,0,1.91-4.343A3.355,3.355,0,0,0,1884.548,362.408Z" transform="translate(-1882.283 -355.803)" fill="#58595b"/>
          </g>
        </g>
        <g id="Grupo_561114" data-name="Grupo 561114" transform="translate(121.162 107.402)">
          <g id="Grupo_561112" data-name="Grupo 561112" transform="translate(0 16.559)">
            <g id="Grupo_561107" data-name="Grupo 561107" transform="translate(2.187 18.03)">
              <g id="Grupo_561105" data-name="Grupo 561105" transform="translate(2.391)">
                <path id="Trazado_195448" data-name="Trazado 195448" d="M1786.124,334.338l7.691-3.709c6.741-5.847,12.409-28.469,12.643-29.43l-.949-.428c-.059.23-5.75,22.97-12.152,28.612l-7.53,3.612Z" transform="translate(-1785.827 -300.77)" fill="#5e5f60"/>
              </g>
              <g id="Grupo_561106" data-name="Grupo 561106" transform="translate(0 30.987)">
                <path id="Trazado_195449" data-name="Trazado 195449" d="M1816.664,354.246a.69.69,0,0,0,.33-.065l2.454-1.136a1.155,1.155,0,0,0,.563-.667,1.813,1.813,0,0,0,.075-1.015c-.143-.673-.688-1.062-1.172-.838l-2.453,1.135a1.167,1.167,0,0,0-.563.668,1.843,1.843,0,0,0-.075,1.012A1.028,1.028,0,0,0,1816.664,354.246Z" transform="translate(-1815.786 -350.462)" fill="#bcbec0"/>
              </g>
            </g>
            <g id="Grupo_561110" data-name="Grupo 561110" transform="translate(0.585 16.93)">
              <g id="Grupo_561108" data-name="Grupo 561108" transform="translate(0)">
                <path id="Trazado_195450" data-name="Trazado 195450" d="M1814.347,334.292l.425-1.309-7.145-4.324c-5.827-6.24-9.294-29.417-9.327-29.654l-.993.336c.146.978,3.6,24.043,9.741,30.515l.1.081Z" transform="translate(-1797.307 -299.006)" fill="#5e5f60"/>
              </g>
              <g id="Grupo_561109" data-name="Grupo 561109" transform="translate(15.513 32.643)">
                <path id="Trazado_195451" data-name="Trazado 195451" d="M1796.884,355.369a1.019,1.019,0,0,0,.925-.821,1.841,1.841,0,0,0,.022-1.013,1.17,1.17,0,0,0-.495-.719l-2.332-1.369c-.456-.269-1.039.065-1.247.722a1.873,1.873,0,0,0-.023,1.018,1.168,1.168,0,0,0,.493.717l2.333,1.368A.716.716,0,0,0,1796.884,355.369Z" transform="translate(-1793.676 -351.354)" fill="#bcbec0"/>
              </g>
            </g>
            <g id="Grupo_561111" data-name="Grupo 561111">
              <path id="Trazado_195452" data-name="Trazado 195452" d="M1785.771,289.342c.555.027,1.039-.581,1.079-1.364.267-5.051,2.141-9.089,5.283-11.37a9.833,9.833,0,0,1,12.5.667c2,1.818,4.312,5.333,3.977,11.736-.042.787.377,1.449.933,1.479l.007,0c.556.026,1.035-.585,1.076-1.365.318-6.054-1.409-11.117-4.857-14.256a11.419,11.419,0,0,0-14.514-.783c-3.816,2.774-6.1,7.667-6.42,13.776-.037.784.38,1.447.934,1.479Z" transform="translate(-1784.83 -271.856)" fill="#231f20"/>
            </g>
          </g>
          <g id="Grupo_561113" data-name="Grupo 561113" transform="translate(7.724)">
            <path id="Trazado_195453" data-name="Trazado 195453" d="M1802.086,245.467a3.359,3.359,0,0,1,4.075,1.669c2.744,5.349,3.276,16.366,3.271,16.513l-2.234-.083C1807.2,263.406,1807.623,251.961,1802.086,245.467Z" transform="translate(-1802.086 -245.3)" fill="#231f20"/>
          </g>
        </g>
        <rect id="Rectángulo_40914" data-name="Rectángulo 40914" width="38.967" height="42.508" transform="translate(118.144 289.32)" fill="#fff"/>
        <rect id="Rectángulo_40915" data-name="Rectángulo 40915" width="38.965" height="42.508" transform="translate(49.487 289.32)" fill="#fff"/>
        <g id="Grupo_561116" data-name="Grupo 561116" transform="translate(0 210.216)">
          <path id="Trazado_195454" data-name="Trazado 195454" d="M1960.7,533.911s-14.252,3.177-14.355.444c-.135-3.687,4.489-4.893,4.489-4.893l8.922-.454Z" transform="translate(-1914.419 -454.908)" fill="#fcae88"/>
          <g id="Grupo_561115" data-name="Grupo 561115" transform="translate(0 0.001)">
            <path id="Rectángulo_40916" data-name="Rectángulo 40916" d="M1.214,0H108.039a1.215,1.215,0,0,1,1.215,1.215V74.56a1.213,1.213,0,0,1-1.213,1.213H1.215A1.215,1.215,0,0,1,0,74.558V1.214A1.214,1.214,0,0,1,1.214,0Z" fill="#d1d3d4"/>
            <path id="Trazado_195455" data-name="Trazado 195455" d="M1915.953,464.539a10.6,10.6,0,1,0,10.6-10.6A10.6,10.6,0,0,0,1915.953,464.539Z" transform="translate(-1871.926 -426.651)" fill="#dadcdd"/>
          </g>
          <path id="Trazado_195456" data-name="Trazado 195456" d="M1845.35,410.934V485.2a.754.754,0,0,0,.758.757h107.738a.757.757,0,0,0,.758-.757v-.19a191.031,191.031,0,0,1-53.681-26.38c-3.978-2.782-7.764-5.644-11.353-8.548a223.767,223.767,0,0,1-38.326-39.9h-5.136A.756.756,0,0,0,1845.35,410.934Z" transform="translate(-1845.349 -410.178)" fill="#bcbec0" opacity="0.28"/>
          <path id="Trazado_195457" data-name="Trazado 195457" d="M1911.72,528.928a7.862,7.862,0,0,0,3.251,2.322c1.98.663,2.9.206,4.982.08,1.346-.077,3.911,1.555,5.232,1.293.979-.192,2.239-2.162,3.215-2.355,1.322-.264,4.04,1.915,5.234,1.291,3.1-1.628,4.959-11.281,4.959-11.281s2.663-12.911-.255-15.441c-.488-.422-2.558.323-2.558.323s.63-5.955-.761-7.056a2.477,2.477,0,0,0-2.3.293c-1.208,1.2-.906,6.742-.906,6.742s-.05-5.5-1.4-6.454a2.664,2.664,0,0,0-2.3.291c-1.932,1.641-2.871,9.723-2.871,9.723s.188-3.736-.579-4.606c-.6-.68-1.351-1.3-2.023-.694-1.78,1.6-5.385,15.585-5.385,15.585h-9.314Z" transform="translate(-1869.478 -443.209)" fill="#fcae88"/>
        </g>
      </g>
    </g>
  </g>
</svg>
