<svg xmlns="http://www.w3.org/2000/svg" xmlns:xlink="http://www.w3.org/1999/xlink" width="953" height="287.5" viewBox="0 0 953 287.5">
  <defs>
    <linearGradient id="linear-gradient" x1="0.5" x2="0.5" y2="1" gradientUnits="objectBoundingBox">
      <stop offset="0" stop-color="#3e24f2"/>
      <stop offset="1" stop-color="#1f1279"/>
    </linearGradient>
  </defs>
  <g id="Grupo_564493" data-name="Grupo 564493" transform="translate(-465 -6990.41)">
    <g id="Grupo_559829" data-name="Grupo 559829" transform="translate(0 -2417.09)">
      <g id="Grupo_559823" data-name="Grupo 559823">
        <path id="Trazado_194405" data-name="Trazado 194405" d="M1279.727,9538.119q-1.039-1.162-2.033-2.364" fill="none" stroke="#4c4bf0" stroke-miterlimit="10" stroke-width="1"/>
        <path id="Trazado_194406" data-name="Trazado 194406" d="M1273.815,9530.645a78.087,78.087,0,0,1,57.774-122.392" fill="none" stroke="#4c4bf0" stroke-miterlimit="10" stroke-width="1"/>
        <path id="Trazado_194407" data-name="Trazado 194407" d="M1334.806,9408.061q1.552-.059,3.119-.061" fill="none" stroke="#4c4bf0" stroke-miterlimit="10" stroke-width="1"/>
      </g>
      <g id="Grupo_559824" data-name="Grupo 559824">
        <path id="Trazado_194408" data-name="Trazado 194408" d="M1402.666,9442.422q.871,1.292,1.693,2.617" fill="none" stroke="#4c4bf0" stroke-miterlimit="10" stroke-width="1"/>
        <path id="Trazado_194409" data-name="Trazado 194409" d="M1407.418,9450.451a78.123,78.123,0,0,1-93.013,110.093" fill="none" stroke="#4c4bf0" stroke-miterlimit="10" stroke-width="1"/>
        <path id="Trazado_194410" data-name="Trazado 194410" d="M1311.452,9559.546q-1.47-.529-2.911-1.116" fill="none" stroke="#4c4bf0" stroke-miterlimit="10" stroke-width="1"/>
      </g>
      <g id="Grupo_559825" data-name="Grupo 559825">
        <path id="Trazado_194411" data-name="Trazado 194411" d="M1365.175,9545.8q-1.418.649-2.865,1.229" fill="none" stroke="#4c4bf0" stroke-miterlimit="10" stroke-width="1"/>
        <path id="Trazado_194412" data-name="Trazado 194412" d="M1356.524,9549.043a65.654,65.654,0,1,1,45.953-50.986" fill="none" stroke="#4c4bf0" stroke-miterlimit="10" stroke-width="1"/>
        <path id="Trazado_194413" data-name="Trazado 194413" d="M1401.842,9501.067q-.357,1.51-.786,3.02" fill="none" stroke="#4c4bf0" stroke-miterlimit="10" stroke-width="1"/>
      </g>
      <g id="Grupo_559826" data-name="Grupo 559826">
        <path id="Trazado_194414" data-name="Trazado 194414" d="M1289.678,9505.539q-.588-1.456-1.082-2.926" fill="none" stroke="#4c4bf0" stroke-miterlimit="10" stroke-width="1"/>
        <path id="Trazado_194415" data-name="Trazado 194415" d="M1286.962,9496.577a52.035,52.035,0,1,1,34.867,38.972" fill="none" stroke="#4c4bf0" stroke-miterlimit="10" stroke-width="1"/>
        <path id="Trazado_194416" data-name="Trazado 194416" d="M1318.883,9534.49q-1.452-.57-2.866-1.228" fill="none" stroke="#4c4bf0" stroke-miterlimit="10" stroke-width="1"/>
      </g>
      <circle id="Elipse_5399" data-name="Elipse 5399" cx="41.229" cy="41.229" r="41.229" transform="translate(1284.78 9510.058) rotate(-69.288)" fill="none" stroke="#4c4bf0" stroke-miterlimit="10" stroke-width="1"/>
      <g id="Grupo_559827" data-name="Grupo 559827">
        <path id="Trazado_194417" data-name="Trazado 194417" d="M1368.159,9492.836q-.345,1.541-.832,3.008" fill="none" stroke="#4c4bf0" stroke-miterlimit="10" stroke-width="1"/>
        <path id="Trazado_194418" data-name="Trazado 194418" d="M1364.865,9501.39a30.985,30.985,0,1,1-26.286-46.295" fill="none" stroke="#4c4bf0" stroke-miterlimit="10" stroke-width="1"/>
        <path id="Trazado_194419" data-name="Trazado 194419" d="M1341.611,9455.312q1.535.186,3.076.529" fill="none" stroke="#4c4bf0" stroke-miterlimit="10" stroke-width="1"/>
      </g>
      <path id="Trazado_194420" data-name="Trazado 194420" d="M1359.832,9486.075a21.906,21.906,0,1,1-21.907-21.907A21.907,21.907,0,0,1,1359.832,9486.075Z" fill="none" stroke="#4c4bf0" stroke-miterlimit="10" stroke-width="1"/>
      <g id="Grupo_559828" data-name="Grupo 559828">
        <path id="Trazado_194421" data-name="Trazado 194421" d="M1325.762,9480.557a13.492,13.492,0,0,1,1.607-2.67" fill="none" stroke="#4c4bf0" stroke-miterlimit="10" stroke-width="1"/>
        <path id="Trazado_194422" data-name="Trazado 194422" d="M1332.243,9473.987a13.357,13.357,0,1,1,6.263,25.434" fill="none" stroke="#4c4bf0" stroke-miterlimit="10" stroke-width="1"/>
        <path id="Trazado_194423" data-name="Trazado 194423" d="M1335.375,9499.188a13.452,13.452,0,0,1-2.967-.95" fill="none" stroke="#4c4bf0" stroke-miterlimit="10" stroke-width="1"/>
      </g>
    </g>
    <rect id="Rectángulo_40820" data-name="Rectángulo 40820" width="953" height="212" transform="translate(465 7065.91)" fill="url(#linear-gradient)"/>
  </g>
</svg>
