<svg xmlns="http://www.w3.org/2000/svg" width="85" height="78.666" viewBox="0 0 85 78.666">
  <g id="Grupo_562040" data-name="Grupo 562040" transform="translate(0)">
    <path id="Trazado_194902" data-name="Trazado 194902" d="M261.582,499.554a4.822,4.822,0,0,1,3.452,1.529c.495.457.9,1.259,1.844.905s.566-1.189.574-1.823c.037-3,1.669-4.5,4.957-4.5,1.329,0,2.659-.018,3.987.005a4.092,4.092,0,0,1,4.325,3.936c.013.544-.03,1.09.017,1.631a.936.936,0,0,0,1.575.608c.464-.342.86-.758,1.294-1.135a4.7,4.7,0,0,1,6.227-.005q1.609,1.4,3.163,2.847a3.558,3.558,0,0,1-.014,5.53c-.242.227-.507.433-.735.67-.392.408-1.089.7-.726,1.424.352.706,1.06.475,1.66.513.567.036,1.142.009,1.7.079a3.941,3.941,0,0,1,3.679,3.676q.072,2.188,0,4.38a3.941,3.941,0,0,1-3.754,3.7c-.781.086-1.586,0-2.364.1a1.35,1.35,0,0,0-.911.559,1.008,1.008,0,0,0,.241.9c.38.451.888.813,1.318,1.232a3.529,3.529,0,0,1-.019,5.339q-1.641,1.55-3.367,3.027a4.594,4.594,0,0,1-6-.012,15.729,15.729,0,0,0-1.368-1.185,1.344,1.344,0,0,0-1.019-.167,1.112,1.112,0,0,0-.574.771,14.7,14.7,0,0,0-.036,1.714,4.1,4.1,0,0,1-4.272,3.81c-1.55.028-3.1.024-4.651,0a4.1,4.1,0,0,1-4.322-3.851,13.447,13.447,0,0,0-.031-1.628,1.1,1.1,0,0,0-.527-.8,1.525,1.525,0,0,0-1.1.175,11.958,11.958,0,0,0-1.3,1.127,4.6,4.6,0,0,1-6.067.012q-1.683-1.452-3.3-2.967a3.54,3.54,0,0,1,.046-5.463,12.6,12.6,0,0,0,1.252-1.17,1.02,1.02,0,0,0,.2-.907,1.213,1.213,0,0,0-.848-.518c-.811-.094-1.647-.018-2.459-.109a3.933,3.933,0,0,1-3.7-3.654c-.054-1.487-.055-2.978,0-4.465a3.933,3.933,0,0,1,3.723-3.638c.749-.085,1.523,0,2.269-.1a1.448,1.448,0,0,0,1.012-.544c.116-.27-.108-.739-.331-1.029a9.889,9.889,0,0,0-1.124-1.042,3.545,3.545,0,0,1-.021-5.465c1.058-.986,2.151-1.941,3.23-2.909A4.468,4.468,0,0,1,261.582,499.554Zm29.378,6.83a3.507,3.507,0,0,0-.456-.722c-1.02-.939-2.059-1.862-3.1-2.782a.961.961,0,0,0-1.414.033c-.521.459-1.015.95-1.578,1.363a4.46,4.46,0,0,1-4.536.518,3.693,3.693,0,0,1-2.57-3.414c-.024-.572,0-1.145-.016-1.717a.866.866,0,0,0-1-.912c-1.455,0-2.912,0-4.367,0-.717,0-1.025.356-1.031.971-.006.515,0,1.03-.008,1.546a3.692,3.692,0,0,1-2.63,3.552,4.5,4.5,0,0,1-4.748-.742c-.442-.369-.861-.759-1.288-1.143a.993.993,0,0,0-1.487-.014q-1.517,1.36-3.034,2.72a.8.8,0,0,0,.011,1.346c.469.425.964.831,1.4,1.284a3.383,3.383,0,0,1,.734,4.074,4.077,4.077,0,0,1-3.719,2.4c-.662.035-1.328.015-1.992.022-.738.008-1.1.341-1.1,1.014.007,1.231.011,2.462,0,3.693-.007.724.393,1.045,1.165,1.044.6,0,1.2-.01,1.8.01a4.089,4.089,0,0,1,3.829,2.386,3.44,3.44,0,0,1-.827,4.213c-.4.4-.844.774-1.274,1.154a.817.817,0,0,0,.015,1.406c.971.862,1.946,1.721,2.895,2.6a1.079,1.079,0,0,0,1.7-.037c.412-.4.833-.787,1.285-1.143a4.472,4.472,0,0,1,4.6-.66,3.713,3.713,0,0,1,2.657,3.45c.026.572,0,1.145.016,1.717a.872.872,0,0,0,1,.917c1.455.007,2.911.005,4.366,0,.71,0,1.027-.358,1.033-.975,0-.544-.01-1.088.01-1.631a3.7,3.7,0,0,1,2.628-3.467,4.485,4.485,0,0,1,4.6.63c.5.392.96.831,1.43,1.256a.99.99,0,0,0,1.485.019q1.517-1.36,3.033-2.721a.8.8,0,0,0,0-1.346c-.49-.447-1.009-.872-1.459-1.351a3.366,3.366,0,0,1-.681-4.008,4.061,4.061,0,0,1,3.715-2.4c.694-.037,1.392,0,2.087-.028.634-.023,1-.326,1-.92.006-1.288,0-2.576,0-3.864,0-.635-.373-.944-1.06-.957s-1.394.009-2.087-.028a4.024,4.024,0,0,1-3.926-4.719,5.72,5.72,0,0,1,2.105-2.781C290.457,506.987,290.685,506.689,290.96,506.384Z" transform="translate(-231.572 -478.308)" fill="#26a0df"/>
    <path id="Trazado_194903" data-name="Trazado 194903" d="M290.565,558.537a27.325,27.325,0,0,0,9.119-3.944,34.086,34.086,0,0,0,15.551-23.88c.132-.822.243-1.651,1.155-2.027a1.721,1.721,0,0,1,2.345,1.918,37.083,37.083,0,0,1-8.471,19.155,37.76,37.76,0,0,1-19.14,12.347c-.21.058-.417.126-.829.252l2.224,1.864c.364.305.741.6,1.086.919a1.661,1.661,0,0,1,.279,2.37,1.714,1.714,0,0,1-2.456.231c-1.116-.882-2.2-1.81-3.291-2.719-.973-.809-1.952-1.61-2.914-2.432a1.7,1.7,0,0,1-.276-2.714q2.488-2.989,5.02-5.943a1.737,1.737,0,0,1,2.513-.381,1.707,1.707,0,0,1,.078,2.6c-.335.42-.694.821-1.039,1.233C291.2,557.766,290.883,558.152,290.565,558.537Z" transform="translate(-238.498 -489.487)" fill="#191973"/>
    <path id="Trazado_194904" data-name="Trazado 194904" d="M314.945,507.729a32.45,32.45,0,0,0-4.647-10.71,34.048,34.048,0,0,0-22.181-14.834c-.216-.044-.432-.095-.647-.147a1.7,1.7,0,1,1,.675-3.317,36.591,36.591,0,0,1,12.561,4.623,37.227,37.227,0,0,1,17.471,23.151c.055.207.142.405.255.725.767-1.326,1.471-2.554,2.187-3.778a1.482,1.482,0,0,1,1.721-.878,2.655,2.655,0,0,1,1.371,1.107,1.729,1.729,0,0,1-.131,1.417c-1.309,2.382-2.673,4.734-4.051,7.077a1.655,1.655,0,0,1-2.512.651q-3.442-1.9-6.853-3.87a1.7,1.7,0,0,1-.787-2.4,1.733,1.733,0,0,1,2.482-.549C312.832,506.515,313.785,507.074,314.945,507.729Z" transform="translate(-238.813 -474.931)" fill="#191973"/>
    <path id="Trazado_194905" data-name="Trazado 194905" d="M232.531,533.969c-.773,1.049-1.457,1.992-2.156,2.924-.766,1.021-1.761,1.246-2.607.609a1.719,1.719,0,0,1-.166-2.6q2.285-3.145,4.6-6.269a1.713,1.713,0,0,1,2.7-.457q3.209,2.276,6.378,4.611a1.665,1.665,0,0,1,.51,2.4,1.739,1.739,0,0,1-2.518.336c-1.061-.732-2.1-1.5-3.39-2.433.252.929.4,1.593.611,2.237,4.085,12.428,12.5,20.261,25.111,23.631.152.041.312.054.464.1a1.712,1.712,0,1,1-.835,3.3,39.6,39.6,0,0,1-4.183-1.207c-12.612-4.717-20.762-13.535-24.307-26.56C232.7,534.442,232.643,534.3,232.531,533.969Z" transform="translate(-227.097 -489.32)" fill="#191973"/>
    <path id="Trazado_194906" data-name="Trazado 194906" d="M259.73,478.764c-1.479-.538-2.779-.975-4.051-1.487a1.662,1.662,0,0,1-.654-2.774,1.738,1.738,0,0,1,1.938-.363c2.53.9,5.058,1.8,7.573,2.73a1.7,1.7,0,0,1,1.125,2.418q-1.3,3.661-2.661,7.3a1.72,1.72,0,1,1-3.2-1.2c.37-1.073.765-2.136,1.245-3.472-1.61.622-3.074,1.076-4.441,1.731-11.034,5.29-17.724,13.928-19.917,26-.275,1.509-1.53,2.2-2.667,1.447a1.775,1.775,0,0,1-.716-2c2.831-14.8,11.365-24.745,25.473-29.952C259.031,479.046,259.282,478.941,259.73,478.764Z" transform="translate(-228.32 -474)" fill="#191973"/>
    <path id="Trazado_194907" data-name="Trazado 194907" d="M268.3,523.661a9.514,9.514,0,1,1,9.506,9.453A9.507,9.507,0,0,1,268.3,523.661Zm15.6.01a6.089,6.089,0,1,0-6.14,6.036A6.08,6.08,0,0,0,283.907,523.67Z" transform="translate(-235.297 -484.311)" fill="#009ee3"/>
  </g>
</svg>
