<svg xmlns="http://www.w3.org/2000/svg" width="139.763" height="110.561" viewBox="0 0 139.763 110.561">
  <g id="Grupo_564516" data-name="Grupo 564516" transform="translate(-389.428 -8057.28)">
    <path id="Trazado_197875" data-name="Trazado 197875" d="M-10532-3883.857l-.033-110.375,110.518-.173,29.245,53.309-30.194,57.252Z" transform="translate(10921.463 12051.685)" fill="#8b7cf7"/>
    <g id="Grupo_562033" data-name="Grupo 562033" transform="translate(407.934 8073.515)">
      <g id="Grupo_559962" data-name="Grupo 559962" transform="translate(16.975 16.154)">
        <path id="Trazado_194660" data-name="Trazado 194660" d="M246.852,10516.321a7.821,7.821,0,0,1,3.4,1.459c.349-.38.808-.643.834-1.264a1.04,1.04,0,0,1,.763-.975,1.08,1.08,0,0,1,1.162.349c.244.254.495.5.747.748a1.079,1.079,0,0,1,.348,1.136.98.98,0,0,1-.892.773c-.641.033-.959.474-1.354.871a7.818,7.818,0,0,1,1.386,3.4c.543-.02,1.081.108,1.561-.327a1.016,1.016,0,0,1,1.2-.121,1.059,1.059,0,0,1,.558,1.046c-.007.381.005.762,0,1.144a1.052,1.052,0,0,1-1.687.911,2.312,2.312,0,0,0-1.639-.351,7.9,7.9,0,0,1-1.41,3.373c.414.369.694.852,1.349.878a1.007,1.007,0,0,1,.933.77,1.077,1.077,0,0,1-.344,1.137c-.265.26-.526.523-.788.787a1.065,1.065,0,0,1-1.092.321.976.976,0,0,1-.785-.884c-.028-.658-.481-.975-.841-1.338-.591.309-1.146.642-1.736.9a10.191,10.191,0,0,1-1.471.441c-.172.044-.243.1-.228.281a2.912,2.912,0,0,1,0,.485.861.861,0,0,0,.222.652,1.246,1.246,0,0,1,.329,1.08.994.994,0,0,1-.928.829,14.215,14.215,0,0,1-1.428.009,1.065,1.065,0,0,1-.94-1.553.592.592,0,0,1,.11-.2c.457-.423.357-.964.342-1.512a7.852,7.852,0,0,1-3.44-1.4c-.373.359-.783.651-.816,1.249a1.03,1.03,0,0,1-.779.96,1.086,1.086,0,0,1-1.155-.371c-.242-.256-.493-.5-.747-.747a1.073,1.073,0,0,1-.327-1.143.992.992,0,0,1,.909-.76,1.814,1.814,0,0,0,1.268-.8,7.807,7.807,0,0,1-1.457-3.452c-.488,0-.954-.1-1.377.283a1.054,1.054,0,0,1-1.253.154,1.092,1.092,0,0,1-.567-1.073c0-.353,0-.7,0-1.058a1.086,1.086,0,0,1,.568-1.045,1,1,0,0,1,1.2.109,1.782,1.782,0,0,0,1.412.325,7.843,7.843,0,0,1,1.452-3.482c-.347-.341-.608-.738-1.179-.766a1.055,1.055,0,0,1-.993-.781,1.083,1.083,0,0,1,.367-1.157c.256-.242.5-.492.747-.747a1.07,1.07,0,0,1,1.113-.342.99.99,0,0,1,.788.913,1.774,1.774,0,0,0,.8,1.254,7.809,7.809,0,0,1,3.469-1.407c-.012-.474.1-.935-.263-1.371a1.066,1.066,0,0,1,.127-1.632,1.543,1.543,0,0,1,.692-.215,11.128,11.128,0,0,1,1.17-.008,1.071,1.071,0,0,1,1.011.578,1,1,0,0,1-.106,1.179A1.847,1.847,0,0,0,246.852,10516.321Zm-3.178,3.244a2.482,2.482,0,1,0,2.484,2.483A2.484,2.484,0,0,0,243.674,10519.565Zm5.518,2.852a1.591,1.591,0,0,0-1.584,1.6,1.608,1.608,0,0,0,1.61,1.584,1.593,1.593,0,0,0-.026-3.187Zm-3.479,4.759a1.408,1.408,0,1,0-1.41,1.417A1.4,1.4,0,0,0,245.713,10527.176Zm-4.3-1.545a.431.431,0,0,0-.449-.416.418.418,0,0,0-.417.443.434.434,0,0,0,.444.423A.443.443,0,0,0,241.413,10525.631Zm6.467-5.864a.423.423,0,0,0-.429-.433.43.43,0,0,0-.436.429.436.436,0,0,0,.432.437A.431.431,0,0,0,247.88,10519.767Zm-.327,8a.422.422,0,0,0-.42-.441.437.437,0,0,0-.45.418.453.453,0,0,0,.425.449A.443.443,0,0,0,247.553,10527.766Z" transform="translate(-234.674 -10513.063)" fill="#fff"/>
        <path id="Trazado_194661" data-name="Trazado 194661" d="M254.8,10526.132a1.8,1.8,0,1,1-1.79,1.8A1.8,1.8,0,0,1,254.8,10526.132Z" transform="translate(-234.674 -10513.063)" fill="#fff"/>
        <path id="Trazado_194662" data-name="Trazado 194662" d="M234.674,10520.061a1.455,1.455,0,0,1,2.909-.019,1.455,1.455,0,1,1-2.909.019Z" transform="translate(-234.674 -10513.063)" fill="#fff"/>
        <path id="Trazado_194663" data-name="Trazado 194663" d="M250.278,10533.88a1.1,1.1,0,1,1-1.106-1.1A1.105,1.105,0,0,1,250.278,10533.88Z" transform="translate(-234.674 -10513.063)" fill="#fff"/>
      </g>
      <g id="Grupo_559963" data-name="Grupo 559963" transform="translate(0)">
        <path id="Trazado_194664" data-name="Trazado 194664" d="M285.9,10575a8.18,8.18,0,0,1-3.22-2.315c-5.577-5.6-11.1-11.253-16.791-16.739-2.488-2.4-2.626-5.26-.094-7.514-.363-.313-.739-.6-1.073-.937s-.634-.72-.892-1.019c-1.53,1.009-2.875,2.021-4.33,2.835a28.025,28.025,0,0,1-41.277-19.007c-.224-1.112-.354-2.245-.528-3.369v-3.967c.248-1.473.427-2.962.755-4.417a28.014,28.014,0,0,1,54.716.668,27.35,27.35,0,0,1-5.434,23.053c-.139.179-.274.36-.417.55l2.085,2c.123-.112.305-.272.48-.441a4.21,4.21,0,0,1,6.14.016c2.894,2.859,5.759,5.748,8.636,8.626q4.8,4.8,9.6,9.6c2.091,2.095,2.093,4.54.011,6.631-1.327,1.333-2.685,2.638-3.981,4a6.755,6.755,0,0,1-2.71,1.744Zm-40.18-73.03a22.938,22.938,0,1,0,22.944,22.873A23,23,0,0,0,245.724,10501.97Zm29.948,56.215,11.159,11.16,3.378-3.374-11.154-11.152Zm-.486-7.079-2.307-2.294-3.336,3.346,2.3,2.294Z" transform="translate(-217.699 -10496.908)" fill="#fff"/>
      </g>
    </g>
  </g>
</svg>
