<svg xmlns="http://www.w3.org/2000/svg" width="139.763" height="110.561" viewBox="0 0 139.763 110.561">
  <g id="Grupo_564515" data-name="Grupo 564515" transform="translate(-389.428 -7876.963)">
    <path id="Trazado_197874" data-name="Trazado 197874" d="M-10532-3883.857l-.033-110.375,110.518-.173,29.245,53.309-30.194,57.252Z" transform="translate(10921.463 11871.367)" fill="#8b7cf7"/>
    <g id="Grupo_562032" data-name="Grupo 562032" transform="translate(403.934 7893.264)">
      <path id="Trazado_194655" data-name="Trazado 194655" d="M218.85,10414.8a5.042,5.042,0,0,1-.588-.458,1.406,1.406,0,0,1-.373-1.534,1.483,1.483,0,0,1,1.444-1.041c.854-.03,1.711-.007,2.647-.007v-.9c0-1.853-.008-3.7,0-5.557a1.645,1.645,0,0,1,1.508-1.931c2.013-.508,4.025-1.025,6.046-1.5a1.2,1.2,0,0,0,.948-.828c.641-1.626,1.3-3.243,2.012-4.84a1.2,1.2,0,0,0-.113-1.255c-1.076-1.748-2.128-3.511-3.18-5.274a1.659,1.659,0,0,1,.3-2.5q2.658-2.669,5.327-5.328a1.67,1.67,0,0,1,2.5-.306c1.785,1.064,3.573,2.124,5.339,3.218a1.133,1.133,0,0,0,1.186.075c1.628-.7,3.283-1.34,4.9-2.06a1.446,1.446,0,0,0,.715-.832c.541-1.979,1.018-3.974,1.515-5.963.331-1.325.764-1.67,2.126-1.671q3.691-.006,7.382,0c1.261,0,1.723.366,2.033,1.6.506,2.014.985,4.035,1.531,6.038a1.448,1.448,0,0,0,.716.831q2.463,1.094,4.984,2.059a1.352,1.352,0,0,0,1.022-.064c1.823-1.049,3.614-2.152,5.421-3.229a1.672,1.672,0,0,1,2.5.308q2.668,2.66,5.326,5.328a1.659,1.659,0,0,1,.3,2.5c-1.065,1.784-2.127,3.571-3.217,5.339a1.076,1.076,0,0,0-.1,1.118c.7,1.627,1.388,3.264,2.04,4.911a1.2,1.2,0,0,0,.949.827c2,.468,3.983.98,5.972,1.481,1.254.317,1.576.724,1.581,2.026.008,1.826,0,3.653,0,5.479,0,.273,0,.547,0,.9.734,0,1.389.038,2.039-.009a2.064,2.064,0,0,1,2.156,1.075v1.978Zm21.711-3.085c-.064-.713-.17-1.389-.177-2.065a16.04,16.04,0,0,1,6.035-13.205,25.164,25.164,0,0,1,4.362-2.577,1.491,1.491,0,0,1,2.112.724,1.544,1.544,0,0,1-.86,2.019c-.134.07-.273.133-.413.192a13.036,13.036,0,0,0-6.951,6.7,12.869,12.869,0,0,0-.969,8.21h26.155a13.349,13.349,0,0,0-3.065-11.378,13.886,13.886,0,0,0-5.223-3.7,1.481,1.481,0,0,1-.883-1.991,1.534,1.534,0,0,1,2.1-.777,16.437,16.437,0,0,1,10.316,14.379c.033,1.151.005,2.3.005,3.463h15.39c0-1.672-.024-3.295.014-4.916.012-.553-.2-.73-.7-.846-1.825-.424-3.633-.923-5.46-1.339a2.233,2.233,0,0,1-1.75-1.485c-.735-1.887-1.445-3.795-2.349-5.6a3.658,3.658,0,0,1,.3-4.212c1.03-1.428,1.846-3.008,2.7-4.429l-4.259-4.253c-1.779,1.068-3.632,2.16-5.462,3.289a2.01,2.01,0,0,1-2.009.161c-2.071-.891-4.136-1.8-6.252-2.571a2.973,2.973,0,0,1-2.129-2.461c-.374-1.9-.921-3.771-1.394-5.648h-5.964c-.528,2.1-1.07,4.182-1.563,6.271a2.02,2.02,0,0,1-1.295,1.546q-3.488,1.409-6.949,2.877a1.944,1.944,0,0,1-1.941-.156c-1.267-.793-2.553-1.556-3.841-2.315-.583-.343-1.218-.941-1.774-.886-.517.053-.966.816-1.435,1.276-.935.918-1.862,1.843-2.779,2.751,1.133,1.885,2.18,3.681,3.284,5.441a2.247,2.247,0,0,1,.187,2.287q-1.434,3.312-2.761,6.669a2.186,2.186,0,0,1-1.7,1.441c-1.875.434-3.741.907-5.6,1.394-.218.057-.551.3-.555.459-.04,1.742-.025,3.485-.025,5.268Z" transform="translate(-217.796 -10336.84)" fill="#fff"/>
      <path id="Trazado_194656" data-name="Trazado 194656" d="M295.736,10363.035c-.957,1.31-1.815,1.38-2.97.226-1.756-1.756-3.505-3.519-5.414-5.436a5.6,5.6,0,0,1-.52.745q-7.176,7.192-14.365,14.373c-1.033,1.032-1.9,1.172-2.621.424s-.561-1.552.453-2.567q7.184-7.185,14.371-14.366a6.669,6.669,0,0,1,.6-.484l-8.495-8.491c-6.316,6.313-12.683,12.675-19.185,19.173.8.747,1.67,1.49,2.459,2.311a1.494,1.494,0,0,1-1.667,2.4,3.965,3.965,0,0,1-.945-.752q-10.044-10.03-20.07-20.077a5.191,5.191,0,0,1-.531-.784c-.386.365-.59.549-.784.742l-14.747,14.744c-.18.18-.359.359-.539.537-.925.919-1.831,1.052-2.516.37-.711-.707-.592-1.558.361-2.511q8.312-8.317,16.626-16.631c1.087-1.087,1.812-1.085,2.9.007q8.317,8.313,16.627,16.632a6.759,6.759,0,0,1,.523.65l19.374-19.377a2.433,2.433,0,0,1-.615-.357c-1.644-1.621-3.269-3.261-4.9-4.892a1.571,1.571,0,0,1-.512-1.843,1.6,1.6,0,0,1,1.656-.96q11.8.007,23.593,0a2,2,0,0,1,1.85,1.074Zm-3.085-23.078H274.007l18.644,18.645Z" transform="translate(-217.796 -10336.84)" fill="#fff"/>
      <path id="Trazado_194657" data-name="Trazado 194657" d="M238.877,10369c.213.226.4.429.588.621q3.632,3.633,7.259,7.268a2.774,2.774,0,0,1,.7.973,1.374,1.374,0,0,1-.484,1.632,1.409,1.409,0,0,1-1.762.062,4.689,4.689,0,0,1-.687-.6q-3.582-3.573-7.154-7.158a5.627,5.627,0,0,1-.5-.672l-.358-.111a3.088,3.088,0,0,1-.412.74q-7.573,7.6-15.169,15.178a5.631,5.631,0,0,1-.673.612,1.492,1.492,0,0,1-2.055-2.146,6.647,6.647,0,0,1,.572-.609q9.952-9.955,19.908-19.909c.125-.126.247-.256.379-.375a1.522,1.522,0,1,1,2.159,2.13c-.571.611-1.18,1.188-1.769,1.782C239.246,10368.594,239.081,10368.78,238.877,10369Z" transform="translate(-217.796 -10336.84)" fill="#fff"/>
      <path id="Trazado_194658" data-name="Trazado 194658" d="M267.189,10377.612a1.568,1.568,0,0,1-1.54-1.482,1.531,1.531,0,0,1,1.475-1.531,1.5,1.5,0,0,1,1.527,1.467A1.539,1.539,0,0,1,267.189,10377.612Z" transform="translate(-217.796 -10336.84)" fill="#fff"/>
      <path id="Trazado_194659" data-name="Trazado 194659" d="M258.31,10394.245a1.527,1.527,0,0,1-1.494,1.507,1.574,1.574,0,0,1-1.566-1.532,1.545,1.545,0,0,1,1.514-1.5A1.5,1.5,0,0,1,258.31,10394.245Z" transform="translate(-217.796 -10336.84)" fill="#fff"/>
    </g>
  </g>
</svg>
