<svg xmlns="http://www.w3.org/2000/svg" width="139.763" height="110.561" viewBox="0 0 139.763 110.561">
  <g id="Grupo_564514" data-name="Grupo 564514" transform="translate(-389.428 -7693.136)">
    <path id="Trazado_197873" data-name="Trazado 197873" d="M-10532-3883.857l-.033-110.375,110.518-.173,29.245,53.309-30.194,57.252Z" transform="translate(10921.463 11687.54)" fill="#8b7cf7"/>
    <g id="Grupo_562031" data-name="Grupo 562031" transform="translate(413.443 7708.436)">
      <path id="Trazado_194635" data-name="Trazado 194635" d="M245.015,10263.713v-2.313h36c.013-.309.033-.557.033-.8,0-4.762-.005-9.524.013-14.289a1.344,1.344,0,0,0-.511-1.129c-.722-.635-1.385-1.337-2.066-2.017q-8.256-8.253-16.506-16.51a7.52,7.52,0,0,1-.5-.624,18.32,18.32,0,0,1-15.892.961,17.856,17.856,0,0,1-9.429-8.592,18.334,18.334,0,0,1,27.394-23.024l-1.348,1.764a16.037,16.037,0,1,0,4.313,4.936l1.975-1.12a17.6,17.6,0,0,1,2.273,7.132,17.911,17.911,0,0,1-1.952,10.272.655.655,0,0,0,.17.923c1.946,1.919,3.868,3.861,5.808,5.786a5.256,5.256,0,0,0,.756.514l-1.79,1.715-6.155-6.164-3.833,3.854-.308-.236c.129.148.248.306.387.444q8.968,8.977,17.938,17.947a2.83,2.83,0,0,0,2.507.982,2.735,2.735,0,0,0,1.52-4.7q-4.355-4.367-8.722-8.724c-.533-.529-1.1-1.03-1.615-1.519l1.718-1.687,3.636,3.691.2-.078v-12.9H283.4v.944c0,4.606-.013,9.213.023,13.819a1.962,1.962,0,0,0,.5,1.2c1.08,1.162,2.223,2.268,3.352,3.382a5.121,5.121,0,0,1-3.563,8.952,1.668,1.668,0,0,0-.259.047,5.132,5.132,0,0,0-.053.525q0,8.161,0,16.318a3.077,3.077,0,0,0,.031.313Z" transform="translate(-227.836 -10183.751)" fill="#fff"/>
      <path id="Trazado_194636" data-name="Trazado 194636" d="M270.654,10184.29a7.922,7.922,0,0,0,.528.647c3.491,3.5,6.992,6.986,10.469,10.5a1.711,1.711,0,0,1,.5,1.051c.03,6.423.021,12.848.02,19.272,0,.151-.016.3-.028.521h-2.3v-18.655H268.894v-10.96h-18.23v-2.375Zm7.02,10.91-6.405-6.405v6.405Z" transform="translate(-226.613 -10184.29)" fill="#fff"/>
      <path id="Trazado_194637" data-name="Trazado 194637" d="M249.974,10184.29v2.327H230.619v33h-2.353v-35.33Z" transform="translate(-228.266 -10184.29)" fill="#fff"/>
      <path id="Trazado_194638" data-name="Trazado 194638" d="M228.266,10261.656v-42.18h2.324v39.8H243.1v2.381Z" transform="translate(-228.266 -10181.697)" fill="#fff"/>
      <path id="Trazado_194639" data-name="Trazado 194639" d="M265.842,10209.655a13.691,13.691,0,1,1-13.611-13.712A13.68,13.68,0,0,1,265.842,10209.655Zm-2.35.014a11.343,11.343,0,1,0-11.323,11.31A11.361,11.361,0,0,0,263.492,10209.669Z" transform="translate(-227.514 -10183.431)" fill="#fff"/>
      <path id="Trazado_194640" data-name="Trazado 194640" d="M243.83,10249.826v-2.234h14v2.234Z" transform="translate(-227.118 -10179.621)" fill="#fff"/>
      <path id="Trazado_194641" data-name="Trazado 194641" d="M236.7,10235.854v-2.255h9.6v2.255Z" transform="translate(-227.644 -10180.651)" fill="#fff"/>
      <path id="Trazado_194642" data-name="Trazado 194642" d="M252.309,10233.593h9.586v2.251h-9.586Z" transform="translate(-226.492 -10180.652)" fill="#fff"/>
      <path id="Trazado_194643" data-name="Trazado 194643" d="M264.817,10238.277v2.245H255.2v-2.245Z" transform="translate(-226.279 -10180.308)" fill="#fff"/>
      <path id="Trazado_194644" data-name="Trazado 194644" d="M246.013,10242.927v2.239h-9.3v-2.239Z" transform="translate(-227.642 -10179.966)" fill="#fff"/>
      <path id="Trazado_194645" data-name="Trazado 194645" d="M261.287,10245.188h-9.269v-2.257h9.269Z" transform="translate(-226.513 -10179.963)" fill="#fff"/>
      <path id="Trazado_194646" data-name="Trazado 194646" d="M245.531,10238.268v2.249h-8.81v-2.249Z" transform="translate(-227.642 -10180.31)" fill="#fff"/>
      <path id="Trazado_194647" data-name="Trazado 194647" d="M253.36,10238.273v2.235h-6.17v-2.235Z" transform="translate(-226.87 -10180.308)" fill="#fff"/>
      <path id="Trazado_194648" data-name="Trazado 194648" d="M241.945,10247.6v2.229H236.7v-2.229Z" transform="translate(-227.643 -10179.62)" fill="#fff"/>
      <path id="Trazado_194649" data-name="Trazado 194649" d="M271.9,10242.941v2.238h-4.615v-2.238Z" transform="translate(-225.387 -10179.963)" fill="#fff"/>
      <path id="Trazado_194650" data-name="Trazado 194650" d="M263.233,10199.875l-1.4-1.6,1.7-1.577,1.56,1.75Z" transform="translate(-225.789 -10183.374)" fill="#fff"/>
      <path id="Trazado_194651" data-name="Trazado 194651" d="M247.918,10233.6h2.259v2.247h-2.259Z" transform="translate(-226.816 -10180.652)" fill="#fff"/>
      <path id="Trazado_194652" data-name="Trazado 194652" d="M247.635,10242.919h2.243v2.243h-2.243Z" transform="translate(-226.837 -10179.965)" fill="#fff"/>
      <path id="Trazado_194653" data-name="Trazado 194653" d="M262.926,10242.9h2.232v2.273h-2.232Z" transform="translate(-225.709 -10179.967)" fill="#fff"/>
      <path id="Trazado_194654" data-name="Trazado 194654" d="M258.373,10204.952l1.5,1.632-5.48,5.661-4.074-2.974-4.685,4.743-1.657-1.592,6.194-6.163,3.848,2.8Z" transform="translate(-227.107 -10182.767)" fill="#fff"/>
    </g>
  </g>
</svg>
