<svg xmlns="http://www.w3.org/2000/svg" width="102" height="96.647" viewBox="0 0 102 96.647">
  <g id="Grupo_563845" data-name="Grupo 563845" transform="translate(-1169.065 -11250.308)">
    <circle id="Elipse_4054" data-name="Elipse 4054" cx="48" cy="48" r="48" transform="translate(1172.065 11250.308)" fill="#7783a9"/>
    <ellipse id="Elipse_5467" data-name="Elipse 5467" cx="51" cy="8.5" rx="51" ry="8.5" transform="translate(1169.065 11329.308)" fill="#26a0df"/>
    <g id="portapapeles" transform="translate(1129.744 11261.674)">
      <g id="icon_98_" transform="translate(59.885 0.001)">
        <path id="Trazado_191457" data-name="Trazado 191457" d="M62.321,46.656H119.4a2.4,2.4,0,0,1,2.436,2.358V116.35a2.4,2.4,0,0,1-2.436,2.359H62.321a2.4,2.4,0,0,1-2.436-2.358V49.014a2.4,2.4,0,0,1,2.436-2.358Z" transform="translate(-59.885 -38.705)" fill="#f6c863"/>
        <path id="Trazado_191458" data-name="Trazado 191458" d="M82.255,67.813h49.673v63.733H82.255Z" transform="translate(-75.857 -56.256)" fill="#eeefee"/>
        <path id="Trazado_191459" data-name="Trazado 191459" d="M113.5,129.4H103.371v-9.5H113.5Zm-8.286-1.727h6.445v-6.045h-6.445Z" transform="translate(-93.057 -99.47)" fill="#575b6d"/>
        <path id="Trazado_191460" data-name="Trazado 191460" d="M184.5,127.011h28.6v1.69H184.5Z" transform="translate(-163.262 -105.365)" fill="#dbd8dd"/>
        <path id="Trazado_191461" data-name="Trazado 191461" d="M184.5,158.635h18.555v1.69H184.5Z" transform="translate(-163.262 -131.6)" fill="#dbd8dd"/>
        <path id="Trazado_191469" data-name="Trazado 191469" d="M184.5,158.635h18.555v1.69H184.5Z" transform="translate(-163.262 -126.6)" fill="#dbd8dd"/>
        <path id="Trazado_191470" data-name="Trazado 191470" d="M184.5,158.635h18.555v1.69H184.5Z" transform="translate(-163.262 -106.238)" fill="#dbd8dd"/>
        <path id="Trazado_191462" data-name="Trazado 191462" d="M113.5,246.59H103.371v-9.5H113.5Zm-8.286-1.727h6.445v-6.048h-6.445Z" transform="translate(-93.057 -196.682)" fill="#575b6d"/>
        <path id="Trazado_191463" data-name="Trazado 191463" d="M184.5,244.2h28.6v1.69H184.5Z" transform="translate(-163.262 -202.578)" fill="#dbd8dd"/>
        <path id="Trazado_191464" data-name="Trazado 191464" d="M184.5,275.824h18.555v1.69H184.5Z" transform="translate(-163.262 -228.817)" fill="#dbd8dd"/>
        <path id="Trazado_191465" data-name="Trazado 191465" d="M113.5,363.773H103.371v-9.5H113.5Zm-8.286-1.727h6.445V356h-6.445Z" transform="translate(-93.057 -293.894)" fill="#575b6d"/>
        <path id="Trazado_191466" data-name="Trazado 191466" d="M184.5,361.378h28.6v1.69H184.5Z" transform="translate(-163.262 -299.79)" fill="#dbd8dd"/>
        <path id="Trazado_191467" data-name="Trazado 191467" d="M184.5,393.008h18.555v1.69H184.5Z" transform="translate(-163.262 -326.03)" fill="#dbd8dd"/>
        <path id="Trazado_191468" data-name="Trazado 191468" d="M181.326,14.128l-2.088-6.372a3.581,3.581,0,0,0-3.415-2.463H170.76a5.051,5.051,0,0,0-10.09-.483q-.011.224,0,.449v.034H155.6a3.56,3.56,0,0,0-3.4,2.463l-2.087,6.372Z" transform="translate(-134.741 -0.001)" fill="#575b6d"/>
        <circle id="Elipse_5518" data-name="Elipse 5518" cx="2.27" cy="2.27" r="2.27" transform="translate(28.023 5.445) rotate(-67.486)" fill="#eeefee"/>
      </g>
    </g>
    <g id="Grupo_148062" data-name="Grupo 148062" transform="translate(163.238 10178.856)">
      <path id="Trazado_191471" data-name="Trazado 191471" d="M27.808,195.434,18.573,179.44v-8.275H9.8v8.275L.563,195.434a4.122,4.122,0,0,0,3.57,6.183H24.238a4.122,4.122,0,0,0,3.57-6.183Zm0,0" transform="translate(1043.183 966.48)" fill="#e6e6e6"/>
      <path id="Trazado_191472" data-name="Trazado 191472" d="M18.569,156.193l-2.687-1.51-5.149.054-.94,1.456v8.275l-9.234,16a4.121,4.121,0,0,0,3.569,6.183H9.616c-1.441,0-2.342-3.435-1.621-6.183l4.194-16V160.22a1.581,1.581,0,0,1,1.581-1.581h4.8Zm0,0" transform="translate(1043.187 981.452)" fill="#ccc"/>
      <path id="Trazado_191473" data-name="Trazado 191473" d="M87.312,132.2a1.87,1.87,0,0,1-1.87,1.87h-11.4a1.87,1.87,0,0,1,0-3.741h11.4a1.87,1.87,0,0,1,1.87,1.87Zm0,0" transform="translate(977.626 1003.576)" fill="#ccc"/>
      <path id="Trazado_191474" data-name="Trazado 191474" d="M53.842,336.505a1.2,1.2,0,0,1-1.077.622H32.659a1.244,1.244,0,0,1-1.078-1.866l6.786-11.754h8.689l6.785,11.754a1.2,1.2,0,0,1,0,1.244Zm0,0" transform="translate(1014.656 828.094)" fill="#9eb7e5"/>
      <g id="Grupo_147561" data-name="Grupo 147561" transform="translate(1057.405 1094.437)">
        <path id="Trazado_191381" data-name="Trazado 191381" d="M36.525,333.822a8.53,8.53,0,0,0-.164,3.305h-3.7a1.244,1.244,0,0,1-1.078-1.866l6.786-11.754h.862Zm0,0" transform="translate(-42.749 -266.343)" fill="#849ac2"/>
      </g>
      <path id="Trazado_191475" data-name="Trazado 191475" d="M82.148,131.6a1.252,1.252,0,0,1-1.232,1.27H73.4a1.21,1.21,0,0,1-.871-.372,1.286,1.286,0,0,1-.361-.9,1.252,1.252,0,0,1,1.232-1.27h7.511a1.211,1.211,0,0,1,.871.372A1.287,1.287,0,0,1,82.148,131.6Zm0,0" transform="translate(982.79 1003.576)" fill="#e2e2e2"/>
    </g>
  </g>
</svg>
