<svg xmlns="http://www.w3.org/2000/svg" xmlns:xlink="http://www.w3.org/1999/xlink" width="160" height="124" viewBox="0 0 160 124">
  <defs>
    <clipPath id="clip-path">
      <rect id="Rectángulo_41225" data-name="Rectángulo 41225" width="160" height="124" transform="translate(721 11786)" fill="#fff" stroke="#707070" stroke-width="1"/>
    </clipPath>
  </defs>
  <g id="Enmascarar_grupo_163" data-name="Enmascarar grupo 163" transform="translate(-721 -11786)" clip-path="url(#clip-path)">
    <g id="_9" data-name="9" transform="translate(380.227 11544.299)">
      <g id="Grupo_564310" data-name="Grupo 564310" transform="translate(343.861 248.699)">
        <g id="_3" data-name="3">
          <g id="Grupo_564306" data-name="Grupo 564306">
            <g id="_4" data-name="4" transform="translate(0 39.846)">
              <path id="Trazado_198384" data-name="Trazado 198384" d="M392.4,286a2.247,2.247,0,0,1-1.049-1.3c-.942-2.689-1.162-11.245-.428-14.054l-27.739.63c-.016,2.28,1.282,8.137.721,11.663-.29,1.81-.585,3.464-2.54,4.466.156.8.541,1.5.708,2.311a18.99,18.99,0,0,0,.666,2.509,11.194,11.194,0,0,0,2.8,4.384,15.355,15.355,0,0,0,10.73,3.994,17.325,17.325,0,0,0,13.233-5.911c.548-1.476,1.242-2.9,1.645-4.435.173-.666.109-1.449.341-2.075a5.785,5.785,0,0,1,1.138-1.625.383.383,0,0,0,.118-.2C392.764,286.18,392.561,286.077,392.4,286Z" transform="translate(-329.585 -270.647)" fill="#e2a77d"/>
              <path id="Trazado_198385" data-name="Trazado 198385" d="M360.819,328.621l.091-.534s0,.2.005.534h31.891V287.156c-1.086.071-2.159.085-3.232.085-3.529,0-6-1.4-8.936-3.161-1.658-1-4.4-4.889-6.017-4.2-.36.158-.8.329-1.316.516-6.064,2.288-22.018,7.206-24.705,10.564-.888,1.117-1.587,1.443-2.246,2.7-.4.779-2.495,17.018-2.495,34.961Z" transform="translate(-343.861 -263.186)" fill="#e6e7e8"/>
              <path id="Trazado_198386" data-name="Trazado 198386" d="M420.567,329.331c-2.11-13.783-1.658-30.308-6.61-38.882a7.274,7.274,0,0,0-3.448-3.037,202.954,202.954,0,0,0-21.659-7.382c-2.8-.713-4.7-1.144-4.72-1.1a14.135,14.135,0,0,1-3.159,4.833,10.881,10.881,0,0,1-4.49,3.045,20.614,20.614,0,0,1-5.661,1.058v41.466Z" transform="translate(-321.875 -263.895)" fill="#d6d7d8"/>
              <path id="Trazado_198387" data-name="Trazado 198387" d="M389.495,280.03c-2.8-.713-4.7-1.144-4.72-1.1a14.134,14.134,0,0,1-3.159,4.833,10.881,10.881,0,0,1-4.49,3.045,20.614,20.614,0,0,1-5.661,1.058c-.479.031-.959.049-1.434.062V314.25c.478.506.931,1,1.434,1.523C381.5,303.362,388.008,297.286,389.495,280.03Z" transform="translate(-322.52 -263.895)" fill="#cccdce"/>
              <path id="Trazado_198388" data-name="Trazado 198388" d="M376.349,287.241c-3.529,0-6-1.4-8.936-3.161-1.658-1-4.4-4.889-6.017-4.2-.36.158-.8.329-1.316.516.249,5.984,3.219,17.374,18.066,33.147V287.217C377.545,287.234,376.948,287.241,376.349,287.241Z" transform="translate(-330.634 -263.186)" fill="#d6d7d8"/>
              <path id="Trazado_198389" data-name="Trazado 198389" d="M370.477,292.165a3.013,3.013,0,0,1,.283,2.062l-3.435,15.588a24.145,24.145,0,0,0,4.591,1.743c3.72.913,5.9-.733,7.066-3.745l-2.992-13.585c-.463-2.1,1.961-3.511,1.623-5.479-.172-1-1.313-1.59-1.944-2.278-.688-.748-1.2-1.917-2.168-2.342-1.774-.783-3.818,1.471-4.7,3.2-.45.886-.265,1.216.185,2.035C369.5,290.293,369.981,291.234,370.477,292.165Z" transform="translate(-324.726 -259.784)" fill="#6a828c"/>
            </g>
            <g id="Grupo_564305" data-name="Grupo 564305" transform="translate(27.358)">
              <g id="Grupo_564304" data-name="Grupo 564304">
                <path id="Trazado_198390" data-name="Trazado 198390" d="M362.194,276.295a4.422,4.422,0,0,0,1.311,2.651l6.294,6.029c-1.411-6.674-4.891-12.12-8.745-17.863Z" transform="translate(-357.198 -233.684)" fill="#f0b784"/>
                <path id="Trazado_198391" data-name="Trazado 198391" d="M393.268,281.466l1.087-9.264c-.013-3.7.105-7.42-.042-11.114a4.975,4.975,0,0,0-2.661-4.637c-2.351-1.472-4.15-.719-6.234.047a17.4,17.4,0,0,1-2.184.679c-2.224.5-4.682.946-6.815-.08-3.5-1.687-6.886-4.43-11.073-4.188a5.218,5.218,0,0,0-2.144.545,5.709,5.709,0,0,0-2.533,3.676c-1,3.6.5,6.623.127,10.332.027,1.67.054,3.333.082,5l.775,6.242c3.854,5.742,7.335,11.189,8.745,17.863l1.505,1.441a3.689,3.689,0,0,0,2.583,1.042l3.215-.024,3.224-.027a3.686,3.686,0,0,0,2.556-1.073l2.237-2.191C385.819,289.685,387.847,283.645,393.268,281.466Z" transform="translate(-357.797 -245.279)" fill="#ffc28e"/>
                <path id="Trazado_198392" data-name="Trazado 198392" d="M381.859,268.632c-5.421,2.179-7.449,8.219-7.549,14.272l5.919-5.8a2.882,2.882,0,0,0,.837-1.727Z" transform="translate(-346.388 -232.444)" fill="#f0b784"/>
                <path id="Trazado_198393" data-name="Trazado 198393" d="M363.855,265.593c-.24-1.648-.423-2.961-.53-3.326s-.272-.761-.648-.842c-.2-.044-.427.205-.6.1-1.345-.835-2.184.123-2.607,1.458a4.663,4.663,0,0,0,.34,3.976c.8,1.616,1.311,3.393,1.984,5.073.172.432.908,2.888,1.514,2.885l2.936-.024C365.266,274.9,364.407,269.363,363.855,265.593Z" transform="translate(-358.732 -238.497)" fill="#ffc28e"/>
                <path id="Trazado_198394" data-name="Trazado 198394" d="M378.982,265.625a12.05,12.05,0,0,1,1.02-3.636c.29-.619.931-1.342,1.554-1.022a4.626,4.626,0,0,1,1.806,2.371c.546,1.353.011,2.059-.514,3.353-.341.839-2.729,8.24-3.255,8.244l-2.936.024a49.89,49.89,0,0,0,1.91-6.185C378.76,267.642,378.842,266.627,378.982,265.625Z" transform="translate(-344.473 -238.76)" fill="#ffc28e"/>
                <path id="Trazado_198395" data-name="Trazado 198395" d="M363.407,278.852c-.289-2.827-.49-5.677-1-8.467-.673-3.715,1.271-7.565,3.33-10.75a2.677,2.677,0,0,1,1.349-1.249,3.008,3.008,0,0,1,2.384.715,53.99,53.99,0,0,0,7.792,3.549,45.713,45.713,0,0,0,8.324-.43c1.855-.427,4.368-1.846,6.251-.7,1.534.935,1.95,3.845,2.578,5.546l.107,14.057,1.737-5.619c1.383-4.94,1.736-16.339,1.736-16.339s-7.485-8.064-11.873-7.188c1.556-.31,4.4.142,5.955-.169-5.917-1.924-10.788-3.745-15.666-2.9a29.519,29.519,0,0,0-13.222,6.169,35.642,35.642,0,0,0-4.261,4.778S358.968,272.091,363.407,278.852Z" transform="translate(-358.93 -248.699)" fill="#393b42"/>
              </g>
              <path id="Trazado_198396" data-name="Trazado 198396" d="M366.031,272.087a23.956,23.956,0,0,0,14.312-.372q-.773,1.656-1.547,3.317a9.8,9.8,0,0,1-6.441,1.541A9.483,9.483,0,0,1,368.7,275.3Q367.364,273.69,366.031,272.087Z" transform="translate(-353.139 -229.93)" fill="#fff"/>
              <path id="Trazado_198397" data-name="Trazado 198397" d="M368.468,268.972l1.663,1.906a4.624,4.624,0,0,0,3.437.114,4.075,4.075,0,0,0,2.542-2.235l-1.309,3.885a15.344,15.344,0,0,1-5.534.152Z" transform="translate(-351.152 -232.342)" fill="#e2a77d"/>
            </g>
          </g>
          <g id="Grupo_564307" data-name="Grupo 564307" transform="translate(21.974 54.606)">
            <path id="Trazado_198398" data-name="Trazado 198398" d="M366.019,282.5c.428-1.216.759-2.331,1.013-3.3-2.184,1.008-4.392,1.961-6.657,2.767a25.453,25.453,0,0,0-4.263,9.671c-.465,9.286.316,9.709.316,9.709l12.625-2.124c.681,0-5.356,8.667-5.356,8.667,3.3,1.75,17.2,10.417,19.239,12.209l-.025-6.957C381.319,311.449,363.053,291.836,366.019,282.5Z" transform="translate(-355.965 -278.439)" fill="#fff"/>
            <path id="Trazado_198399" data-name="Trazado 198399" d="M382.862,300.327c-.067-.076-.087-.113-.074-.113a2.865,2.865,0,0,1,.472.365c1.788.732,8.017.3,11.679-.41-.071-10.455-1.525-16.368-4.083-19.734-1.826-.316-6.436-1.636-6.617-1.658.456.886,1.142,1.692,1.852,2.93a.966.966,0,0,0-.007.142,40.233,40.233,0,0,1-4.377,17.8c-.167.329-.334.652-.508.973l-10.39,12.848.025,6.957c4.905-6.766,16.023-12.04,18.841-14.065,0,0-4.862-4.464-6.414-5.784A1.029,1.029,0,0,1,382.862,300.327Z" transform="translate(-343.861 -278.777)" fill="#f0f1f2"/>
          </g>
          <path id="Trazado_198400" data-name="Trazado 198400" d="M396.142,263.271c-.085-.1-7.044-2.809-15.88.456-.83.114-1.61.154-2.041.169l-.042,0c-.439-.015-1.193-.056-2-.167a25.346,25.346,0,0,0-15.882-.456c-.485.588,0,1.447,0,1.451.016.027.381.12.427.142a2.347,2.347,0,0,1,1.084.781,5.221,5.221,0,0,1,.183,1.349,12.437,12.437,0,0,0,.5,2.211,4.681,4.681,0,0,0,1.845,2.505c1.923,1.144,5.875.9,7.879.409,2.209-.684,4.174-4.673,4.384-5.935.145-.772,1.049-.946,1.581-.982l.042,0c.525.029,1.474.194,1.623.986.209,1.262,2.175,5.25,4.386,5.935,2,.494,5.955.735,7.877-.409a4.69,4.69,0,0,0,1.845-2.505,12.61,12.61,0,0,0,.5-2.211,5.306,5.306,0,0,1,.18-1.349,2.372,2.372,0,0,1,1.086-.781c.043-.022.408-.114.425-.142A1.415,1.415,0,0,0,396.142,263.271Zm-27.483,8.015c-1.28-.14-2.957-.4-3.807-1.383a3.777,3.777,0,0,1-.708-1.414,5.394,5.394,0,0,1-.127-3.166,1.9,1.9,0,0,1,.545-.8c1-.864,2.732-.93,4.021-.9,2.945.078,5.782.425,6.007,2.516C374.52,267.385,373.412,271.807,368.659,271.286Zm23.638-2.8a3.746,3.746,0,0,1-.706,1.414c-.848.984-2.527,1.244-3.805,1.383-4.753.521-5.862-3.9-5.933-5.14.225-2.091,3.063-2.438,6.009-2.516,1.289-.033,3.014.033,4.019.9a1.934,1.934,0,0,1,.545.8A5.379,5.379,0,0,1,392.3,268.488Z" transform="translate(-330.632 -237.755)" fill="#373434"/>
          <path id="Trazado_198401" data-name="Trazado 198401" d="M363.906,277.418l13.476,11.739-7.9,9.452-8.118-16.724Z" transform="translate(-329.585 -225.279)" fill="#fff"/>
          <path id="Trazado_198402" data-name="Trazado 198402" d="M383.615,277.418l-13.191,11.739,7.609,9.452,8.118-16.724Z" transform="translate(-322.198 -225.279)" fill="#e6e7e8"/>
        </g>
      </g>
      <g id="_6" data-name="6" transform="translate(417.207 255.671)">
        <g id="_10" data-name="10" transform="translate(0 33.531)">
          <g id="Grupo_564311" data-name="Grupo 564311" transform="translate(28.411)">
            <path id="Trazado_198403" data-name="Trazado 198403" d="M399.91,289.356s5.234-4.953,2.867-16.572c-.991-4.866,19.68,1.812,19.68,1.812-1.238,2.9-2.193,6.656-.844,10.223,1.118,2.959,3.063,3.774,2.68,5.456-.654,2.858-11.1,5.314-13.1,5.118-2.022-.2-8.277-1.83-9.1-3.045A27.725,27.725,0,0,0,399.91,289.356Z" transform="translate(-399.91 -271.009)" fill="#f0b784"/>
          </g>
          <g id="Grupo_564313" data-name="Grupo 564313" transform="translate(0 14.871)">
            <path id="Trazado_198404" data-name="Trazado 198404" d="M399.1,281.115a34.466,34.466,0,0,0,14.141,4.2,23.155,23.155,0,0,0,14.444-3.78s1.387,4.061-5.608,12.569l-9.1,21.43a.3.3,0,1,1-.561,0l-9.1-21.43C398.268,285.044,399.1,281.115,399.1,281.115Z" transform="translate(-372.202 -277.638)" fill="#7ebfce"/>
            <path id="Trazado_198405" data-name="Trazado 198405" d="M446.617,329.006c-.733-7.836-2.829-29.489-4.039-34.024-1.685-6.307-5.408-7.974-11.6-9.864-.937-.289-14.215-3.117-13.369-5.88-2.794,9.137-5.624,18.295-8.431,27.441q-1.247,4.044-2.485,8.084c-.022-.065-.036-.125-.058-.192-.029-.087-.051-.176-.082-.263-.044-.162-.1-.316-.147-.47v15.168Z" transform="translate(-366.2 -279.169)" fill="#d6d7d8"/>
            <path id="Trazado_198406" data-name="Trazado 198406" d="M424.469,329.006V313.838c-.051.154-.1.309-.147.47-.029.087-.051.176-.08.263-.024.067-.036.127-.06.192q-1.245-4.036-2.484-8.084c-2.809-9.146-5.639-18.3-8.431-27.441.844,2.763-12.431,5.592-13.371,5.88-6.189,1.89-9.911,3.557-11.6,9.864-1.213,4.535-3.308,26.188-4.039,34.024Z" transform="translate(-384.261 -279.169)" fill="#e6e7e8"/>
            <g id="Grupo_564312" data-name="Grupo 564312" transform="translate(21.363)">
              <path id="Trazado_198407" data-name="Trazado 198407" d="M406.64,314.255l4.675-15.424L417.9,279.2l3.1,2.489c1.61.864,4.893,7.966,5.454,9.711l-7.975,3.115s4.5,4.931,4.5,4.938c.338.6-14.911,21.492-16.334,26.3-.045-.116-.105-.249-.163-.378V313.718Z" transform="translate(-387.507 -279.2)" fill="#f0f1f2"/>
              <path id="Trazado_198408" data-name="Trazado 198408" d="M403.6,295.282l-7.576-3.882c.563-1.745,3.164-8.847,4.775-9.711l3.1-2.489,6.588,19.631L415,313.718v11.655c-2.611-5.895-16.5-25.33-16.172-25.92C398.829,299.446,403.6,295.282,403.6,295.282Z" transform="translate(-396.028 -279.2)" fill="#fff"/>
            </g>
          </g>
        </g>
        <g id="Grupo_564314" data-name="Grupo 564314" transform="translate(57.427 20.175)">
          <path id="Trazado_198409" data-name="Trazado 198409" d="M415.941,263.908a.5.5,0,0,0-.024-.256C415.888,263.886,415.873,264.075,415.941,263.908Z" transform="translate(-415.893 -263.652)" fill="#a74214"/>
        </g>
        <g id="Grupo_564317" data-name="Grupo 564317" transform="translate(21.364)">
          <g id="Grupo_564316" data-name="Grupo 564316">
            <path id="Trazado_198410" data-name="Trazado 198410" d="M427.845,274.26l0,.031c-1.193-12-12.449-12.609-14.019-13.446v1.968c0-2.725-1.158-2.93-3.119-5.152a4.508,4.508,0,0,0-1.064-.955,3.462,3.462,0,0,0-2.723-.143,7.808,7.808,0,0,0-4.771,4.813,17.311,17.311,0,0,0-.715,5.958c-.044,1.763-.721,3.135-1.077,4.9a20.93,20.93,0,0,0-.31,2.239,2.083,2.083,0,0,0-1.412-.523c-1.425-.025-1.95.866-1.5,2.012.6,1.57.63.3,1.164,3.682.29,1.846,1,2.485,2.444,2.8,1.017,3.386,2.235,6.289,4.551,8.161.272.22.541.445.813.67a17.314,17.314,0,0,0,5.312,3.46,6.266,6.266,0,0,0,2.407.341c.04,0,.082,0,.122,0,3.526.225,6.278-2.554,8.654-4.47,3.391-2.738,5.052-9.805,4.586-8.233,2.662-.761,1.828-3.217,2.585-5.027.2-.479.514-.9.7-1.385C431.191,274.138,429.208,273.43,427.845,274.26Z" transform="translate(-395.252 -249.429)" fill="#ffc28e"/>
            <path id="Trazado_198411" data-name="Trazado 198411" d="M433.472,271.229a41.109,41.109,0,0,0-1.59-7.75c-2.035-6.772-10.356-11.062-17.4-10.936a14.882,14.882,0,0,0-3.019.349,31.355,31.355,0,0,0-3.869,1.225,19.663,19.663,0,0,0-5.076,2.469c-3.74,2.79-5.666,7.088-6.3,11.6a29.732,29.732,0,0,0-.162,4.775,21.552,21.552,0,0,0,1.173,6.986,17.59,17.59,0,0,0,1.405,3.326,14.32,14.32,0,0,0,1.02,1.454.5.5,0,0,1,.145-.076,3.919,3.919,0,0,1-.717-1.892,9.771,9.771,0,0,0-.465-2.3c-.2-.479-.514-.9-.7-1.385a1.57,1.57,0,0,1,.08-1.489,1.708,1.708,0,0,1,1.42-.523,1.958,1.958,0,0,1,1.879,1.534,6.9,6.9,0,0,1,.1-1.678,10.738,10.738,0,0,1,.174-1.959c.361-2,1.725-4.11,2.674-5.893a32.03,32.03,0,0,0,2.959-7.656,15.45,15.45,0,0,0,7.282,5.167,15.1,15.1,0,0,0,1.87.5c1.224.242,2.478.33,3.7.608a9.306,9.306,0,0,1,6.463,4.709c0-.354-.423-2.07.009-1.421.657,1.752,1.737,5.014,1.472,6.893a5.138,5.138,0,0,0,.563-1.071c.027.2.051.392.069.592l0-.02a2.164,2.164,0,0,1,1.133-.307,1.7,1.7,0,0,1,1.418.523,1.555,1.555,0,0,1,.082,1.489c-.185.483-.5.906-.7,1.385a9.862,9.862,0,0,0-.465,2.3,3.494,3.494,0,0,1-.926,2.113c-.252.231-.955.372-1.195.617-.412.423-.309.986-.368,1.634a16.421,16.421,0,0,0,5.83-10.67A22.791,22.791,0,0,0,433.472,271.229Z" transform="translate(-396.029 -252.54)" fill="#393b42"/>
            <g id="Grupo_564315" data-name="Grupo 564315" transform="translate(24.82 32.696)">
              <path id="Trazado_198412" data-name="Trazado 198412" d="M418.2,274.251a15.381,15.381,0,0,1,.775,2.868c.374,2.74-.743,5.472-2.175,7.834-1.236,2.042-2.772,4.05-3.008,6.427-.263,2.687,1.2,5.27,1.24,7.968A7.819,7.819,0,0,1,409.7,306.7a17.6,17.6,0,0,0,2.309-3.526,5.923,5.923,0,0,0,.41-4.112c-.31-1-.969-1.866-1.334-2.85a8.672,8.672,0,0,1-.427-2.985c-.025-4.134.082-8.8,1.91-12.511,1.336-2.712,3.106-4.9,3.74-7.781.1-.472.383-.962.51-1.427a1.273,1.273,0,0,1,.7-.942A9.477,9.477,0,0,0,418.2,274.251Z" transform="translate(-409.7 -270.535)" fill="#393b42"/>
              <path id="Trazado_198413" data-name="Trazado 198413" d="M413.085,301.784a7.369,7.369,0,0,1-.347,1.171c-.287.748-1.2,2.376-2.037,2.554a6.022,6.022,0,0,0,3.94-3.063,7.993,7.993,0,0,0,.764-5c-.287-1.828-1.1-3.7-.537-5.459.474-1.469,1.8-2.469,2.807-3.638a11.246,11.246,0,0,0,2.605-7.208,14.79,14.79,0,0,0-2.062-7.454,6.27,6.27,0,0,1-1.225-3.137,1.966,1.966,0,0,0-1.262,1.619,6.386,6.386,0,0,0,.154,2.151c.643,3.631.739,7.567-1.044,10.795-.481.873-1.087,1.672-1.574,2.543a10.5,10.5,0,0,0-1.245,6.243c.207,1.823.891,3.562,1.153,5.377A7.275,7.275,0,0,1,413.085,301.784Z" transform="translate(-408.884 -270.549)" fill="#414244"/>
            </g>
          </g>
          <path id="Trazado_198414" data-name="Trazado 198414" d="M427.52,265.768a17.28,17.28,0,0,0-12.964.365,16.517,16.517,0,0,1-1.665.136h-.035c-.359-.013-.975-.045-1.632-.136a17.271,17.271,0,0,0-12.961-.365c-.4.472,0,1.16,0,1.164a3.424,3.424,0,0,0,.349.113,1.924,1.924,0,0,1,.882.628,4.062,4.062,0,0,1,.149,1.08,9.76,9.76,0,0,0,.41,1.772,3.764,3.764,0,0,0,1.505,2.013c1.569.917,4.867.793,6.5.4,1.8-.548,3.339-3.818,3.509-4.829.118-.621.853-.761,1.289-.788l.035,0c.428.022,1.2.154,1.325.79.169,1.011,1.7,4.281,3.508,4.829,1.636.4,4.933.521,6.5-.4a3.764,3.764,0,0,0,1.505-2.013,9.609,9.609,0,0,0,.41-1.772,4.139,4.139,0,0,1,.147-1.08,1.94,1.94,0,0,1,.884-.628,3.617,3.617,0,0,0,.35-.113S427.916,266.24,427.52,265.768Zm-22.512,6.952c-1.22-.131-2.827-.376-3.64-1.3a3.515,3.515,0,0,1-.675-1.327,4.983,4.983,0,0,1-.122-2.976,1.811,1.811,0,0,1,.521-.746c.96-.813,2.612-.873,3.843-.842,2.816.073,5.528.4,5.744,2.364C410.612,269.054,409.552,273.21,405.008,272.72Zm20.081-2.627a3.489,3.489,0,0,1-.675,1.327c-.812.924-2.418,1.169-3.64,1.3-4.544.49-5.6-3.665-5.672-4.827.216-1.964,2.928-2.291,5.744-2.364,1.233-.031,2.883.029,3.843.842a1.793,1.793,0,0,1,.521.746A4.954,4.954,0,0,1,425.089,270.093Z" transform="translate(-394.35 -242.624)" fill="#373434"/>
        </g>
      </g>
    </g>
  </g>
</svg>
