<svg xmlns="http://www.w3.org/2000/svg" xmlns:xlink="http://www.w3.org/1999/xlink" width="160" height="124" viewBox="0 0 160 124">
  <defs>
    <clipPath id="clip-path">
      <rect id="Rectángulo_41239" data-name="Rectángulo 41239" width="160" height="124" transform="translate(-9061 86)" fill="#fff" stroke="#707070" stroke-width="1"/>
    </clipPath>
  </defs>
  <g id="Enmascarar_grupo_165" data-name="Enmascarar grupo 165" transform="translate(9061 -86)" clip-path="url(#clip-path)">
    <g id="_8" data-name="8" transform="translate(-9276.163 -155.865)">
      <g id="Grupo_564359" data-name="Grupo 564359" transform="translate(226.132 271.085)">
        <g id="Grupo_564357" data-name="Grupo 564357">
          <g id="Grupo_564355" data-name="Grupo 564355" transform="translate(24.166 53.599)">
            <path id="Trazado_198461" data-name="Trazado 198461" d="M262.848,295.795l-8-1.054-8,1.054-.552,3.134H263.4Z" transform="translate(-235.694 -294.74)" fill="#2c3e50"/>
            <path id="Trazado_198462" data-name="Trazado 198462" d="M264.093,297.169H246.979l-1.645,9.337h20.4Z" transform="translate(-236.385 -292.98)" fill="#34495e"/>
            <path id="Trazado_198463" data-name="Trazado 198463" d="M278.289,305.7l-.973-1.487c-1.147-.754-7.705-1.176-7.705-1.176h-.033l-.079-.454h-20.4l-.081.454h-.033s-6.558.423-7.7,1.176L240.3,305.7c-.4.264.007.712.643.712h36.7C278.28,306.411,278.689,305.963,278.289,305.7Z" transform="translate(-240.145 -289.058)" fill="#48647c"/>
          </g>
          <g id="Grupo_564356" data-name="Grupo 564356">
            <rect id="Rectángulo_41258" data-name="Rectángulo 41258" width="86.635" height="54.939" rx="0.195" fill="#34495e"/>
            <rect id="Rectángulo_41259" data-name="Rectángulo 41259" width="77.337" height="47.332" transform="translate(4.648 3.804)" fill="#e0e0e0"/>
          </g>
        </g>
        <rect id="Rectángulo_41260" data-name="Rectángulo 41260" width="16.786" height="36.881" transform="translate(7.38 8.783)" fill="#bdc3c7"/>
        <rect id="Rectángulo_41261" data-name="Rectángulo 41261" width="16.786" height="36.881" transform="translate(29.125 8.783)" fill="#bdc3c7"/>
        <g id="Grupo_564358" data-name="Grupo 564358" transform="translate(50.871 9.434)">
          <rect id="Rectángulo_41262" data-name="Rectángulo 41262" width="26.816" height="2.774" fill="#bdc3c7"/>
          <rect id="Rectángulo_41263" data-name="Rectángulo 41263" width="26.816" height="2.774" transform="translate(0 6.691)" fill="#bdc3c7"/>
          <rect id="Rectángulo_41264" data-name="Rectángulo 41264" width="26.816" height="2.774" transform="translate(0 13.382)" fill="#bdc3c7"/>
          <rect id="Rectángulo_41265" data-name="Rectángulo 41265" width="26.816" height="2.774" transform="translate(0 20.073)" fill="#bdc3c7"/>
          <rect id="Rectángulo_41266" data-name="Rectángulo 41266" width="26.816" height="2.774" transform="translate(0 26.764)" fill="#bdc3c7"/>
          <rect id="Rectángulo_41267" data-name="Rectángulo 41267" width="26.816" height="2.774" transform="translate(0 33.455)" fill="#bdc3c7"/>
        </g>
      </g>
      <g id="Grupo_564371" data-name="Grupo 564371" transform="translate(278.171 304.249)">
        <g id="Grupo_564362" data-name="Grupo 564362" transform="translate(29.285)">
          <g id="Grupo_564361" data-name="Grupo 564361" transform="translate(1.09 1.056)">
            <g id="Grupo_564360" data-name="Grupo 564360">
              <path id="Trazado_198464" data-name="Trazado 198464" d="M273.921,283.5v23.711a8.3,8.3,0,1,0,16.59,0V283.5Z" transform="translate(-273.921 -283.503)" fill="#7ebfce"/>
              <path id="Trazado_198465" data-name="Trazado 198465" d="M274.5,283.912V307.1a7.3,7.3,0,1,0,14.595,0v-23.19Z" transform="translate(-273.501 -283.207)" fill="#b6e7f2"/>
              <path id="Trazado_198466" data-name="Trazado 198466" d="M274.5,296.5v1.488a7.3,7.3,0,1,0,14.595,0V296.5Z" transform="translate(-273.501 -274.089)" fill="#ce1b31"/>
            </g>
            <path id="Trazado_198467" data-name="Trazado 198467" d="M275.023,284.317v22.217a6.085,6.085,0,0,0,4.6,5.96c.019.005.057-28.177.057-28.177Z" transform="translate(-273.123 -282.913)" fill="#c1c1c1" opacity="0.78" style="mix-blend-mode: overlay;isolation: isolate"/>
          </g>
          <rect id="Rectángulo_41268" data-name="Rectángulo 41268" width="18.31" height="1.762" fill="#7ebfce"/>
        </g>
        <g id="Grupo_564365" data-name="Grupo 564365" transform="translate(50.813)">
          <g id="Grupo_564364" data-name="Grupo 564364" transform="translate(1.089 1.056)">
            <g id="Grupo_564363" data-name="Grupo 564363">
              <path id="Trazado_198468" data-name="Trazado 198468" d="M286.4,283.5v23.711a8.3,8.3,0,1,0,16.59,0V283.5Z" transform="translate(-286.404 -283.503)" fill="#7ebfce"/>
              <path id="Trazado_198469" data-name="Trazado 198469" d="M286.983,283.912V307.1a7.3,7.3,0,1,0,14.593,0v-23.19Z" transform="translate(-285.984 -283.207)" fill="#b6e7f2"/>
              <path id="Trazado_198470" data-name="Trazado 198470" d="M286.983,292.515v8.354a7.3,7.3,0,1,0,14.593,0v-8.354Z" transform="translate(-285.984 -276.973)" fill="#ce1b31"/>
            </g>
            <path id="Trazado_198471" data-name="Trazado 198471" d="M287.507,284.317v22.217a6.083,6.083,0,0,0,4.6,5.96c.017.005.055-28.177.055-28.177Z" transform="translate(-285.605 -282.913)" fill="#c1c1c1" opacity="0.78" style="mix-blend-mode: overlay;isolation: isolate"/>
          </g>
          <rect id="Rectángulo_41269" data-name="Rectángulo 41269" width="18.308" height="1.762" fill="#7ebfce"/>
        </g>
        <g id="Grupo_564368" data-name="Grupo 564368" transform="translate(7.757)">
          <g id="Grupo_564367" data-name="Grupo 564367" transform="translate(1.09 1.056)">
            <g id="Grupo_564366" data-name="Grupo 564366">
              <path id="Trazado_198472" data-name="Trazado 198472" d="M261.438,283.5v23.711a8.3,8.3,0,1,0,16.592,0V283.5Z" transform="translate(-261.438 -283.503)" fill="#7ebfce"/>
              <path id="Trazado_198473" data-name="Trazado 198473" d="M262.018,283.912V307.1a7.3,7.3,0,1,0,14.591,0v-23.19Z" transform="translate(-261.018 -283.207)" fill="#b6e7f2"/>
              <path id="Trazado_198474" data-name="Trazado 198474" d="M262.018,293.842v6.065a7.3,7.3,0,1,0,14.591,0v-6.065Z" transform="translate(-261.018 -276.012)" fill="#ce1b31"/>
            </g>
            <path id="Trazado_198475" data-name="Trazado 198475" d="M262.541,284.317v22.217a6.081,6.081,0,0,0,4.6,5.96c.017.005.055-28.177.055-28.177Z" transform="translate(-260.639 -282.913)" fill="#c1c1c1" opacity="0.78" style="mix-blend-mode: overlay;isolation: isolate"/>
          </g>
          <rect id="Rectángulo_41270" data-name="Rectángulo 41270" width="18.31" height="1.762" fill="#7ebfce"/>
        </g>
        <g id="Grupo_564370" data-name="Grupo 564370" transform="translate(0 5.387)">
          <rect id="Rectángulo_41271" data-name="Rectángulo 41271" width="75.413" height="3.695" transform="translate(0 5.462)" fill="#14b0bf"/>
          <rect id="Rectángulo_41272" data-name="Rectángulo 41272" width="75.413" height="4.158" transform="translate(0 29.386)" fill="#14b0bf"/>
          <g id="Grupo_564369" data-name="Grupo 564369" transform="translate(2.287)">
            <rect id="Rectángulo_41273" data-name="Rectángulo 41273" width="3.552" height="33.568" fill="#14b0bf"/>
            <rect id="Rectángulo_41274" data-name="Rectángulo 41274" width="3.552" height="33.568" transform="translate(67.287)" fill="#14b0bf"/>
          </g>
        </g>
      </g>
      <g id="Grupo_564375" data-name="Grupo 564375" transform="translate(294.607 253.412)">
        <g id="Grupo_564374" data-name="Grupo 564374" transform="translate(1.942)">
          <g id="_21" data-name="21" transform="translate(0 7.722)">
            <path id="Trazado_198476" data-name="Trazado 198476" d="M281.256,263.47l-1,.393c.241-.259.381-.44.381-.44a2.8,2.8,0,0,1,1.155-.766c.05-.007.088,0,.138-.007C281.7,262.922,281.47,263.191,281.256,263.47Z" transform="translate(-257.335 -254.44)" fill="#d1d3d4" style="mix-blend-mode: multiply;isolation: isolate"/>
            <g id="Grupo_564373" data-name="Grupo 564373">
              <path id="Trazado_198477" data-name="Trazado 198477" d="M272.651,273.159l4.542,4.722-.94,7.435a.956.956,0,0,0,.729,1.05,2.6,2.6,0,0,0,2.357-.476c1.321-1.157,1.876-6.826,1.876-6.826l.383-2.518s8.6-3.808,8.843-4.07-1.514-7.177-1.514-7.177l-11.77.948Z" transform="translate(-262.844 -252.522)" fill="#e7b088"/>
              <path id="Trazado_198478" data-name="Trazado 198478" d="M273.291,281.9s1.219,1.9,3.161-.379,1.8-11.987,1.8-11.987-4.346-.823-4.611-.755S273.291,281.9,273.291,281.9Z" transform="translate(-262.38 -250.003)" fill="#e7b088"/>
              <path id="Trazado_198479" data-name="Trazado 198479" d="M300.4,269.441,290.019,263.2l-12.943,5.153-2.385,2.071-3.311,8.305-.017.043-.4.867-1.405,3.063a1.155,1.155,0,0,0,.309,1.369.565.565,0,0,0,.064.048,1.15,1.15,0,0,0,.378.178l.033.007c.245.059.542.116.893.164a1.209,1.209,0,0,0,.845-.21c2.154-1.533,4.9-7.341,6.034-10.07a3.278,3.278,0,0,1,2.556-1.564c2.485-.219,7.291.212,8.857.9,1.485.647,1.114,1.971.383,2.959l-.012.019c-.038.048-.076.1-.116.145a1.9,1.9,0,0,1-.131.153l-.01.014c-.04.048-.081.091-.124.134s-.095.1-.145.145-.088.086-.131.124-.078.067-.117.1l-.041.033c-.04.029-.076.059-.114.086s-.088.062-.129.088c-1.095.705-9.926,3.584-11.054,4s-1.512,1.743-.528,3.278c.607.945,1.545.743,2.454.5a39.755,39.755,0,0,1,4.01-.88c2.8-.433,5.625-.585,8.433-.923a30.849,30.849,0,0,1,7.133,1.871,9.036,9.036,0,0,0,1.423.424c.1.022.191.04.286.057a9.173,9.173,0,0,0,1.1.124,8.769,8.769,0,0,0,1.316-.028c.134-.014.267-.028.4-.048.09-.01.179-.022.271-.04.116-.019.231-.041.343-.064.069-.012.135-.026.2-.041.133-.031.264-.062.393-.1.067-.017.129-.034.195-.053.129-.035.257-.074.378-.114l.186-.065c.062-.019.124-.041.183-.066s.121-.041.181-.066a13.4,13.4,0,0,0,4.429-2.83s17.816-12.512,17.606-12.843l-7.524-11.729L305.29,269.929C304.05,270.9,301.791,270.179,300.4,269.441Z" transform="translate(-265.162 -257.89)" fill="#f2c4a5"/>
              <g id="_3" data-name="3" transform="translate(0 0.205)">
                <path id="Trazado_198480" data-name="Trazado 198480" d="M295.022,258.009c-12.5,14.8-16.64,21.364-28.058,37.109q1.537,1.244,3.071,2.485c13.013-14.462,18.565-19.889,30.423-35.2Q297.739,260.205,295.022,258.009Z" transform="translate(-266.964 -258.009)" fill="#b6e7f2"/>
                <path id="Trazado_198481" data-name="Trazado 198481" d="M299.815,261.765q-1.774-1.436-3.547-2.87l-28.415,36.821c.512.414,1.026.831,1.54,1.245C282.405,282.5,287.957,277.072,299.815,261.765Z" transform="translate(-266.321 -257.367)" fill="#9ad2db"/>
                <path id="Trazado_198482" data-name="Trazado 198482" d="M295.022,258.009c-12.5,14.8-16.64,21.364-28.058,37.109q.766.621,1.531,1.24l28.415-36.821Q295.966,258.774,295.022,258.009Z" transform="translate(-266.964 -258.009)" fill="#b6e7f2"/>
              </g>
              <path id="Trazado_198483" data-name="Trazado 198483" d="M270.963,270.613l-1.405,3.063a1.155,1.155,0,0,0,.309,1.369,5.317,5.317,0,0,0,1.923-3.661,4.337,4.337,0,0,0-.035-.488,1.571,1.571,0,0,0-.648-.542C271.06,270.44,271.01,270.526,270.963,270.613Z" transform="translate(-265.162 -248.859)" fill="#ead4c1"/>
              <g id="Grupo_564372" data-name="Grupo 564372" transform="translate(11.529 18.559)">
                <path id="Trazado_198484" data-name="Trazado 198484" d="M286.856,268.706c-.038.048-.076.1-.116.145s-.088.1-.131.154l-.01.014c-.04.048-.083.093-.124.134s-.095.1-.145.145-.088.081-.131.124-.079.065-.117.1l-.041.033c-.04.029-.076.059-.114.086s-.088.062-.129.088c-1.095.705-9.926,3.584-11.054,4s-1.516,1.255-.528,3.278a1.8,1.8,0,0,0,2.24,1.04,39.854,39.854,0,0,1,4-1.023c2.8-.431,5.851-.981,8.659-1.319a30.849,30.849,0,0,1,7.133,1.871,9.026,9.026,0,0,0,1.423.424c.1.022.191.04.286.057a9.166,9.166,0,0,0,1.1.124,8.776,8.776,0,0,0,1.316-.028c.135-.014.267-.028.4-.048.09-.01.179-.022.271-.04.116-.019.231-.041.343-.064.069-.012.135-.026.2-.041.133-.031.264-.062.393-.1.067-.017.129-.034.195-.053.128-.036.255-.076.378-.114l.186-.066c.062-.019.124-.041.183-.066s.121-.041.181-.066c-.2-.278-.4-.554-.605-.823-3.835-5.027-9.254-8.405-15.63-7.985Z" transform="translate(-273.649 -268.651)" fill="#f2c4a5"/>
                <path id="Trazado_198485" data-name="Trazado 198485" d="M274.345,272.2a.771.771,0,0,0-.459.99l.688,1.869a.771.771,0,0,0,.99.459l1.809-.666a1.819,1.819,0,0,0,1.186-2.078,1.771,1.771,0,0,0-2.332-1.266Z" transform="translate(-273.512 -266.658)" fill="#ead4c1"/>
              </g>
              <path id="Trazado_198486" data-name="Trazado 198486" d="M292.7,279.891a36.6,36.6,0,0,1-4.323,1.545,8.776,8.776,0,0,0,1.316-.028c.135-.014.267-.028.4-.048.09-.01.179-.022.271-.04.116-.019.231-.041.343-.064.069-.012.134-.026.2-.041.133-.031.264-.062.393-.1.067-.017.129-.034.195-.053.129-.035.257-.074.378-.114l.186-.066c.062-.019.124-.041.183-.066s.121-.041.181-.066a13.4,13.4,0,0,0,4.429-2.83s17.816-12.512,17.606-12.843l-.6-.931c-1.926,1.559-5.819,4.608-13.31,10.2C297.03,276.987,295.026,278.711,292.7,279.891Z" transform="translate(-251.446 -253.354)" fill="#e7b088"/>
            </g>
          </g>
          <path id="Trazado_198487" data-name="Trazado 198487" d="M309.3,253.412l-19.866,15.934,6.031,9.613,21.572-14.591Z" transform="translate(-250.681 -253.412)" fill="#b6e7f2"/>
          <path id="Trazado_198488" data-name="Trazado 198488" d="M292.935,274.356l3.776,6.017,22.427-14.051-4.631-6.558Z" transform="translate(-248.147 -248.809)" fill="#7ebfce"/>
        </g>
        <path id="Trazado_198489" data-name="Trazado 198489" d="M269.722,284.758c.005,1.226-1.552,1.868-2.542,1.523s-1.8-1.8-1.043-2.773a23.964,23.964,0,0,1,3.089-3.1A24.105,24.105,0,0,1,269.722,284.758Z" transform="translate(-265.838 -233.851)" fill="#ce1b31"/>
        <path id="Trazado_198490" data-name="Trazado 198490" d="M267.652,283.154l9.152-7.307-7.557,8.6Z" transform="translate(-264.524 -237.157)" fill="#ce1b31"/>
      </g>
    </g>
  </g>
</svg>
