<svg xmlns="http://www.w3.org/2000/svg" xmlns:xlink="http://www.w3.org/1999/xlink" width="160" height="124" viewBox="0 0 160 124">
  <defs>
    <clipPath id="clip-path">
      <rect id="Rectángulo_41257" data-name="Rectángulo 41257" width="160" height="124" transform="translate(-8709 86)" fill="#fff" stroke="#707070" stroke-width="1"/>
    </clipPath>
  </defs>
  <g id="Enmascarar_grupo_166" data-name="Enmascarar grupo 166" transform="translate(8709 -86)" clip-path="url(#clip-path)">
    <g id="_11" data-name="11" transform="translate(-9045.171 -50.189)">
      <g id="_7" data-name="7" transform="translate(393.096 144.944)">
        <g id="Grupo_564327" data-name="Grupo 564327">
          <g id="Grupo_564321" data-name="Grupo 564321" transform="translate(0 10.33)">
            <g id="Grupo_564318" data-name="Grupo 564318">
              <path id="Trazado_198415" data-name="Trazado 198415" d="M408.775,150.52H380.347a5.166,5.166,0,0,0-5.165,5.165V230.8a5.164,5.164,0,0,0,5.165,5.163h57.762a5.165,5.165,0,0,0,5.165-5.165V155.685a5.166,5.166,0,0,0-5.165-5.165Z" transform="translate(-375.182 -150.52)" fill="#14b0bf"/>
            </g>
            <g id="Grupo_564319" data-name="Grupo 564319" transform="translate(3.385 3.153)">
              <path id="Trazado_198416" data-name="Trazado 198416" d="M407.264,152.222H380.6a3.6,3.6,0,0,0-3.6,3.6v72.051a3.6,3.6,0,0,0,3.6,3.6h54.131a3.6,3.6,0,0,0,3.6-3.6V155.818a3.6,3.6,0,0,0-3.6-3.6Z" transform="translate(-377.009 -152.222)" fill="#256"/>
            </g>
            <g id="Grupo_564320" data-name="Grupo 564320" transform="translate(6.143 6.586)">
              <path id="Trazado_198417" data-name="Trazado 198417" d="M406.014,154.075H378.5v72.462H434.3V154.075Z" transform="translate(-378.498 -154.075)" fill="#fff"/>
            </g>
          </g>
          <g id="_1" data-name="1" transform="translate(16.531)">
            <g id="Grupo_564322" data-name="Grupo 564322" transform="translate(6.434 8.405)">
              <path id="Trazado_198418" data-name="Trazado 198418" d="M399.57,149.481H387.578v2.738a3.529,3.529,0,0,0,3.529,3.529h17.85a3.529,3.529,0,0,0,3.529-3.529v-2.738Z" transform="translate(-387.578 -149.481)" fill="#256"/>
            </g>
            <g id="Grupo_564323" data-name="Grupo 564323" transform="translate(0.135 11.143)">
              <path id="Trazado_198419" data-name="Trazado 198419" d="M418.484,150.959H387.376a3.332,3.332,0,0,0-3.2,2.4h37.507A3.335,3.335,0,0,0,418.484,150.959Z" transform="translate(-384.178 -150.959)" fill="#17c5cc"/>
            </g>
            <g id="Grupo_564324" data-name="Grupo 564324" transform="translate(0 13.544)">
              <path id="Trazado_198420" data-name="Trazado 198420" d="M421.881,153.578v-.389a3.365,3.365,0,0,0-.133-.934H384.24a3.3,3.3,0,0,0-.135.934v.389a3.2,3.2,0,0,0,.057.6h37.663A3.543,3.543,0,0,0,421.881,153.578Z" transform="translate(-384.105 -152.255)" fill="#2dd"/>
            </g>
            <g id="Grupo_564325" data-name="Grupo 564325" transform="translate(0.057 15.465)">
              <path id="Trazado_198421" data-name="Trazado 198421" d="M384.136,153.292a3.33,3.33,0,0,0,3.275,2.736H418.52a3.334,3.334,0,0,0,3.279-2.736Z" transform="translate(-384.136 -153.292)" fill="#17c5cc"/>
            </g>
            <g id="Grupo_564326" data-name="Grupo 564326" transform="translate(6.434)">
              <path id="Trazado_198422" data-name="Trazado 198422" d="M408.957,149.029h-4.839a4.086,4.086,0,0,0-4.085-4.085,3.807,3.807,0,0,0-.463.048,4.07,4.07,0,0,0-3.622,4.037h-4.841a3.529,3.529,0,0,0-3.529,3.529v.791h24.908v-.791A3.529,3.529,0,0,0,408.957,149.029Zm-8.924,2.029a1.993,1.993,0,0,1-.463-.059,2.021,2.021,0,0,1,0-3.937,1.993,1.993,0,0,1,.463-.057,2.027,2.027,0,0,1,0,4.053Z" transform="translate(-387.578 -144.944)" fill="#17c5cc"/>
            </g>
          </g>
        </g>
        <g id="Grupo_564328" data-name="Grupo 564328" transform="translate(11.001 21.214)">
          <path id="Trazado_198423" data-name="Trazado 198423" d="M395.472,170.749H381.12V156.4h14.352ZM383.565,168.3h9.461v-9.461h-9.461Z" transform="translate(-381.12 -156.395)" fill="#17c5cc"/>
        </g>
        <g id="Grupo_564329" data-name="Grupo 564329" transform="translate(11.001 37.639)">
          <path id="Trazado_198424" data-name="Trazado 198424" d="M395.472,179.613H381.12V165.261h14.352Zm-11.907-2.445h9.461v-9.459h-9.461Z" transform="translate(-381.12 -165.261)" fill="#17c5cc"/>
        </g>
        <g id="Grupo_564330" data-name="Grupo 564330" transform="translate(11.001 54.062)">
          <path id="Trazado_198425" data-name="Trazado 198425" d="M395.472,188.478H381.12V174.126h14.352Zm-11.907-2.445h9.461v-9.461h-9.461Z" transform="translate(-381.12 -174.126)" fill="#17c5cc"/>
        </g>
        <g id="Grupo_564331" data-name="Grupo 564331" transform="translate(11.001 70.485)">
          <path id="Trazado_198426" data-name="Trazado 198426" d="M395.472,197.345H381.12V182.991h14.352ZM383.565,194.9h9.461v-9.459h-9.461Z" transform="translate(-381.12 -182.991)" fill="#17c5cc"/>
        </g>
        <g id="Grupo_564335" data-name="Grupo 564335" transform="translate(29.737 24.185)">
          <g id="Grupo_564332" data-name="Grupo 564332">
            <rect id="Rectángulo_41227" data-name="Rectángulo 41227" width="26.213" height="2.097" fill="#7ebfce"/>
          </g>
          <g id="Grupo_564333" data-name="Grupo 564333" transform="translate(0 3.719)">
            <rect id="Rectángulo_41228" data-name="Rectángulo 41228" width="26.213" height="2.097" fill="#7ebfce"/>
          </g>
          <g id="Grupo_564334" data-name="Grupo 564334" transform="translate(0 7.437)">
            <rect id="Rectángulo_41229" data-name="Rectángulo 41229" width="26.213" height="2.097" fill="#7ebfce"/>
          </g>
        </g>
        <g id="Grupo_564339" data-name="Grupo 564339" transform="translate(29.737 40.609)">
          <g id="Grupo_564336" data-name="Grupo 564336">
            <rect id="Rectángulo_41230" data-name="Rectángulo 41230" width="26.213" height="2.097" fill="#7ebfce"/>
          </g>
          <g id="Grupo_564337" data-name="Grupo 564337" transform="translate(0 3.718)">
            <rect id="Rectángulo_41231" data-name="Rectángulo 41231" width="26.213" height="2.098" fill="#7ebfce"/>
          </g>
          <g id="Grupo_564338" data-name="Grupo 564338" transform="translate(0 7.436)">
            <rect id="Rectángulo_41232" data-name="Rectángulo 41232" width="26.213" height="2.097" fill="#7ebfce"/>
          </g>
        </g>
        <g id="Grupo_564343" data-name="Grupo 564343" transform="translate(29.737 57.033)">
          <g id="Grupo_564340" data-name="Grupo 564340">
            <rect id="Rectángulo_41233" data-name="Rectángulo 41233" width="26.213" height="2.097" fill="#7ebfce"/>
          </g>
          <g id="Grupo_564341" data-name="Grupo 564341" transform="translate(0 3.719)">
            <rect id="Rectángulo_41234" data-name="Rectángulo 41234" width="26.213" height="2.096" fill="#7ebfce"/>
          </g>
          <g id="Grupo_564342" data-name="Grupo 564342" transform="translate(0 7.437)">
            <rect id="Rectángulo_41235" data-name="Rectángulo 41235" width="26.213" height="2.097" fill="#7ebfce"/>
          </g>
        </g>
        <g id="Grupo_564347" data-name="Grupo 564347" transform="translate(29.737 73.456)">
          <g id="Grupo_564344" data-name="Grupo 564344">
            <rect id="Rectángulo_41236" data-name="Rectángulo 41236" width="26.213" height="2.097" fill="#7ebfce"/>
          </g>
          <g id="Grupo_564345" data-name="Grupo 564345" transform="translate(0 3.718)">
            <rect id="Rectángulo_41237" data-name="Rectángulo 41237" width="26.213" height="2.097" fill="#7ebfce"/>
          </g>
          <g id="Grupo_564346" data-name="Grupo 564346" transform="translate(0 7.437)">
            <rect id="Rectángulo_41238" data-name="Rectángulo 41238" width="26.213" height="2.097" fill="#7ebfce"/>
          </g>
        </g>
        <g id="Grupo_564348" data-name="Grupo 564348" transform="translate(12.146 21.144)">
          <path id="Trazado_198427" data-name="Trazado 198427" d="M395.385,156.357l-7.432,12.7-4.908-8.52-1.306.661,6.205,10.771,8.744-14.946Z" transform="translate(-381.738 -156.357)" fill="#eb4747"/>
        </g>
        <g id="Grupo_564349" data-name="Grupo 564349" transform="translate(12.929 37.141)">
          <path id="Trazado_198428" data-name="Trazado 198428" d="M395.808,164.992l-7.432,12.7-4.906-8.521-1.308.662,6.205,10.771,8.744-14.946Z" transform="translate(-382.161 -164.992)" fill="#eb4747"/>
        </g>
      </g>
      <g id="Grupo_564352" data-name="Grupo 564352" transform="translate(433.991 169.487)">
        <g id="_13" data-name="13">
          <path id="Trazado_198429" data-name="Trazado 198429" d="M414.97,167.921l-5.567,3.451-7.071-2.481a.955.955,0,0,0-1.178.493,2.6,2.6,0,0,0-.031,2.4c.854,1.534,6.278,3.266,6.278,3.266l2.381.9s1.919,9.2,2.121,9.5,7.336.028,7.336.028l1.543-11.7Z" transform="translate(-394.204 -149.897)" fill="#e7b088"/>
          <path id="Trazado_198430" data-name="Trazado 198430" d="M402.875,167.228s-2.112.793-.295,3.17,11.34,4.278,11.34,4.278,1.717-4.076,1.706-4.35S402.875,167.228,402.875,167.228Z" transform="translate(-393.347 -150.488)" fill="#e7b088"/>
          <path id="Trazado_198431" data-name="Trazado 198431" d="M418.126,197.631l8.277-8.837-2.321-13.733-1.527-2.766-7.42-4.98-.039-.026-.767-.572-2.7-2.017a1.153,1.153,0,0,0-1.4.015.3.3,0,0,0-.057.052,1.081,1.081,0,0,0-.256.332l-.013.031a8.226,8.226,0,0,0-.346.839,1.183,1.183,0,0,0,.028.869c1.047,2.427,6.147,6.334,8.576,8.011a3.283,3.283,0,0,1,.993,2.827c-.307,2.477-1.738,7.082-2.736,8.47-.945,1.315-2.16.676-2.973-.245l-.015-.017c-.039-.048-.08-.1-.117-.143a1.46,1.46,0,0,1-.124-.163l-.011-.013c-.039-.048-.072-.1-.107-.148s-.076-.113-.109-.172a1.71,1.71,0,0,1-.093-.156q-.039-.067-.072-.133l-.024-.046c-.022-.046-.041-.089-.059-.132s-.043-.1-.059-.145c-.458-1.219-1.419-10.456-1.588-11.643s-1.386-1.845-3.094-1.2c-1.05.395-1.049,1.352-1,2.293a38.376,38.376,0,0,1,.019,4.1c-.165,2.823-.608,5.623-.869,8.437a30.657,30.657,0,0,1-3.325,6.58,9.419,9.419,0,0,0-.713,1.3c-.041.091-.076.178-.113.269a8.644,8.644,0,0,0-.354,1.05,8.968,8.968,0,0,0-.25,1.291c-.015.133-.03.267-.037.4-.007.091-.015.182-.018.276,0,.115-.007.233-.009.346,0,.07,0,.137,0,.206q0,.206.011.406c0,.069.007.133.011.2.005.133.017.265.031.393.009.067.017.132.024.2s.017.13.026.193.017.126.026.191a13.427,13.427,0,0,0,1.838,4.922s8.49,20.041,8.857,19.9l13.046-4.893-8.544-17.544C415.931,200.893,417.113,198.837,418.126,197.631Z" transform="translate(-393.815 -152.841)" fill="#f2c4a5"/>
          <g id="_3" data-name="3">
            <path id="Trazado_198432" data-name="Trazado 198432" d="M397.817,160.311c.5.865,1.286,2.212,2.677,4.605q1.4-1.134,2.8-2.264c-2.045-1.866-3.2-2.914-3.937-3.587Z" transform="translate(-396.78 -157.447)" fill="#f94e63"/>
            <path id="Trazado_198433" data-name="Trazado 198433" d="M413.753,182.954l2.495,3.091,6.889-2.026-3.456-4.279Z" transform="translate(-383.193 -139.821)" fill="#f94e63"/>
            <path id="Trazado_198434" data-name="Trazado 198434" d="M407.607,175.92q.614.814,1.238,1.636l5.413-4.368q-.672-.786-1.338-1.556Z" transform="translate(-388.433 -146.734)" fill="#16405e"/>
            <path id="Trazado_198435" data-name="Trazado 198435" d="M399.119,163.338c6,8.294,9.984,14.026,14.226,19.756l5.161-4.166c-4.707-5.356-9.47-10.452-16.314-18.07Z" transform="translate(-395.669 -155.92)" fill="#14b0bf"/>
            <path id="Trazado_198436" data-name="Trazado 198436" d="M419.952,180.8c-4.969-5.795-10.788-13.357-10.845-13.433,0,0-1.428,3.135,2.119,5.311,1.69,2.1,8.587,11.314,8.655,11.4a2.73,2.73,0,0,1,.5,1.288c.007.311-.083.748-.961.941-.723.159-.867.5-.861.752.024,1.024,3.07,2.462,4.005,2.879l.119.054.117-.061a2.256,2.256,0,0,0,1.023-2.16C423.783,186,422.479,183.648,419.952,180.8Z" transform="translate(-387.396 -150.37)" fill="#f94e63"/>
            <path id="Trazado_198437" data-name="Trazado 198437" d="M406.8,174.777q.742,1.006,1.5,2.012l5.313-4.289q-.828-.953-1.651-1.89Z" transform="translate(-389.122 -147.604)" fill="#f94e63"/>
            <path id="Trazado_198438" data-name="Trazado 198438" d="M408.275,176.839c3.077,4.035,6.51,8.327,11.058,13.724l5.439-4.391c-4.317-5.582-7.788-9.843-11.084-13.7Z" transform="translate(-387.863 -146.018)" fill="#14b0bf"/>
            <path id="Trazado_198439" data-name="Trazado 198439" d="M397.257,158.192a8.586,8.586,0,0,0,.421,1.567,8.725,8.725,0,0,0,.617,1.3l1.543-1.245a6.831,6.831,0,0,0-.96-.8A6.756,6.756,0,0,0,397.257,158.192Z" transform="translate(-397.257 -158.192)" fill="#16405e"/>
          </g>
          <path id="Trazado_198440" data-name="Trazado 198440" d="M410.219,166.717l-2.7-2.017a1.153,1.153,0,0,0-1.4.015,5.321,5.321,0,0,0,3.175,2.647c.2.039.367.056.485.069a1.553,1.553,0,0,0,.665-.519Z" transform="translate(-389.703 -152.841)" fill="#ead4c1"/>
          <g id="Grupo_564350" data-name="Grupo 564350" transform="translate(7.479 18.737)">
            <path id="Trazado_198441" data-name="Trazado 198441" d="M413.428,182.612c-.039-.048-.08-.1-.117-.143s-.085-.107-.124-.163l-.011-.013c-.039-.048-.074-.1-.107-.148s-.076-.113-.109-.172-.061-.1-.093-.156-.048-.091-.072-.133l-.024-.046c-.022-.046-.041-.089-.059-.132s-.043-.1-.059-.145c-.458-1.219-1.419-10.456-1.588-11.643s-.908-1.745-3.094-1.2a1.8,1.8,0,0,0-1.486,1.973,39.25,39.25,0,0,1,.163,4.12c-.165,2.823-.271,5.926-.532,8.74a30.657,30.657,0,0,1-3.325,6.58,9.419,9.419,0,0,0-.713,1.3c-.041.091-.076.178-.113.269a8.644,8.644,0,0,0-.354,1.05,8.968,8.968,0,0,0-.25,1.291c-.015.133-.03.267-.037.4-.007.091-.015.182-.018.276,0,.115-.007.233-.009.346,0,.07,0,.137,0,.206q0,.206.011.406c0,.069.007.133.011.2l.031.393c.009.067.017.132.024.2s.017.13.026.193.017.126.026.191c.315-.135.626-.274.934-.421,5.719-2.692,10.158-7.281,11.084-13.6Z" transform="translate(-401.294 -168.306)" fill="#f2c4a5"/>
            <path id="Trazado_198442" data-name="Trazado 198442" d="M407.964,169.182a.774.774,0,0,0-.873-.656l-1.973.278a.773.773,0,0,0-.654.873l.269,1.906a1.822,1.822,0,0,0,1.782,1.6,1.773,1.773,0,0,0,1.729-2.014Z" transform="translate(-398.598 -168.124)" fill="#ead4c1"/>
          </g>
          <path id="Trazado_198443" data-name="Trazado 198443" d="M402.213,185.942a36.141,36.141,0,0,1-.6-4.55,8.968,8.968,0,0,0-.25,1.291c-.015.133-.03.267-.037.4-.007.091-.015.182-.018.276,0,.115-.007.233-.009.346,0,.07,0,.137,0,.206q0,.206.011.406c0,.069.007.133.011.2.005.133.017.265.031.393.009.067.017.132.024.2s.017.13.026.193.017.126.026.191a13.427,13.427,0,0,0,1.838,4.922s8.49,20.041,8.857,19.9l1.036-.389c-1.117-2.208-3.283-6.653-7.179-15.15C404.143,190.779,402.878,188.46,402.213,185.942Z" transform="translate(-393.815 -138.412)" fill="#e7b088"/>
        </g>
        <path id="Trazado_198444" data-name="Trazado 198444" d="M401.554,190.118l1.938,7.5,17.9-5.371-1.717-8.091Z" transform="translate(-393.594 -136.059)" fill="#fff"/>
        <g id="Grupo_564351" data-name="Grupo 564351" transform="translate(8.423 50.886)">
          <path id="Trazado_198445" data-name="Trazado 198445" d="M437.56,216.721,424.552,185.66,413.713,190.8l-11.91,5.643,7.21,20.274Z" transform="translate(-401.804 -185.66)" fill="#b6e7f2"/>
          <path id="Trazado_198446" data-name="Trazado 198446" d="M419.613,213.438c-4.709-11.66-9.665-23.928-9.665-23.928l-8.144,3.653,7.208,20.275Z" transform="translate(-401.803 -182.377)" fill="#7ebfce"/>
        </g>
      </g>
      <g id="Grupo_564354" data-name="Grupo 564354" transform="translate(354.171 177.598)">
        <g id="_12" data-name="12" transform="translate(8.442)">
          <path id="Trazado_198447" data-name="Trazado 198447" d="M392.544,200.5c.337-.63,1.9-5.148,3.24-9.083.017-.035.028-.08.043-.113.569-1.7,1.11-3.288,1.471-4.389a1.244,1.244,0,0,0,.035-.676,1.182,1.182,0,0,0-.18-.443,1.3,1.3,0,0,0-1.223-.6,5.1,5.1,0,0,0-3.624,2.127,14.739,14.739,0,0,0-1.7,2.779l-.12-1.68-.272-3.8s-.678-18.446-2.851-19.072a2,2,0,0,0-2.147.482,1.812,1.812,0,0,0-.139.176c-.2.319-.156.763-.256,1.049l-.019.041a.8.8,0,0,0-.054.137c-.087.241-.135.409-.148.463.011-.315.017-.634.017-.943,0-.215,0-.422-.007-.626-.028-1.017.346-2.994-.624-3.464a2.281,2.281,0,0,0-2.912.495c-.213.333-.454.687-.672,1.037a3.583,3.583,0,0,0-.689,2.336,1.144,1.144,0,0,0-.1-.348c-.143-.324-.711-.552-1.058-.65a2.282,2.282,0,0,0-2.034.723,5.587,5.587,0,0,0-1.08,2.381,6.863,6.863,0,0,0-.207.658c-.022.07-.041.152-.061.222a2.008,2.008,0,0,0-.05.239c-.031.117-.052.226-.072.337-.065.322-.1.619-.135.852-.041.354-.044.561-.044.561l-.408-.185a1.512,1.512,0,0,0-1.373.13c-2.968,2.225-4.1,13.492-4.985,19.671-.019.172-.048.348-.07.509-.1.658-.187,1.25-.272,1.753-.02.041-.026.078-.046.12-1.5,4.465.278,14.222.33,14.506,0,0-5.121,9.465-9.309,17.236l15.715,7.132c3.2-7.357,6.315-14.711,9.513-22.04A32.362,32.362,0,0,0,392.544,200.5Z" transform="translate(-358.727 -162.57)" fill="#f2c4a5"/>
          <path id="Trazado_198448" data-name="Trazado 198448" d="M371.752,166.345a1.076,1.076,0,0,0-.65-1.367l-1.128-.315a1.077,1.077,0,0,0-1.262.839l-.391,1.41a1.781,1.781,0,0,0,.878,2.173,1.691,1.691,0,0,0,2.149-1.286Z" transform="translate(-350.617 -160.813)" fill="#ead4c1"/>
          <path id="Trazado_198449" data-name="Trazado 198449" d="M368.449,168.043a.714.714,0,0,0-.1-.052l-.845-.335a.831.831,0,0,0-1.039.539l-.42,1.054a1.381,1.381,0,0,0,.5,1.747,1.286,1.286,0,0,0,1.7-.689A17.745,17.745,0,0,1,368.449,168.043Z" transform="translate(-352.589 -158.275)" fill="#ead4c1"/>
          <path id="Trazado_198450" data-name="Trazado 198450" d="M368.657,165.954c-.08.224-.148.443-.207.66-.02.072-.041.145-.057.22s-.041.157-.056.237c-.026.115-.052.228-.07.337-.067.328-.1.619-.132.852l0,0c-.039.352-.044.565-.044.565l-.408-.187a170.355,170.355,0,0,0-1,18.492c-.006.621.2,1.808.53,1.738.009-.265.158-8.716.126-10.756C367.31,176.542,368.219,169.32,368.657,165.954Z" transform="translate(-351.95 -159.685)" fill="#e7b088"/>
          <path id="Trazado_198451" data-name="Trazado 198451" d="M369.6,187.764c.013-1.093-.013-2.188.067-3.275.409-5.3.454-7.477.685-10.4a104.564,104.564,0,0,1,1.408-10.615.377.377,0,0,1-.18.159,3.532,3.532,0,0,0-.691,2.331,1.03,1.03,0,0,0-.1-.345c-.38,2.553-.706,5.465-.941,7.881-.169,1.706-.32,3.383-.443,5.028-.183,2.11-.3,4.376-.32,6.777-.007.893,0,1.79.026,2.683.018.6.12,1.136.156,1.992C369.731,189.828,369.594,188.148,369.6,187.764Z" transform="translate(-349.905 -161.801)" fill="#e7b088"/>
          <path id="Trazado_198452" data-name="Trazado 198452" d="M373.244,177.331c-.1-3.772.048-9.62.289-12.89a1.942,1.942,0,0,0-.132.174c-.209.32-.154.761-.263,1.049l-.02.043c-.017.048-.033.093-.05.139l-.13-.232-.333,12.025-.17,7.979c-.006.545-.085,2.19.295,2.571C372.729,188.189,373.263,182.533,373.244,177.331Z" transform="translate(-347.051 -160.975)" fill="#e7b088"/>
          <path id="Trazado_198453" data-name="Trazado 198453" d="M367.539,186.318a38.75,38.75,0,0,1,.335-7.408c-.043.265-.085.517-.122.747l-.043.12c-1.5,4.467.278,14.224.326,14.5l0,.006s-5.122,9.467-9.309,17.231l.81.367c3.948-7.292,8.5-15.786,9.25-17.583A38.771,38.771,0,0,1,367.539,186.318Z" transform="translate(-358.728 -148.639)" fill="#e7b088"/>
          <path id="Trazado_198454" data-name="Trazado 198454" d="M374.091,164.118a1.077,1.077,0,0,0-.878-1.234l-1.165-.113a1.077,1.077,0,0,0-1.1,1.043l-.141,1.456a1.78,1.78,0,0,0,1.241,1.988,1.689,1.689,0,0,0,1.9-1.638Z" transform="translate(-348.436 -162.403)" fill="#ead4c1"/>
          <path id="Trazado_198455" data-name="Trazado 198455" d="M375.752,165.365a.9.9,0,0,0-.823-.963l-.982-.006a.9.9,0,0,0-.836.952l-.007,1.223a1.487,1.487,0,0,0,1.184,1.564,1.411,1.411,0,0,0,1.454-1.506Z" transform="translate(-346.47 -161.014)" fill="#ead4c1"/>
          <path id="Trazado_198456" data-name="Trazado 198456" d="M376.9,178.727l-.12-1.68a72.583,72.583,0,0,1-1.96,8.761c1.295-3.053,2.723-7.06,3.783-9.859A14.649,14.649,0,0,0,376.9,178.727Z" transform="translate(-345.008 -151.165)" fill="#e7b088"/>
          <path id="Trazado_198457" data-name="Trazado 198457" d="M380.912,175.264a1.3,1.3,0,0,0-.4-.107,2.454,2.454,0,0,0-2.155,1.145,2.782,2.782,0,0,0-.122,2.9,2.6,2.6,0,0,0,1.23.748c.065.011,1.113-3.035,1.434-4.052A1.1,1.1,0,0,0,380.912,175.264Z" transform="translate(-342.401 -151.848)" fill="#ead4c1"/>
        </g>
        <path id="Trazado_198458" data-name="Trazado 198458" d="M364.538,186.453l-2.929,7.167,17.56,6.4,3.461-7.512Z" transform="translate(-347.829 -142.208)" fill="#fff"/>
        <g id="Grupo_564353" data-name="Grupo 564353" transform="translate(0 47.616)">
          <path id="Trazado_198459" data-name="Trazado 198459" d="M382.312,214.494l6.3-20.293-10.972-2.593-14.119-3.334-9.348,26.221Z" transform="translate(-354.171 -188.273)" fill="#7ebfce"/>
          <path id="Trazado_198460" data-name="Trazado 198460" d="M370.231,214.494l7.407-22.887-14.119-3.334-9.348,26.221Z" transform="translate(-354.171 -188.273)" fill="#b6e7f2"/>
        </g>
      </g>
    </g>
  </g>
</svg>
